<svg version="1.1" xmlns="http://www.w3.org/2000/svg" aria-hidden="true">
  <defs>
    <symbol id="google" viewBox="0 0 24 28">
      <title>google</title>
      <path d="M12 12.281h11.328c0.109 0.609 0.187 1.203 0.187 2 0 6.844-4.594 11.719-11.516 11.719-6.641 0-12-5.359-12-12s5.359-12 12-12c3.234 0 5.953 1.188 8.047 3.141l-3.266 3.141c-0.891-0.859-2.453-1.859-4.781-1.859-4.094 0-7.438 3.391-7.438 7.578s3.344 7.578 7.438 7.578c4.75 0 6.531-3.406 6.813-5.172h-6.813v-4.125z"></path>
    </symbol>
    <symbol id="google-plus" viewBox="0 0 36 28">
      <title>google-plus</title>
      <path d="M22.453 14.266c0 6.547-4.391 11.188-11 11.188-6.328 0-11.453-5.125-11.453-11.453s5.125-11.453 11.453-11.453c3.094 0 5.672 1.125 7.672 3l-3.109 2.984c-0.844-0.812-2.328-1.766-4.562-1.766-3.906 0-7.094 3.234-7.094 7.234s3.187 7.234 7.094 7.234c4.531 0 6.234-3.266 6.5-4.937h-6.5v-3.938h10.813c0.109 0.578 0.187 1.156 0.187 1.906zM36 12.359v3.281h-3.266v3.266h-3.281v-3.266h-3.266v-3.281h3.266v-3.266h3.281v3.266h3.266z"></path>
    </symbol>
    <symbol id="google-plus-square" viewBox="0 0 24 28">
      <title>google-plus-square</title>
      <path d="M14.328 14.141c0-0.391-0.047-0.703-0.094-1h-5.656v2.063h3.391c-0.125 0.875-1.016 2.578-3.391 2.578-2.063 0-3.734-1.687-3.734-3.781s1.672-3.781 3.734-3.781c1.156 0 1.937 0.484 2.391 0.922l1.625-1.578c-1.047-0.969-2.406-1.563-4.016-1.563-3.328 0-6 2.688-6 6s2.672 6 6 6c3.453 0 5.75-2.438 5.75-5.859zM19.719 14.859h1.703v-1.719h-1.703v-1.719h-1.719v1.719h-1.719v1.719h1.719v1.719h1.719v-1.719zM24 6.5v15c0 2.484-2.016 4.5-4.5 4.5h-15c-2.484 0-4.5-2.016-4.5-4.5v-15c0-2.484 2.016-4.5 4.5-4.5h15c2.484 0 4.5 2.016 4.5 4.5z"></path>
    </symbol>
    <symbol id="google-plus-circle" viewBox="0 0 24 28">
      <title>google-plus-circle</title>
      <path d="M14.328 14.141c0-0.344-0.031-0.672-0.094-1h-5.656v2.063h3.391c-0.25 1.656-1.813 2.578-3.391 2.578-2.078 0-3.734-1.719-3.734-3.781s1.656-3.781 3.734-3.781c0.875 0 1.75 0.297 2.391 0.922l1.625-1.578c-1.109-1.031-2.5-1.563-4.016-1.563-3.328 0-6 2.688-6 6s2.672 6 6 6c3.453 0 5.75-2.438 5.75-5.859zM19.719 14.859h1.703v-1.719h-1.703v-1.719h-1.719v1.719h-1.719v1.719h1.719v1.719h1.719v-1.719zM24 14c0 6.625-5.375 12-12 12s-12-5.375-12-12 5.375-12 12-12 12 5.375 12 12z"></path>
    </symbol>
    <symbol id="youtube" viewBox="0 0 24 28">
      <title>youtube</title>
      <path d="M15.172 19.437v3.297c0 0.703-0.203 1.047-0.609 1.047-0.234 0-0.469-0.109-0.703-0.344v-4.703c0.234-0.234 0.469-0.344 0.703-0.344 0.406 0 0.609 0.359 0.609 1.047zM20.453 19.453v0.719h-1.406v-0.719c0-0.703 0.234-1.062 0.703-1.062s0.703 0.359 0.703 1.062zM5.359 16.047h1.672v-1.469h-4.875v1.469h1.641v8.891h1.563v-8.891zM9.859 24.938h1.391v-7.719h-1.391v5.906c-0.313 0.438-0.609 0.656-0.891 0.656-0.187 0-0.297-0.109-0.328-0.328-0.016-0.047-0.016-0.219-0.016-0.547v-5.688h-1.391v6.109c0 0.547 0.047 0.906 0.125 1.141 0.125 0.391 0.453 0.578 0.906 0.578 0.5 0 1.031-0.313 1.594-0.953v0.844zM16.562 22.625v-3.078c0-0.719-0.031-1.234-0.141-1.547-0.172-0.578-0.562-0.875-1.109-0.875-0.516 0-1 0.281-1.453 0.844v-3.391h-1.391v10.359h1.391v-0.75c0.469 0.578 0.953 0.859 1.453 0.859 0.547 0 0.938-0.297 1.109-0.859 0.109-0.328 0.141-0.844 0.141-1.563zM21.844 22.469v-0.203h-1.422c0 0.562-0.016 0.875-0.031 0.953-0.078 0.375-0.281 0.562-0.625 0.562-0.484 0-0.719-0.359-0.719-1.078v-1.359h2.797v-1.609c0-0.828-0.141-1.422-0.422-1.813-0.406-0.531-0.953-0.797-1.656-0.797-0.719 0-1.266 0.266-1.672 0.797-0.297 0.391-0.438 0.984-0.438 1.813v2.703c0 0.828 0.156 1.437 0.453 1.813 0.406 0.531 0.953 0.797 1.687 0.797s1.313-0.281 1.687-0.828c0.172-0.25 0.297-0.531 0.328-0.844 0.031-0.141 0.031-0.453 0.031-0.906zM12.344 8.203v-3.281c0-0.719-0.203-1.078-0.672-1.078-0.453 0-0.672 0.359-0.672 1.078v3.281c0 0.719 0.219 1.094 0.672 1.094 0.469 0 0.672-0.375 0.672-1.094zM23.578 19.938c0 1.797-0.016 3.719-0.406 5.469-0.297 1.234-1.297 2.141-2.5 2.266-2.875 0.328-5.781 0.328-8.672 0.328s-5.797 0-8.672-0.328c-1.203-0.125-2.219-1.031-2.5-2.266-0.406-1.75-0.406-3.672-0.406-5.469v0c0-1.813 0.016-3.719 0.406-5.469 0.297-1.234 1.297-2.141 2.516-2.281 2.859-0.313 5.766-0.313 8.656-0.313s5.797 0 8.672 0.313c1.203 0.141 2.219 1.047 2.5 2.281 0.406 1.75 0.406 3.656 0.406 5.469zM7.984 0h1.594l-1.891 6.234v4.234h-1.563v-4.234c-0.141-0.766-0.453-1.859-0.953-3.313-0.344-0.969-0.688-1.953-1.016-2.922h1.656l1.109 4.109zM13.766 5.203v2.734c0 0.828-0.141 1.453-0.438 1.844-0.391 0.531-0.938 0.797-1.656 0.797-0.703 0-1.25-0.266-1.641-0.797-0.297-0.406-0.438-1.016-0.438-1.844v-2.734c0-0.828 0.141-1.437 0.438-1.828 0.391-0.531 0.938-0.797 1.641-0.797 0.719 0 1.266 0.266 1.656 0.797 0.297 0.391 0.438 1 0.438 1.828zM19 2.672v7.797h-1.422v-0.859c-0.562 0.656-1.094 0.969-1.609 0.969-0.453 0-0.781-0.187-0.922-0.578-0.078-0.234-0.125-0.609-0.125-1.172v-6.156h1.422v5.734c0 0.328 0 0.516 0.016 0.547 0.031 0.219 0.141 0.344 0.328 0.344 0.281 0 0.578-0.219 0.891-0.672v-5.953h1.422z"></path>
    </symbol>
    <symbol id="youtube-square" viewBox="0 0 24 28">
      <title>youtube-square</title>
      <path d="M14.359 20.359v-2.453c0-0.516-0.156-0.781-0.453-0.781-0.172 0-0.344 0.078-0.516 0.25v3.5c0.172 0.172 0.344 0.25 0.516 0.25 0.297 0 0.453-0.25 0.453-0.766zM17.234 18.453h1.031v-0.531c0-0.531-0.172-0.797-0.516-0.797s-0.516 0.266-0.516 0.797v0.531zM8.313 14.297v1.094h-1.25v6.609h-1.156v-6.609h-1.219v-1.094h3.625zM11.453 16.266v5.734h-1.047v-0.625c-0.406 0.469-0.797 0.703-1.188 0.703-0.328 0-0.562-0.141-0.656-0.438-0.063-0.172-0.094-0.438-0.094-0.844v-4.531h1.031v4.219c0 0.234 0 0.375 0.016 0.406 0.016 0.156 0.094 0.234 0.234 0.234 0.219 0 0.422-0.156 0.656-0.484v-4.375h1.047zM15.391 18v2.281c0 0.516-0.031 0.906-0.109 1.141-0.125 0.438-0.406 0.656-0.828 0.656-0.359 0-0.719-0.219-1.062-0.641v0.562h-1.047v-7.703h1.047v2.516c0.328-0.406 0.688-0.625 1.062-0.625 0.422 0 0.703 0.219 0.828 0.656 0.078 0.234 0.109 0.609 0.109 1.156zM19.313 20.016v0.141c0 0.344-0.016 0.562-0.031 0.672-0.031 0.234-0.109 0.438-0.234 0.625-0.281 0.422-0.719 0.625-1.25 0.625-0.547 0-0.969-0.203-1.266-0.594-0.219-0.281-0.328-0.734-0.328-1.344v-2.016c0-0.609 0.094-1.047 0.313-1.344 0.297-0.391 0.719-0.594 1.25-0.594 0.516 0 0.938 0.203 1.219 0.594 0.219 0.297 0.328 0.734 0.328 1.344v1.188h-2.078v1.016c0 0.531 0.172 0.797 0.531 0.797 0.25 0 0.406-0.141 0.469-0.406 0-0.063 0.016-0.297 0.016-0.703h1.062zM12.266 7.141v2.438c0 0.531-0.172 0.797-0.5 0.797-0.344 0-0.5-0.266-0.5-0.797v-2.438c0-0.531 0.156-0.812 0.5-0.812 0.328 0 0.5 0.281 0.5 0.812zM20.594 18.281v0c0-1.344 0-2.766-0.297-4.062-0.219-0.922-0.969-1.594-1.859-1.687-2.125-0.234-4.281-0.234-6.438-0.234-2.141 0-4.297 0-6.422 0.234-0.906 0.094-1.656 0.766-1.859 1.687-0.297 1.297-0.313 2.719-0.313 4.062v0c0 1.328 0 2.75 0.313 4.062 0.203 0.906 0.953 1.578 1.844 1.687 2.141 0.234 4.297 0.234 6.438 0.234s4.297 0 6.438-0.234c0.891-0.109 1.641-0.781 1.844-1.687 0.313-1.313 0.313-2.734 0.313-4.062zM8.797 8.109l1.406-4.625h-1.172l-0.797 3.047-0.828-3.047h-1.219c0.234 0.719 0.5 1.437 0.734 2.156 0.375 1.094 0.609 1.906 0.719 2.469v3.141h1.156v-3.141zM13.312 9.375v-2.031c0-0.609-0.109-1.062-0.328-1.359-0.297-0.391-0.703-0.594-1.219-0.594-0.531 0-0.938 0.203-1.219 0.594-0.219 0.297-0.328 0.75-0.328 1.359v2.031c0 0.609 0.109 1.062 0.328 1.359 0.281 0.391 0.688 0.594 1.219 0.594 0.516 0 0.922-0.203 1.219-0.594 0.219-0.281 0.328-0.75 0.328-1.359zM16.141 11.25h1.047v-5.781h-1.047v4.422c-0.234 0.328-0.453 0.484-0.656 0.484-0.141 0-0.234-0.078-0.25-0.25-0.016-0.031-0.016-0.156-0.016-0.406v-4.25h-1.047v4.578c0 0.406 0.031 0.672 0.094 0.859 0.109 0.281 0.344 0.422 0.672 0.422 0.391 0 0.781-0.234 1.203-0.703v0.625zM24 6.5v15c0 2.484-2.016 4.5-4.5 4.5h-15c-2.484 0-4.5-2.016-4.5-4.5v-15c0-2.484 2.016-4.5 4.5-4.5h15c2.484 0 4.5 2.016 4.5 4.5z"></path>
    </symbol>
    <symbol id="twitter" viewBox="0 0 26 28">
      <title>twitter</title>
      <path d="M25.312 6.375c-0.688 1-1.547 1.891-2.531 2.609 0.016 0.219 0.016 0.438 0.016 0.656 0 6.672-5.078 14.359-14.359 14.359-2.859 0-5.516-0.828-7.75-2.266 0.406 0.047 0.797 0.063 1.219 0.063 2.359 0 4.531-0.797 6.266-2.156-2.219-0.047-4.078-1.5-4.719-3.5 0.313 0.047 0.625 0.078 0.953 0.078 0.453 0 0.906-0.063 1.328-0.172-2.312-0.469-4.047-2.5-4.047-4.953v-0.063c0.672 0.375 1.453 0.609 2.281 0.641-1.359-0.906-2.25-2.453-2.25-4.203 0-0.938 0.25-1.797 0.688-2.547 2.484 3.062 6.219 5.063 10.406 5.281-0.078-0.375-0.125-0.766-0.125-1.156 0-2.781 2.25-5.047 5.047-5.047 1.453 0 2.766 0.609 3.687 1.594 1.141-0.219 2.234-0.641 3.203-1.219-0.375 1.172-1.172 2.156-2.219 2.781 1.016-0.109 2-0.391 2.906-0.781z"></path>
    </symbol>
    <symbol id="twitter-square" viewBox="0 0 24 28">
      <title>twitter-square</title>
      <path d="M20 9.531c-0.594 0.266-1.219 0.438-1.891 0.531 0.688-0.406 1.203-1.062 1.453-1.828-0.641 0.375-1.344 0.656-2.094 0.797-0.594-0.641-1.453-1.031-2.391-1.031-1.813 0-3.281 1.469-3.281 3.281 0 0.25 0.016 0.516 0.078 0.75-2.734-0.141-5.156-1.437-6.781-3.437-0.281 0.484-0.453 1.062-0.453 1.656 0 1.141 0.531 2.141 1.422 2.734-0.547-0.016-1.062-0.172-1.563-0.406v0.031c0 1.594 1.203 2.922 2.703 3.219-0.281 0.078-0.5 0.125-0.797 0.125-0.203 0-0.406-0.031-0.609-0.063 0.422 1.297 1.625 2.25 3.063 2.281-1.125 0.875-2.531 1.406-4.078 1.406-0.266 0-0.531-0.016-0.781-0.047 1.453 0.922 3.172 1.469 5.031 1.469 6.031 0 9.344-5 9.344-9.344 0-0.141 0-0.281-0.016-0.422 0.641-0.453 1.203-1.031 1.641-1.703zM24 6.5v15c0 2.484-2.016 4.5-4.5 4.5h-15c-2.484 0-4.5-2.016-4.5-4.5v-15c0-2.484 2.016-4.5 4.5-4.5h15c2.484 0 4.5 2.016 4.5 4.5z"></path>
    </symbol>
    <symbol id="facebook" viewBox="0 0 16 28">
      <title>facebook</title>
      <path d="M14.984 0.187v4.125h-2.453c-1.922 0-2.281 0.922-2.281 2.25v2.953h4.578l-0.609 4.625h-3.969v11.859h-4.781v-11.859h-3.984v-4.625h3.984v-3.406c0-3.953 2.422-6.109 5.953-6.109 1.687 0 3.141 0.125 3.563 0.187z"></path>
    </symbol>
    <symbol id="facebook-square" viewBox="0 0 24 28">
      <title>facebook-square</title>
      <path d="M19.5 2c2.484 0 4.5 2.016 4.5 4.5v15c0 2.484-2.016 4.5-4.5 4.5h-2.938v-9.297h3.109l0.469-3.625h-3.578v-2.312c0-1.047 0.281-1.75 1.797-1.75l1.906-0.016v-3.234c-0.328-0.047-1.469-0.141-2.781-0.141-2.766 0-4.672 1.687-4.672 4.781v2.672h-3.125v3.625h3.125v9.297h-8.313c-2.484 0-4.5-2.016-4.5-4.5v-15c0-2.484 2.016-4.5 4.5-4.5h15z"></path>
    </symbol>
    <symbol id="whatsapp" viewBox="0 0 24 28">
      <title>whatsapp</title>
      <path d="M15.391 15.219c0.266 0 2.812 1.328 2.922 1.516 0.031 0.078 0.031 0.172 0.031 0.234 0 0.391-0.125 0.828-0.266 1.188-0.359 0.875-1.813 1.437-2.703 1.437-0.75 0-2.297-0.656-2.969-0.969-2.234-1.016-3.625-2.75-4.969-4.734-0.594-0.875-1.125-1.953-1.109-3.031v-0.125c0.031-1.031 0.406-1.766 1.156-2.469 0.234-0.219 0.484-0.344 0.812-0.344 0.187 0 0.375 0.047 0.578 0.047 0.422 0 0.5 0.125 0.656 0.531 0.109 0.266 0.906 2.391 0.906 2.547 0 0.594-1.078 1.266-1.078 1.625 0 0.078 0.031 0.156 0.078 0.234 0.344 0.734 1 1.578 1.594 2.141 0.719 0.688 1.484 1.141 2.359 1.578 0.109 0.063 0.219 0.109 0.344 0.109 0.469 0 1.25-1.516 1.656-1.516zM12.219 23.5c5.406 0 9.812-4.406 9.812-9.812s-4.406-9.812-9.812-9.812-9.812 4.406-9.812 9.812c0 2.063 0.656 4.078 1.875 5.75l-1.234 3.641 3.781-1.203c1.594 1.047 3.484 1.625 5.391 1.625zM12.219 1.906c6.5 0 11.781 5.281 11.781 11.781s-5.281 11.781-11.781 11.781c-1.984 0-3.953-0.5-5.703-1.469l-6.516 2.094 2.125-6.328c-1.109-1.828-1.687-3.938-1.687-6.078 0-6.5 5.281-11.781 11.781-11.781z"></path>
    </symbol>
    <symbol id="instagram" viewBox="0 0 24 28">
      <title>instagram</title>
      <path d="M16 14c0-2.203-1.797-4-4-4s-4 1.797-4 4 1.797 4 4 4 4-1.797 4-4zM18.156 14c0 3.406-2.75 6.156-6.156 6.156s-6.156-2.75-6.156-6.156 2.75-6.156 6.156-6.156 6.156 2.75 6.156 6.156zM19.844 7.594c0 0.797-0.641 1.437-1.437 1.437s-1.437-0.641-1.437-1.437 0.641-1.437 1.437-1.437 1.437 0.641 1.437 1.437zM12 4.156c-1.75 0-5.5-0.141-7.078 0.484-0.547 0.219-0.953 0.484-1.375 0.906s-0.688 0.828-0.906 1.375c-0.625 1.578-0.484 5.328-0.484 7.078s-0.141 5.5 0.484 7.078c0.219 0.547 0.484 0.953 0.906 1.375s0.828 0.688 1.375 0.906c1.578 0.625 5.328 0.484 7.078 0.484s5.5 0.141 7.078-0.484c0.547-0.219 0.953-0.484 1.375-0.906s0.688-0.828 0.906-1.375c0.625-1.578 0.484-5.328 0.484-7.078s0.141-5.5-0.484-7.078c-0.219-0.547-0.484-0.953-0.906-1.375s-0.828-0.688-1.375-0.906c-1.578-0.625-5.328-0.484-7.078-0.484zM24 14c0 1.656 0.016 3.297-0.078 4.953-0.094 1.922-0.531 3.625-1.937 5.031s-3.109 1.844-5.031 1.937c-1.656 0.094-3.297 0.078-4.953 0.078s-3.297 0.016-4.953-0.078c-1.922-0.094-3.625-0.531-5.031-1.937s-1.844-3.109-1.937-5.031c-0.094-1.656-0.078-3.297-0.078-4.953s-0.016-3.297 0.078-4.953c0.094-1.922 0.531-3.625 1.937-5.031s3.109-1.844 5.031-1.937c1.656-0.094 3.297-0.078 4.953-0.078s3.297-0.016 4.953 0.078c1.922 0.094 3.625 0.531 5.031 1.937s1.844 3.109 1.937 5.031c0.094 1.656 0.078 3.297 0.078 4.953z"></path>
    </symbol>
    <symbol id="linkedin" viewBox="0 0 24 28">
      <title>linkedin</title>
      <path d="M5.453 9.766v15.484h-5.156v-15.484h5.156zM5.781 4.984c0.016 1.484-1.109 2.672-2.906 2.672v0h-0.031c-1.734 0-2.844-1.188-2.844-2.672 0-1.516 1.156-2.672 2.906-2.672 1.766 0 2.859 1.156 2.875 2.672zM24 16.375v8.875h-5.141v-8.281c0-2.078-0.75-3.5-2.609-3.5-1.422 0-2.266 0.953-2.641 1.875-0.125 0.344-0.172 0.797-0.172 1.266v8.641h-5.141c0.063-14.031 0-15.484 0-15.484h5.141v2.25h-0.031c0.672-1.062 1.891-2.609 4.672-2.609 3.391 0 5.922 2.219 5.922 6.969z"></path>
    </symbol>
    <symbol id="linkedin-square" viewBox="0 0 24 28">
      <title>linkedin-square</title>
      <path d="M3.703 22.094h3.609v-10.844h-3.609v10.844zM7.547 7.906c-0.016-1.062-0.781-1.875-2.016-1.875s-2.047 0.812-2.047 1.875c0 1.031 0.781 1.875 2 1.875h0.016c1.266 0 2.047-0.844 2.047-1.875zM16.688 22.094h3.609v-6.219c0-3.328-1.781-4.875-4.156-4.875-1.937 0-2.797 1.078-3.266 1.828h0.031v-1.578h-3.609s0.047 1.016 0 10.844v0h3.609v-6.062c0-0.313 0.016-0.641 0.109-0.875 0.266-0.641 0.859-1.313 1.859-1.313 1.297 0 1.813 0.984 1.813 2.453v5.797zM24 6.5v15c0 2.484-2.016 4.5-4.5 4.5h-15c-2.484 0-4.5-2.016-4.5-4.5v-15c0-2.484 2.016-4.5 4.5-4.5h15c2.484 0 4.5 2.016 4.5 4.5z"></path>
    </symbol>
    <symbol id="wechat" viewBox="0 0 32 28">
      <title>wechat</title>
      <path d="M9.063 7.203c0-0.859-0.562-1.422-1.422-1.422-0.844 0-1.703 0.562-1.703 1.422 0 0.844 0.859 1.406 1.703 1.406 0.859 0 1.422-0.562 1.422-1.406zM20.672 15.125c0-0.562-0.562-1.125-1.422-1.125-0.562 0-1.125 0.562-1.125 1.125 0 0.578 0.562 1.141 1.125 1.141 0.859 0 1.422-0.562 1.422-1.141zM16.984 7.203c0-0.859-0.562-1.422-1.406-1.422-0.859 0-1.703 0.562-1.703 1.422 0 0.844 0.844 1.406 1.703 1.406 0.844 0 1.406-0.562 1.406-1.406zM26.906 15.125c0-0.562-0.578-1.125-1.422-1.125-0.562 0-1.125 0.562-1.125 1.125 0 0.578 0.562 1.141 1.125 1.141 0.844 0 1.422-0.562 1.422-1.141zM22.75 8.922c-0.359-0.047-0.719-0.063-1.094-0.063-5.375 0-9.625 4.016-9.625 8.953 0 0.828 0.125 1.625 0.359 2.375-0.359 0.031-0.703 0.047-1.062 0.047-1.422 0-2.547-0.281-3.969-0.562l-3.953 1.984 1.125-3.406c-2.828-1.984-4.531-4.547-4.531-7.656 0-5.391 5.094-9.625 11.328-9.625 5.563 0 10.453 3.391 11.422 7.953zM32 17.687c0 2.547-1.687 4.813-3.969 6.516l0.859 2.828-3.109-1.703c-1.141 0.281-2.281 0.578-3.406 0.578-5.391 0-9.625-3.687-9.625-8.219s4.234-8.219 9.625-8.219c5.094 0 9.625 3.687 9.625 8.219z"></path>
    </symbol>
    <symbol id="weibo" viewBox="0 0 28 28">
      <title>weibo</title>
      <path d="M10.547 20.062c0.438-0.719 0.203-1.547-0.531-1.859-0.703-0.297-1.641 0.016-2.078 0.703-0.453 0.703-0.234 1.531 0.469 1.859 0.719 0.328 1.687 0.016 2.141-0.703zM12.016 18.172c0.156-0.281 0.063-0.594-0.219-0.703-0.281-0.094-0.625 0.031-0.781 0.297-0.156 0.281-0.078 0.578 0.203 0.703 0.281 0.109 0.641-0.016 0.797-0.297zM14.734 19.844c-0.938 2.125-3.656 3.281-5.969 2.531-2.234-0.719-3.172-2.922-2.203-4.906 0.969-1.937 3.453-3.031 5.656-2.469 2.297 0.594 3.453 2.75 2.516 4.844zM19.609 17.344c-0.297-3.047-4.297-5.141-8.937-4.688-4.641 0.469-8.141 3.297-7.844 6.344s4.297 5.141 8.937 4.688c4.641-0.469 8.141-3.297 7.844-6.344zM24.422 17.406c0 3.516-5.063 7.938-12.672 7.938-5.812 0-11.75-2.812-11.75-7.453 0-2.422 1.531-5.219 4.172-7.859 3.531-3.531 7.641-5.125 9.188-3.578 0.688 0.672 0.75 1.859 0.313 3.266-0.219 0.719 0.672 0.313 0.672 0.328 2.844-1.203 5.328-1.266 6.234 0.031 0.484 0.688 0.438 1.656 0 2.781-0.203 0.516 0.063 0.594 0.453 0.719 1.609 0.5 3.391 1.703 3.391 3.828zM23.266 7.656c0.891 0.984 1.141 2.344 0.75 3.531-0.156 0.484-0.672 0.75-1.156 0.594s-0.75-0.672-0.594-1.156v0c0.187-0.594 0.063-1.25-0.375-1.734s-1.078-0.672-1.672-0.547v0c-0.5 0.109-1-0.203-1.094-0.703-0.109-0.5 0.203-0.984 0.703-1.094 1.219-0.266 2.547 0.109 3.437 1.109zM26.094 5.109c1.844 2.031 2.328 4.812 1.547 7.25v0c-0.187 0.562-0.781 0.875-1.344 0.688s-0.875-0.781-0.703-1.344v0c0.562-1.734 0.219-3.719-1.094-5.156-1.313-1.453-3.234-2-5.016-1.625-0.578 0.125-1.156-0.25-1.281-0.828s0.25-1.141 0.828-1.266v0c2.516-0.531 5.219 0.234 7.063 2.281z"></path>
    </symbol>
    <symbol id="qq" viewBox="0 0 28 28">
      <title>qq</title>
      <path d="M4.219 12.594c-0.109-0.266-0.125-0.531-0.125-0.812 0-0.438 0.281-1.141 0.547-1.469-0.016-0.406 0.156-1.234 0.469-1.5 0-2.891 2.234-6.531 4.844-7.781 1.609-0.766 3.297-1.031 5.063-1.031 1.375 0 2.875 0.328 4.156 0.859 3.672 1.547 4.5 4.422 5.281 8.094l0.016 0.078c0.453 0.688 0.859 1.5 0.859 2.344 0 0.422-0.281 0.844-0.281 1.219 0 0.031 0.094 0.156 0.109 0.187 1.344 1.984 2.562 4.141 2.562 6.609 0 0.547-0.297 2.453-1.172 2.453-0.609 0-1.281-1.484-1.5-1.891-0.016-0.016-0.031-0.016-0.047-0.016l-0.078 0.063c-0.5 1.297-1.047 2.516-2.063 3.484 0.891 0.859 2.328 0.781 2.594 2.266-0.078 0.172-0.047 0.359-0.172 0.531-0.891 1.344-3.281 1.516-4.719 1.516-1.906 0-3.453-0.5-5.25-1.031-0.375-0.109-0.938-0.047-1.344-0.094-0.953 1.047-3.281 1.328-4.625 1.328-1.188 0-5.781-0.078-5.781-2.109 0-0.875 0.187-1.125 0.797-1.687 0.484-0.094 0.844-0.359 1.406-0.391 0.078 0 0.141-0.016 0.219-0.031 0.016-0.016 0.031-0.016 0.031-0.063l-0.031-0.047c-1.078-0.25-2.594-2.969-2.828-4.094l-0.078-0.047c-0.109 0-0.156 0.234-0.187 0.313-0.344 0.797-1.156 1.656-2.063 1.75h-0.016c-0.125 0-0.078-0.125-0.172-0.156-0.219-0.516-0.359-0.984-0.359-1.563 0-3.125 1.5-5.437 3.938-7.281z"></path>
    </symbol>
    <symbol id="github" viewBox="0 0 24 28">
      <title>github</title>
      <path d="M12 2c6.625 0 12 5.375 12 12 0 5.297-3.437 9.797-8.203 11.391-0.609 0.109-0.828-0.266-0.828-0.578 0-0.391 0.016-1.687 0.016-3.297 0-1.125-0.375-1.844-0.812-2.219 2.672-0.297 5.484-1.313 5.484-5.922 0-1.313-0.469-2.375-1.234-3.219 0.125-0.313 0.531-1.531-0.125-3.187-1-0.313-3.297 1.234-3.297 1.234-0.953-0.266-1.984-0.406-3-0.406s-2.047 0.141-3 0.406c0 0-2.297-1.547-3.297-1.234-0.656 1.656-0.25 2.875-0.125 3.187-0.766 0.844-1.234 1.906-1.234 3.219 0 4.594 2.797 5.625 5.469 5.922-0.344 0.313-0.656 0.844-0.766 1.609-0.688 0.313-2.438 0.844-3.484-1-0.656-1.141-1.844-1.234-1.844-1.234-1.172-0.016-0.078 0.734-0.078 0.734 0.781 0.359 1.328 1.75 1.328 1.75 0.703 2.141 4.047 1.422 4.047 1.422 0 1 0.016 1.937 0.016 2.234 0 0.313-0.219 0.688-0.828 0.578-4.766-1.594-8.203-6.094-8.203-11.391 0-6.625 5.375-12 12-12zM4.547 19.234c0.031-0.063-0.016-0.141-0.109-0.187-0.094-0.031-0.172-0.016-0.203 0.031-0.031 0.063 0.016 0.141 0.109 0.187 0.078 0.047 0.172 0.031 0.203-0.031zM5.031 19.766c0.063-0.047 0.047-0.156-0.031-0.25-0.078-0.078-0.187-0.109-0.25-0.047-0.063 0.047-0.047 0.156 0.031 0.25 0.078 0.078 0.187 0.109 0.25 0.047zM5.5 20.469c0.078-0.063 0.078-0.187 0-0.297-0.063-0.109-0.187-0.156-0.266-0.094-0.078 0.047-0.078 0.172 0 0.281s0.203 0.156 0.266 0.109zM6.156 21.125c0.063-0.063 0.031-0.203-0.063-0.297-0.109-0.109-0.25-0.125-0.313-0.047-0.078 0.063-0.047 0.203 0.063 0.297 0.109 0.109 0.25 0.125 0.313 0.047zM7.047 21.516c0.031-0.094-0.063-0.203-0.203-0.25-0.125-0.031-0.266 0.016-0.297 0.109s0.063 0.203 0.203 0.234c0.125 0.047 0.266 0 0.297-0.094zM8.031 21.594c0-0.109-0.125-0.187-0.266-0.172-0.141 0-0.25 0.078-0.25 0.172 0 0.109 0.109 0.187 0.266 0.172 0.141 0 0.25-0.078 0.25-0.172zM8.937 21.438c-0.016-0.094-0.141-0.156-0.281-0.141-0.141 0.031-0.234 0.125-0.219 0.234 0.016 0.094 0.141 0.156 0.281 0.125s0.234-0.125 0.219-0.219z"></path>
    </symbol>
    <symbol id="github-square" viewBox="0 0 24 28">
      <title>github-square</title>
      <path d="M8.109 18.75v0c0.031-0.047 0.016-0.141-0.047-0.203-0.078-0.063-0.172-0.078-0.219-0.031-0.031 0.047-0.016 0.141 0.047 0.203 0.078 0.063 0.172 0.078 0.219 0.031zM7.672 18.109c-0.047-0.063-0.125-0.094-0.187-0.063-0.047 0.031-0.047 0.125 0 0.187 0.063 0.078 0.141 0.109 0.187 0.078v0c0.047-0.031 0.047-0.125 0-0.203zM7.031 17.484v0c0.016-0.031-0.016-0.094-0.078-0.125-0.047-0.016-0.109-0.016-0.125 0.031-0.031 0.047 0 0.094 0.063 0.125 0.063 0.016 0.125 0.016 0.141-0.031zM7.359 17.844v0c0.031-0.031 0.031-0.109-0.031-0.156-0.047-0.063-0.125-0.078-0.156-0.047-0.047 0.047-0.031 0.109 0.016 0.172 0.047 0.047 0.125 0.078 0.172 0.031zM8.703 19.016v0c0.016-0.063-0.047-0.141-0.141-0.172s-0.172 0-0.203 0.063c-0.016 0.063 0.047 0.141 0.141 0.172s0.172 0 0.203-0.063zM9.359 19.063v0c0-0.063-0.078-0.125-0.187-0.125-0.094 0-0.156 0.063-0.156 0.125s0.078 0.125 0.172 0.125 0.172-0.063 0.172-0.125zM9.969 18.953v0c-0.016-0.063-0.109-0.094-0.203-0.078s-0.156 0.078-0.141 0.141 0.094 0.109 0.187 0.094 0.156-0.094 0.156-0.156zM20 14c0-4.422-3.578-8-8-8s-8 3.578-8 8c0 3.531 2.297 6.531 5.469 7.594 0.406 0.078 0.547-0.172 0.547-0.391 0-0.187 0-0.812-0.016-1.484 0 0-2.219 0.484-2.688-0.953 0 0-0.359-0.922-0.891-1.156 0 0-0.719-0.5 0.063-0.5 0 0 0.781 0.063 1.219 0.828 0.703 1.234 1.875 0.875 2.328 0.672 0.078-0.516 0.281-0.875 0.516-1.078-1.781-0.203-3.656-0.891-3.656-3.953 0-0.875 0.313-1.578 0.828-2.141-0.078-0.203-0.359-1.016 0.078-2.125 0.672-0.203 2.203 0.828 2.203 0.828 0.641-0.187 1.313-0.266 2-0.266s1.359 0.078 2 0.266c0 0 1.531-1.031 2.203-0.828 0.438 1.109 0.156 1.922 0.078 2.125 0.516 0.562 0.828 1.266 0.828 2.141 0 3.078-1.875 3.75-3.656 3.953 0.281 0.25 0.547 0.734 0.547 1.484 0 1.062-0.016 1.922-0.016 2.188 0 0.219 0.141 0.469 0.547 0.391 3.172-1.062 5.469-4.062 5.469-7.594zM24 6.5v15c0 2.484-2.016 4.5-4.5 4.5h-15c-2.484 0-4.5-2.016-4.5-4.5v-15c0-2.484 2.016-4.5 4.5-4.5h15c2.484 0 4.5 2.016 4.5 4.5z"></path>
    </symbol>
    <symbol id="github-alt" viewBox="0 0 26 28">
      <title>github-alt</title>
      <path d="M10 19c0 1.141-0.594 3-2 3s-2-1.859-2-3 0.594-3 2-3 2 1.859 2 3zM20 19c0 1.141-0.594 3-2 3s-2-1.859-2-3 0.594-3 2-3 2 1.859 2 3zM22.5 19c0-2.391-1.453-4.5-4-4.5-1.031 0-2.016 0.187-3.047 0.328-0.812 0.125-1.625 0.172-2.453 0.172s-1.641-0.047-2.453-0.172c-1.016-0.141-2.016-0.328-3.047-0.328-2.547 0-4 2.109-4 4.5 0 4.781 4.375 5.516 8.188 5.516h2.625c3.813 0 8.188-0.734 8.188-5.516zM26 16.25c0 1.734-0.172 3.578-0.953 5.172-2.063 4.172-7.734 4.578-11.797 4.578-4.125 0-10.141-0.359-12.281-4.578-0.797-1.578-0.969-3.437-0.969-5.172 0-2.281 0.625-4.438 2.125-6.188-0.281-0.859-0.422-1.766-0.422-2.656 0-1.172 0.266-2.344 0.797-3.406 2.469 0 4.047 1.078 5.922 2.547 1.578-0.375 3.203-0.547 4.828-0.547 1.469 0 2.953 0.156 4.375 0.5 1.859-1.453 3.437-2.5 5.875-2.5 0.531 1.062 0.797 2.234 0.797 3.406 0 0.891-0.141 1.781-0.422 2.625 1.5 1.766 2.125 3.938 2.125 6.219z"></path>
    </symbol>
    <symbol id="free-code-camp" viewBox="0 0 36 28">
      <title>free-code-camp</title>
      <path d="M7.078 25.578c0 0.438-0.391 0.844-0.828 0.844-0.063 0-0.141-0.031-0.203-0.047v0c-0.875-0.203-2-1.516-2.531-2.188-2.438-3.078-3.516-6.672-3.516-10.563 0-3.625 1.094-6.734 3.328-9.594 0.516-0.672 2.047-2.438 2.953-2.438 0.391 0 0.797 0.313 0.797 0.719 0 0.469-0.688 1.109-0.984 1.406-0.859 0.891-1.656 1.797-2.297 2.875-1.328 2.219-1.859 4.438-1.859 7.016 0 2.766 0.516 5.266 1.922 7.672 0.594 1.016 1.297 1.859 2.125 2.703 0.328 0.359 1.094 1.062 1.094 1.594zM28.063 23.484c0 0.578-0.391 1.062-1 1.062h-16.891c-0.547 0-1-0.453-1-1 0-0.578 0.391-1.062 1-1.062h16.891c0.547 0 1 0.453 1 1zM24.703 13.937c0 1.312-0.297 2.531-1.047 3.641-0.516 0.766-1.563 1.75-2.391 2.172-0.125 0.078-0.281 0.156-0.422 0.156-0.125 0-0.359-0.141-0.359-0.281 0-0.453 1.906-1.531 1.906-3.625 0-0.688-0.172-1.453-0.547-2.031-0.109-0.156-0.5-0.656-0.719-0.656-0.047 0-0.047 0.031-0.047 0.078 0 0.375 0.234 0.734 0.234 1.125 0 0.5-0.609 0.75-1.031 0.75-0.734 0-1.031-0.516-1.031-1.188 0-0.453 0.047-0.922 0.047-1.375 0-0.328-0.016-0.422-0.156-0.719-0.219-0.422-0.938-1.281-1.453-1.281-0.141 0-0.187 0-0.187 0.141 0 0.219 0.5 0.453 0.5 1.25 0 2.078-2.859 2.453-2.859 4.531 0 0.938 0.125 1.719 0.656 2.5 0.328 0.484 0.688 0.766 1.234 0.984 0.141 0.047 0.281 0.063 0.281 0.234s-0.141 0.25-0.281 0.25c-0.078 0-0.438-0.141-0.516-0.172v0c-2.406-0.875-4.234-2.969-4.234-5.594 0-3.109 3.734-5.828 3.734-8.813 0-0.578-0.094-0.984-0.391-1.469-0.172-0.281-0.594-0.828-0.875-1-0.125-0.063-0.297-0.172-0.297-0.328 0-0.266 0.453-0.313 0.641-0.313 0.562 0 1.203 0.203 1.719 0.453 2.172 1.031 2.625 2.609 3 4.797 0.094 0.516 0.281 2.156 1.031 2.156 0.484 0 0.797-0.328 0.797-0.797 0-0.703-0.625-1.469-0.625-1.859 0-0.109 0.063-0.156 0.156-0.156 0.391 0 1.203 0.828 1.453 1.094 1.516 1.609 2.078 3.172 2.078 5.344zM36 14.391c0 2.75-0.734 5.5-2.156 7.859-0.656 1.094-2.812 4.156-4.234 4.156-0.328 0-0.719-0.406-0.719-0.734 0-0.531 1.828-2.234 2.281-2.812 1.937-2.438 2.859-5.187 2.859-8.297 0-2.562-0.313-4.641-1.453-6.969-0.703-1.437-1.437-2.406-2.547-3.563-0.359-0.375-1.141-1.078-1.141-1.641 0-0.391 0.406-0.812 0.797-0.812 1.031 0 2.516 1.906 3.063 2.641 2.094 2.812 2.984 5.703 3.219 9.172 0.016 0.328 0.031 0.672 0.031 1z"></path>
    </symbol>
    <symbol id="pinterest" viewBox="0 0 24 28">
      <title>pinterest</title>
      <path d="M24 14c0 6.625-5.375 12-12 12-1.188 0-2.312-0.172-3.406-0.5 0.453-0.719 0.969-1.641 1.219-2.562 0 0 0.141-0.531 0.844-3.297 0.406 0.797 1.625 1.5 2.922 1.5 3.859 0 6.484-3.516 6.484-8.234 0-3.547-3.016-6.875-7.609-6.875-5.688 0-8.563 4.094-8.563 7.5 0 2.063 0.781 3.906 2.453 4.594 0.266 0.109 0.516 0 0.594-0.313 0.063-0.203 0.187-0.734 0.25-0.953 0.078-0.313 0.047-0.406-0.172-0.672-0.484-0.578-0.797-1.313-0.797-2.359 0-3.031 2.266-5.75 5.906-5.75 3.219 0 5 1.969 5 4.609 0 3.453-1.531 6.375-3.813 6.375-1.25 0-2.188-1.031-1.891-2.312 0.359-1.516 1.062-3.156 1.062-4.25 0-0.984-0.531-1.813-1.625-1.813-1.281 0-2.312 1.328-2.312 3.109 0 0 0 1.141 0.391 1.906-1.313 5.563-1.547 6.531-1.547 6.531-0.219 0.906-0.234 1.922-0.203 2.766-4.234-1.859-7.187-6.078-7.187-11 0-6.625 5.375-12 12-12s12 5.375 12 12z"></path>
    </symbol>
    <symbol id="pinterest-square" viewBox="0 0 24 28">
      <title>pinterest-square</title>
      <path d="M19.5 2c2.484 0 4.5 2.016 4.5 4.5v15c0 2.484-2.016 4.5-4.5 4.5h-11.328c0.516-0.734 1.359-2 1.687-3.281 0 0 0.141-0.531 0.828-3.266 0.422 0.797 1.625 1.484 2.906 1.484 3.813 0 6.406-3.484 6.406-8.141 0-3.516-2.984-6.797-7.516-6.797-5.641 0-8.484 4.047-8.484 7.422 0 2.031 0.781 3.844 2.438 4.531 0.266 0.109 0.516 0 0.594-0.297 0.047-0.203 0.172-0.734 0.234-0.953 0.078-0.297 0.047-0.406-0.172-0.656-0.469-0.578-0.781-1.297-0.781-2.344 0-3 2.25-5.672 5.844-5.672 3.187 0 4.937 1.937 4.937 4.547 0 3.422-1.516 6.312-3.766 6.312-1.234 0-2.172-1.031-1.875-2.297 0.359-1.5 1.047-3.125 1.047-4.203 0-0.969-0.516-1.781-1.594-1.781-1.266 0-2.281 1.313-2.281 3.063 0 0 0 1.125 0.375 1.891-1.297 5.5-1.531 6.469-1.531 6.469-0.344 1.437-0.203 3.109-0.109 3.969h-2.859c-2.484 0-4.5-2.016-4.5-4.5v-15c0-2.484 2.016-4.5 4.5-4.5h15z"></path>
    </symbol>
    <symbol id="pinterest-p" viewBox="0 0 20 28">
      <title>pinterest-p</title>
      <path d="M0 9.328c0-5.766 5.281-9.328 10.625-9.328 4.906 0 9.375 3.375 9.375 8.547 0 4.859-2.484 10.25-8.016 10.25-1.313 0-2.969-0.656-3.609-1.875-1.188 4.703-1.094 5.406-3.719 9l-0.219 0.078-0.141-0.156c-0.094-0.984-0.234-1.953-0.234-2.938 0-3.187 1.469-7.797 2.188-10.891-0.391-0.797-0.5-1.766-0.5-2.641 0-1.578 1.094-3.578 2.875-3.578 1.313 0 2.016 1 2.016 2.234 0 2.031-1.375 3.938-1.375 5.906 0 1.344 1.109 2.281 2.406 2.281 3.594 0 4.703-5.187 4.703-7.953 0-3.703-2.625-5.719-6.172-5.719-4.125 0-7.313 2.969-7.313 7.156 0 2.016 1.234 3.047 1.234 3.531 0 0.406-0.297 1.844-0.812 1.844-0.078 0-0.187-0.031-0.266-0.047-2.234-0.672-3.047-3.656-3.047-5.703z"></path>
    </symbol>
    <symbol id="get-pocket" viewBox="0 0 27 28">
      <title>get-pocket</title>
      <path d="M24.453 2c1.359 0 2.422 1.094 2.422 2.438v8.109c0 7.484-5.984 13.453-13.422 13.453-7.469 0-13.453-5.969-13.453-13.453v-8.109c0-1.328 1.109-2.438 2.438-2.438h22.016zM13.453 18.625c0.469 0 0.938-0.187 1.281-0.516l6.312-6.062c0.359-0.344 0.578-0.828 0.578-1.328 0-1.016-0.828-1.844-1.844-1.844-0.484 0-0.938 0.187-1.281 0.516l-5.047 4.844-5.047-4.844c-0.344-0.328-0.797-0.516-1.266-0.516-1.016 0-1.844 0.828-1.844 1.844 0 0.5 0.203 0.984 0.562 1.328l6.328 6.062c0.328 0.328 0.797 0.516 1.266 0.516z"></path>
    </symbol>
    <symbol id="vimeo" viewBox="0 0 28 28">
      <title>vimeo</title>
      <path d="M26.703 8.094c-0.109 2.469-1.844 5.859-5.187 10.172-3.469 4.484-6.375 6.734-8.781 6.734-1.484 0-2.734-1.375-3.75-4.109-0.688-2.5-1.375-5.016-2.063-7.531-0.75-2.734-1.578-4.094-2.453-4.094-0.187 0-0.844 0.391-1.984 1.188l-1.203-1.531c1.25-1.109 2.484-2.234 3.719-3.313 1.656-1.469 2.922-2.203 3.766-2.281 1.984-0.187 3.187 1.156 3.656 4.047 0.484 3.125 0.844 5.078 1.031 5.828 0.578 2.594 1.188 3.891 1.875 3.891 0.531 0 1.328-0.828 2.406-2.516 1.062-1.687 1.625-2.969 1.703-3.844 0.141-1.453-0.422-2.172-1.703-2.172-0.609 0-1.234 0.141-1.891 0.406 1.25-4.094 3.641-6.078 7.172-5.969 2.609 0.078 3.844 1.781 3.687 5.094z"></path>
    </symbol>
    <symbol id="vimeo-square" viewBox="0 0 24 28">
      <title>vimeo-square</title>
      <path d="M20.188 9.969c0.109-2.266-0.734-3.406-2.516-3.469-2.406-0.078-4.031 1.281-4.875 4.078 0.438-0.187 0.859-0.297 1.281-0.297 0.875 0 1.266 0.5 1.156 1.5-0.047 0.594-0.438 1.469-1.156 2.609-0.734 1.156-1.281 1.719-1.641 1.719-0.469 0-0.875-0.875-1.281-2.641-0.125-0.531-0.359-1.844-0.703-3.984-0.313-1.969-1.141-2.891-2.5-2.766-0.562 0.063-1.437 0.562-2.562 1.563-0.844 0.734-1.672 1.5-2.531 2.25l0.812 1.047c0.781-0.531 1.234-0.812 1.359-0.812 0.594 0 1.156 0.938 1.672 2.797 0.469 1.719 0.938 3.422 1.406 5.141 0.703 1.859 1.547 2.797 2.562 2.797 1.625 0 3.625-1.531 5.984-4.594 2.281-2.938 3.469-5.25 3.531-6.937zM24 6.5v15c0 2.484-2.016 4.5-4.5 4.5h-15c-2.484 0-4.5-2.016-4.5-4.5v-15c0-2.484 2.016-4.5 4.5-4.5h15c2.484 0 4.5 2.016 4.5 4.5z"></path>
    </symbol>
    <symbol id="bitcoin" viewBox="0 0 21 28">
      <title>bitcoin</title>
      <path d="M18.234 10c0.203 2.078-0.672 3.328-2.047 4.031 2.281 0.547 3.719 1.906 3.437 4.953-0.359 3.797-3.172 4.813-7.203 5.031v3.984h-2.406v-3.922c-0.609 0-1.25 0-1.906-0.016v3.938h-2.406v-3.984c-0.562 0-1.125-0.016-1.703-0.016h-3.125l0.484-2.859c1.766 0.031 1.734 0 1.734 0 0.672 0 0.859-0.484 0.906-0.797v-6.281h0.25c-0.094-0.016-0.187-0.016-0.25-0.016v-4.484c-0.094-0.5-0.406-1.062-1.391-1.062 0 0 0.031-0.031-1.734 0v-2.562l3.313 0.016c0.484 0 1 0 1.516-0.016v-3.938h2.406v3.859c0.641-0.016 1.281-0.031 1.906-0.031v-3.828h2.406v3.938c3.094 0.266 5.547 1.219 5.812 4.062zM14.875 18.516c0-3.094-5.094-2.641-6.719-2.641v5.281c1.625 0 6.719 0.344 6.719-2.641zM13.766 11.078c0-2.828-4.25-2.406-5.609-2.406v4.797c1.359 0 5.609 0.313 5.609-2.391z"></path>
    </symbol>
    <symbol id="dropbox" viewBox="0 0 28 28">
      <title>dropbox</title>
      <path d="M6.281 11.047l7.719 4.766-5.344 4.453-7.656-4.984zM21.688 19.719v1.687l-7.656 4.578v0.016l-0.016-0.016-0.016 0.016v-0.016l-7.641-4.578v-1.687l2.297 1.5 5.344-4.438v-0.031l0.016 0.016 0.016-0.016v0.031l5.359 4.438zM8.656 1.844l5.344 4.453-7.719 4.75-5.281-4.219zM21.719 11.047l5.281 4.234-7.641 4.984-5.359-4.453zM19.359 1.844l7.641 4.984-5.281 4.219-7.719-4.75z"></path>
    </symbol>
    <symbol id="slack" viewBox="0 0 26 28">
      <title>slack</title>
      <path d="M23.734 12.125c1.281 0 2.266 0.938 2.266 2.219 0 1-0.516 1.703-1.453 2.031l-2.688 0.922 0.875 2.609c0.078 0.234 0.109 0.484 0.109 0.734 0 1.234-1 2.266-2.234 2.266-0.984 0-1.859-0.609-2.172-1.547l-0.859-2.578-4.844 1.656 0.859 2.562c0.078 0.234 0.125 0.484 0.125 0.734 0 1.219-1 2.266-2.25 2.266-0.984 0-1.844-0.609-2.156-1.547l-0.859-2.547-2.391 0.828c-0.25 0.078-0.516 0.141-0.781 0.141-1.266 0-2.219-0.938-2.219-2.203 0-0.969 0.625-1.844 1.547-2.156l2.438-0.828-1.641-4.891-2.438 0.844c-0.25 0.078-0.5 0.125-0.75 0.125-1.25 0-2.219-0.953-2.219-2.203 0-0.969 0.625-1.844 1.547-2.156l2.453-0.828-0.828-2.484c-0.078-0.234-0.125-0.484-0.125-0.734 0-1.234 1-2.266 2.25-2.266 0.984 0 1.844 0.609 2.156 1.547l0.844 2.5 4.844-1.641-0.844-2.5c-0.078-0.234-0.125-0.484-0.125-0.734 0-1.234 1.016-2.266 2.25-2.266 0.984 0 1.859 0.625 2.172 1.547l0.828 2.516 2.531-0.859c0.219-0.063 0.438-0.094 0.672-0.094 1.219 0 2.266 0.906 2.266 2.156 0 0.969-0.75 1.781-1.625 2.078l-2.453 0.844 1.641 4.937 2.562-0.875c0.234-0.078 0.484-0.125 0.719-0.125zM11.328 16.219l4.844-1.641-1.641-4.922-4.844 1.672z"></path>
    </symbol>
    <symbol id="stack-overflow" viewBox="0 0 24 28">
      <title>stack-overflow</title>
      <path d="M20.141 25.5h-17.469v-7.5h-2.5v10h22.469v-10h-2.5v7.5zM5.422 17.313l0.516-2.453 12.234 2.578-0.516 2.438zM7.031 11.469l1.047-2.281 11.328 5.297-1.047 2.266zM10.172 5.906l1.594-1.922 9.594 8.016-1.594 1.922zM16.375 0l7.453 10.016-2 1.5-7.453-10.016zM5.156 22.984v-2.484h12.5v2.484h-12.5z"></path>
    </symbol>
    <symbol id="dribbble" viewBox="0 0 24 28">
      <title>dribbble</title>
      <path d="M16 23.438c-0.156-0.906-0.75-4.031-2.188-7.781-0.016 0-0.047 0.016-0.063 0.016 0 0-6.078 2.125-8.047 6.406-0.094-0.078-0.234-0.172-0.234-0.172 1.781 1.453 4.047 2.344 6.531 2.344 1.422 0 2.766-0.297 4-0.812zM13.109 13.953c-0.25-0.578-0.531-1.156-0.828-1.734-5.281 1.578-10.344 1.453-10.516 1.453-0.016 0.109-0.016 0.219-0.016 0.328 0 2.625 1 5.031 2.625 6.844v0c2.797-4.984 8.328-6.766 8.328-6.766 0.141-0.047 0.281-0.078 0.406-0.125zM11.438 10.641c-1.781-3.156-3.672-5.719-3.813-5.906-2.859 1.344-4.984 3.984-5.656 7.156 0.266 0 4.547 0.047 9.469-1.25zM22.125 15.625c-0.219-0.063-3.078-0.969-6.391-0.453 1.344 3.703 1.891 6.719 2 7.328 2.297-1.547 3.922-4.016 4.391-6.875zM9.547 4.047c-0.016 0-0.016 0-0.031 0.016 0 0 0.016-0.016 0.031-0.016zM18.766 6.312c-1.797-1.594-4.172-2.562-6.766-2.562-0.828 0-1.641 0.109-2.422 0.297 0.156 0.203 2.094 2.75 3.844 5.969 3.859-1.437 5.313-3.656 5.344-3.703zM22.25 13.891c-0.031-2.422-0.891-4.656-2.328-6.406-0.031 0.031-1.672 2.406-5.719 4.062 0.234 0.484 0.469 0.984 0.688 1.484 0.078 0.172 0.141 0.359 0.219 0.531 3.531-0.453 7.016 0.313 7.141 0.328zM24 14c0 6.625-5.375 12-12 12s-12-5.375-12-12 5.375-12 12-12 12 5.375 12 12z"></path>
    </symbol>
    <symbol id="bitbucket" viewBox="0 0 22 28">
      <title>bitbucket</title>
      <path d="M12.734 13.422c0.172 1.312-1.422 2.344-2.531 1.672-1.25-0.547-1.25-2.531-0.031-3.094 1.047-0.641 2.562 0.203 2.562 1.422zM14.469 13.094c-0.281-2.219-2.797-3.687-4.844-2.766-1.297 0.578-2.172 1.953-2.109 3.406 0.078 1.906 1.891 3.469 3.797 3.297s3.391-2.031 3.156-3.938zM18.203 4.625c-0.688-0.906-1.859-1.062-2.891-1.234-2.922-0.469-5.922-0.484-8.844 0.031-0.969 0.156-2.063 0.328-2.672 1.203 1 0.938 2.422 1.078 3.703 1.234 2.312 0.297 4.688 0.313 7 0.016 1.297-0.156 2.734-0.281 3.703-1.25zM19.094 20.797c-0.438 1.531-0.187 3.594-1.813 4.484-2.797 1.547-6.188 1.719-9.266 1.172-1.625-0.297-3.531-0.812-4.422-2.344-0.391-1.5-0.641-3.031-0.891-4.562l0.094-0.25 0.281-0.141c4.656 3.078 11.172 3.078 15.844 0 0.734 0.219 0.187 1.109 0.172 1.641zM21.922 5.781c-0.531 3.422-1.141 6.828-1.734 10.234-0.172 1-1.141 1.563-1.953 1.984-2.922 1.469-6.328 1.719-9.531 1.375-2.172-0.234-4.391-0.812-6.156-2.172-0.828-0.641-0.828-1.734-0.984-2.656-0.547-3.203-1.172-6.406-1.563-9.641 0.187-1.406 1.766-2.016 2.938-2.453 1.563-0.578 3.234-0.844 4.891-1 3.531-0.344 7.141-0.219 10.563 0.781 1.219 0.359 2.531 0.859 3.359 1.906 0.375 0.484 0.25 1.094 0.172 1.641z"></path>
    </symbol>
    <symbol id="bitbucket-square" viewBox="0 0 24 28">
      <title>bitbucket-square</title>
      <path d="M13.25 13.594c0-0.891-1.094-1.5-1.844-1.047-0.891 0.422-0.891 1.859 0.016 2.234 0.812 0.484 1.953-0.25 1.828-1.188zM14.5 13.344c0.172 1.375-0.906 2.719-2.281 2.844s-2.672-1-2.734-2.391c-0.047-1.031 0.594-2.031 1.531-2.453 1.469-0.656 3.281 0.406 3.484 2zM17.187 7.234c-0.688 0.703-1.734 0.797-2.656 0.906-1.672 0.219-3.375 0.203-5.063 0-0.922-0.125-1.937-0.234-2.656-0.906 0.438-0.625 1.219-0.75 1.922-0.859 2.109-0.375 4.266-0.359 6.375-0.016 0.75 0.109 1.594 0.234 2.078 0.875zM17.844 18.891c0-0.375 0.391-1.016-0.141-1.172-3.359 2.219-8.047 2.219-11.422 0l-0.187 0.094-0.078 0.187c0.187 1.094 0.359 2.203 0.641 3.281 0.641 1.109 2.016 1.484 3.187 1.687 2.219 0.406 4.672 0.281 6.687-0.828 1.172-0.656 0.984-2.141 1.313-3.25zM19.875 8.062c0.063-0.375 0.141-0.828-0.125-1.172-0.594-0.75-1.531-1.109-2.422-1.375-2.469-0.719-5.078-0.812-7.609-0.562-1.203 0.109-2.406 0.313-3.531 0.719-0.844 0.328-1.984 0.766-2.125 1.766 0.281 2.344 0.734 4.641 1.125 6.969 0.125 0.656 0.125 1.437 0.719 1.906 1.266 0.969 2.875 1.391 4.438 1.563 2.312 0.25 4.766 0.078 6.875-0.984 0.594-0.313 1.281-0.719 1.406-1.437 0.438-2.453 0.859-4.906 1.25-7.391zM24 6.5v15c0 2.484-2.016 4.5-4.5 4.5h-15c-2.484 0-4.5-2.016-4.5-4.5v-15c0-2.484 2.016-4.5 4.5-4.5h15c2.484 0 4.5 2.016 4.5 4.5z"></path>
    </symbol>
    <symbol id="soundcloud" viewBox="0 0 36 28">
      <title>soundcloud</title>
      <path d="M12.25 21.438l0.25-3.766-0.25-8.172c-0.016-0.203-0.172-0.375-0.375-0.375-0.187 0-0.359 0.172-0.359 0.375l-0.219 8.172 0.219 3.766c0.016 0.203 0.172 0.359 0.359 0.359 0.203 0 0.359-0.156 0.375-0.359zM16.875 20.984l0.172-3.297-0.187-9.156c0-0.156-0.078-0.297-0.203-0.375-0.078-0.047-0.156-0.078-0.25-0.078s-0.172 0.031-0.25 0.078c-0.125 0.078-0.203 0.219-0.203 0.375l-0.016 0.094-0.156 9.047s0 0.016 0.172 3.687v0.016c0 0.094 0.031 0.187 0.094 0.266 0.094 0.109 0.219 0.172 0.359 0.172 0.125 0 0.234-0.063 0.313-0.141 0.094-0.078 0.141-0.187 0.141-0.313zM0.547 15.672l0.313 2-0.313 1.969c-0.016 0.078-0.063 0.141-0.141 0.141s-0.125-0.063-0.141-0.141l-0.266-1.969 0.266-2c0.016-0.078 0.063-0.141 0.141-0.141s0.125 0.063 0.141 0.141zM1.891 14.438l0.406 3.234-0.406 3.172c-0.016 0.078-0.078 0.141-0.156 0.141s-0.141-0.063-0.141-0.156l-0.359-3.156 0.359-3.234c0-0.078 0.063-0.141 0.141-0.141s0.141 0.063 0.156 0.141zM6.266 21.516v0 0zM3.328 13.844l0.391 3.828-0.391 3.703c0 0.094-0.078 0.172-0.172 0.172s-0.172-0.078-0.187-0.172l-0.328-3.703 0.328-3.828c0.016-0.109 0.094-0.187 0.187-0.187s0.172 0.078 0.172 0.187zM4.797 13.734l0.359 3.938-0.359 3.813c-0.016 0.125-0.109 0.203-0.219 0.203s-0.203-0.078-0.203-0.203l-0.328-3.813 0.328-3.938c0-0.125 0.094-0.203 0.203-0.203s0.203 0.078 0.219 0.203zM6.266 14.016l0.328 3.656-0.328 3.844c-0.016 0.141-0.125 0.25-0.25 0.25s-0.234-0.109-0.234-0.25l-0.313-3.844 0.313-3.656c0-0.125 0.109-0.234 0.234-0.234s0.234 0.109 0.25 0.234zM12.25 21.438v0 0zM7.734 11.734l0.328 5.938-0.328 3.844c0 0.156-0.125 0.281-0.266 0.281-0.156 0-0.266-0.125-0.281-0.281l-0.281-3.844 0.281-5.938c0.016-0.156 0.125-0.281 0.281-0.281 0.141 0 0.266 0.125 0.266 0.281zM9.203 10.391l0.297 7.313-0.297 3.813c0 0.172-0.141 0.297-0.297 0.297-0.172 0-0.297-0.125-0.313-0.297l-0.25-3.813 0.25-7.313c0.016-0.172 0.141-0.297 0.313-0.297 0.156 0 0.297 0.125 0.297 0.297zM10.734 9.766l0.281 7.906-0.281 3.781c-0.016 0.187-0.156 0.328-0.344 0.328-0.172 0-0.313-0.141-0.328-0.328l-0.25-3.781 0.25-7.906c0-0.187 0.156-0.344 0.328-0.344 0.187 0 0.328 0.156 0.344 0.344zM16.859 21.359v0 0 0 0 0 0zM13.766 9.703l0.234 7.969-0.234 3.734c0 0.219-0.172 0.391-0.391 0.391s-0.375-0.172-0.391-0.391l-0.219-3.734 0.219-7.969c0-0.219 0.172-0.391 0.391-0.391s0.391 0.172 0.391 0.391zM15.313 10l0.219 7.688-0.219 3.687c0 0.234-0.187 0.422-0.422 0.422s-0.422-0.187-0.438-0.422l-0.187-3.687 0.187-7.688c0.016-0.25 0.203-0.438 0.438-0.438s0.406 0.187 0.422 0.438zM18.625 17.687l-0.219 3.609c0 0.266-0.219 0.484-0.484 0.484s-0.484-0.219-0.5-0.484l-0.094-1.781-0.094-1.828 0.187-9.938v-0.047c0.016-0.141 0.078-0.281 0.187-0.375 0.078-0.063 0.187-0.109 0.313-0.109 0.078 0 0.172 0.031 0.234 0.078 0.141 0.078 0.234 0.234 0.25 0.406zM36 17.391c0 2.438-1.984 4.406-4.422 4.406h-12.281c-0.266-0.031-0.484-0.234-0.484-0.516v-14.047c0-0.266 0.094-0.391 0.438-0.516 0.859-0.344 1.828-0.531 2.828-0.531 4.078 0 7.422 3.125 7.781 7.109 0.531-0.219 1.109-0.344 1.719-0.344 2.438 0 4.422 1.984 4.422 4.438z"></path>
    </symbol>
    <symbol id="codepen" viewBox="0 0 28 28">
      <title>codepen</title>
      <path d="M3.375 18.266l9.422 6.281v-5.609l-5.219-3.484zM2.406 16.016l3.016-2.016-3.016-2.016v4.031zM15.203 24.547l9.422-6.281-4.203-2.812-5.219 3.484v5.609zM14 16.844l4.25-2.844-4.25-2.844-4.25 2.844zM7.578 12.547l5.219-3.484v-5.609l-9.422 6.281zM22.578 14l3.016 2.016v-4.031zM20.422 12.547l4.203-2.812-9.422-6.281v5.609zM28 9.734v8.531c0 0.391-0.203 0.781-0.531 1l-12.797 8.531c-0.203 0.125-0.438 0.203-0.672 0.203s-0.469-0.078-0.672-0.203l-12.797-8.531c-0.328-0.219-0.531-0.609-0.531-1v-8.531c0-0.391 0.203-0.781 0.531-1l12.797-8.531c0.203-0.125 0.438-0.203 0.672-0.203s0.469 0.078 0.672 0.203l12.797 8.531c0.328 0.219 0.531 0.609 0.531 1z"></path>
    </symbol>
    <symbol id="jsfiddle" viewBox="0 0 32 28">
      <title>jsfiddle</title>
      <path d="M28.125 12.063c2.266 0.938 3.875 3.156 3.875 5.734 0 3.422-2.828 6.203-6.297 6.203-0.125 0-0.234-0.016-0.344-0.016h-19.016c-3.5-0.203-6.344-2.875-6.344-6.344 0-2.328 1.266-4.359 3.156-5.469-0.125-0.406-0.187-0.828-0.187-1.281 0-2.391 1.953-4.328 4.391-4.328 1 0 1.937 0.344 2.688 0.906 1.531-3.156 4.781-5.344 8.578-5.344 5.266 0 9.516 4.203 9.516 9.375 0 0.187-0.016 0.375-0.016 0.562zM7.313 16.219c0 2.641 2.078 4.125 4.562 4.125 1.531 0 2.641-0.484 3.75-1.547-0.453-0.562-0.953-1.109-1.422-1.672-0.641 0.625-1.344 1.016-2.25 1.016-1.109 0-2.063-0.734-2.063-1.891 0-1.141 0.953-1.891 2.031-1.891 3.437 0 4.172 6 9.172 6 2.438 0 4.5-1.531 4.5-4.094 0-2.594-2.078-4.109-4.547-4.109-1.531 0-2.672 0.438-3.766 1.516 0.5 0.547 0.969 1.125 1.453 1.687 0.625-0.609 1.328-1 2.219-1 1.031 0 2.063 0.734 2.063 1.828 0 1.203-0.875 1.969-2.047 1.969-3.328 0-4.219-6-9.094-6-2.422 0-4.562 1.484-4.562 4.062z"></path>
    </symbol>
    <symbol id="wordpress" viewBox="0 0 28 28">
      <title>wordpress</title>
      <path d="M1.984 14c0-1.734 0.375-3.391 1.047-4.891l5.734 15.703c-4.016-1.953-6.781-6.062-6.781-10.813zM22.109 13.391c0 1.031-0.422 2.219-0.922 3.891l-1.188 4-4.344-12.906s0.719-0.047 1.375-0.125c0.641-0.078 0.562-1.031-0.078-0.984-1.953 0.141-3.203 0.156-3.203 0.156s-1.172-0.016-3.156-0.156c-0.656-0.047-0.734 0.938-0.078 0.984 0.609 0.063 1.25 0.125 1.25 0.125l1.875 5.125-2.625 7.875-4.375-13s0.719-0.047 1.375-0.125c0.641-0.078 0.562-1.031-0.078-0.984-1.937 0.141-3.203 0.156-3.203 0.156-0.219 0-0.484-0.016-0.766-0.016 2.141-3.266 5.828-5.422 10.031-5.422 3.125 0 5.969 1.203 8.109 3.156h-0.156c-1.172 0-2.016 1.016-2.016 2.125 0 0.984 0.578 1.813 1.188 2.812 0.469 0.797 0.984 1.828 0.984 3.313zM14.203 15.047l3.703 10.109c0.016 0.063 0.047 0.125 0.078 0.172-1.25 0.438-2.578 0.688-3.984 0.688-1.172 0-2.312-0.172-3.391-0.5zM24.531 8.234c0.938 1.719 1.484 3.672 1.484 5.766 0 4.438-2.406 8.297-5.984 10.375l3.672-10.594c0.609-1.75 0.922-3.094 0.922-4.312 0-0.438-0.031-0.844-0.094-1.234zM14 0c7.719 0 14 6.281 14 14s-6.281 14-14 14-14-6.281-14-14 6.281-14 14-14zM14 27.359c7.359 0 13.359-6 13.359-13.359s-6-13.359-13.359-13.359-13.359 6-13.359 13.359 6 13.359 13.359 13.359z"></path>
    </symbol>
    <symbol id="apple" viewBox="0 0 22 28">
      <title>apple</title>
      <path d="M21.766 18.984c-0.391 1.234-1.016 2.547-1.922 3.906-1.344 2.047-2.688 3.063-4.016 3.063-0.531 0-1.25-0.172-2.188-0.5-0.922-0.344-1.719-0.5-2.359-0.5-0.625 0-1.375 0.172-2.219 0.516-0.859 0.359-1.547 0.531-2.063 0.531-1.609 0-3.156-1.359-4.703-4.047-1.516-2.688-2.297-5.297-2.297-7.859 0-2.391 0.594-4.328 1.766-5.844 1.172-1.5 2.641-2.25 4.438-2.25 0.766 0 1.672 0.156 2.766 0.469 1.078 0.313 1.797 0.469 2.156 0.469 0.453 0 1.203-0.172 2.234-0.531 1.031-0.344 1.937-0.531 2.703-0.531 1.25 0 2.359 0.344 3.328 1.016 0.547 0.375 1.094 0.906 1.625 1.563-0.812 0.688-1.406 1.297-1.781 1.844-0.672 0.969-1.016 2.047-1.016 3.234 0 1.281 0.359 2.453 1.078 3.484s1.547 1.687 2.469 1.969zM15.891 0.656c0 0.641-0.156 1.359-0.453 2.125-0.313 0.781-0.797 1.5-1.453 2.156-0.562 0.562-1.125 0.938-1.687 1.125-0.359 0.109-0.891 0.203-1.625 0.266 0.031-1.547 0.438-2.891 1.219-4.016s2.094-1.891 3.906-2.312c0.031 0.141 0.063 0.25 0.078 0.344 0 0.109 0.016 0.203 0.016 0.313z"></path>
    </symbol>
    <symbol id="windows" viewBox="0 0 26 28">
      <title>windows</title>
      <path d="M10.656 15.719v10.172l-10.656-1.469v-8.703h10.656zM10.656 4.109v10.297h-10.656v-8.828zM26 15.719v12.281l-14.172-1.953v-10.328h14.172zM26 2v12.406h-14.172v-10.453z"></path>
    </symbol>
    <symbol id="android" viewBox="0 0 22 28">
      <title>android</title>
      <path d="M7.703 7.547c0.344 0 0.609-0.281 0.609-0.609s-0.266-0.609-0.609-0.609c-0.328 0-0.594 0.281-0.594 0.609s0.266 0.609 0.594 0.609zM14.297 7.547c0.328 0 0.594-0.281 0.594-0.609s-0.266-0.609-0.594-0.609c-0.344 0-0.609 0.281-0.609 0.609s0.266 0.609 0.609 0.609zM1.609 10.422c0.875 0 1.594 0.719 1.594 1.594v6.719c0 0.891-0.703 1.609-1.594 1.609s-1.609-0.719-1.609-1.609v-6.719c0-0.875 0.719-1.594 1.609-1.594zM18.172 10.719v10.406c0 0.953-0.766 1.719-1.703 1.719h-1.172v3.547c0 0.891-0.719 1.609-1.609 1.609s-1.609-0.719-1.609-1.609v-3.547h-2.156v3.547c0 0.891-0.719 1.609-1.609 1.609-0.875 0-1.594-0.719-1.594-1.609l-0.016-3.547h-1.156c-0.953 0-1.719-0.766-1.719-1.719v-10.406h14.344zM14.547 4.391c2.188 1.125 3.672 3.281 3.672 5.766h-14.453c0-2.484 1.484-4.641 3.687-5.766l-1.109-2.047c-0.063-0.109-0.031-0.25 0.078-0.313 0.109-0.047 0.25-0.016 0.313 0.094l1.125 2.063c0.953-0.422 2.016-0.656 3.141-0.656s2.188 0.234 3.141 0.656l1.125-2.063c0.063-0.109 0.203-0.141 0.313-0.094 0.109 0.063 0.141 0.203 0.078 0.313zM22 12.016v6.719c0 0.891-0.719 1.609-1.609 1.609-0.875 0-1.594-0.719-1.594-1.609v-6.719c0-0.891 0.719-1.594 1.594-1.594 0.891 0 1.609 0.703 1.609 1.594z"></path>
    </symbol>
    <symbol id="renren" viewBox="0 0 24 28">
      <title>renren</title>
      <path d="M17.703 24.531c-1.703 0.938-3.656 1.469-5.75 1.469-2.078 0-4.031-0.531-5.734-1.469 2.766-1.75 5-4.391 5.734-7.484 0.75 3.094 2.984 5.734 5.75 7.484zM9.969 2.219v7.578c0 5.344-2.953 9.938-7.141 11.969-1.766-2.094-2.828-4.781-2.828-7.734 0-5.938 4.312-10.859 9.969-11.813zM24 14.031c0 2.953-1.062 5.641-2.828 7.734-4.188-2.031-7.141-6.625-7.141-11.969v-7.578c5.656 0.953 9.969 5.875 9.969 11.813z"></path>
    </symbol>
    <symbol id="tencent-weibo" viewBox="0 0 20 28">
      <title>tencent-weibo</title>
      <path d="M13.156 8.937c0 1.656-1.359 3.016-3.016 3.016-0.641 0-1.234-0.203-1.734-0.547-0.562 0.609-1.188 1.375-1.797 2.281-2.547 3.828-3.625 8.344-3.156 13.422 0.031 0.453-0.297 0.844-0.734 0.891h-0.078c-0.406 0-0.766-0.313-0.812-0.734-0.609-6.844 1.563-11.688 3.484-14.547 0.703-1.047 1.406-1.891 2.063-2.578-0.172-0.375-0.25-0.781-0.25-1.203 0-1.672 1.344-3.016 3.016-3.016 1.656 0 3.016 1.344 3.016 3.016zM19.109 9.109c0 5.016-4.078 9.094-9.109 9.094-0.688 0-1.375-0.078-2.047-0.219-0.438-0.109-0.703-0.547-0.609-0.984 0.109-0.422 0.531-0.703 0.969-0.609 0.547 0.141 1.125 0.203 1.687 0.203 4.125 0 7.484-3.359 7.484-7.484s-3.359-7.484-7.484-7.484-7.484 3.359-7.484 7.484c0 1.203 0.281 2.344 0.812 3.406 0.203 0.406 0.047 0.891-0.344 1.094-0.406 0.203-0.891 0.047-1.094-0.359-0.656-1.266-1-2.703-1-4.141 0-5.031 4.094-9.109 9.109-9.109 5.031 0 9.109 4.078 9.109 9.109z"></path>
    </symbol>
    <symbol id="wikipedia-w" viewBox="0 0 36 28">
      <title>wikipedia-w</title>
      <path d="M23.344 25.609l-4.609-10.859c-1.828 3.578-3.844 7.313-5.578 10.859-0.016 0.016-0.844 0-0.844-0.016-2.641-6.172-5.406-12.297-8.047-18.484-0.641-1.5-2.781-3.938-4.25-3.922 0-0.172-0.016-0.562-0.016-0.797h9.109v0.781c-1.078 0.063-2.969 0.75-2.438 1.922 1.234 2.797 5.828 13.516 7.063 16.234 0.844-1.672 3.25-6.141 4.234-8.031-0.781-1.594-3.297-7.531-4.094-9-0.547-1-2.031-1.094-3.141-1.109v-0.781l8.016 0.016v0.734c-1.094 0.031-2.141 0.438-1.656 1.469 1.062 2.25 1.719 3.828 2.703 5.891 0.313-0.609 1.953-3.906 2.703-5.672 0.5-1.156-0.219-1.609-2.172-1.656 0.016-0.203 0-0.578 0.016-0.766 2.5-0.016 6.25-0.016 6.922-0.031v0.766c-1.266 0.047-2.578 0.719-3.266 1.781l-3.328 6.906c0.359 0.906 3.563 8.031 3.891 8.813l6.891-15.891c-0.484-1.297-2.047-1.578-2.656-1.594v-0.781l7.187 0.063 0.016 0.031-0.016 0.688c-1.578 0.047-2.531 0.891-3.141 2.266-1.406 3.25-5.812 13.5-8.734 20.172h-0.766z"></path>
    </symbol>
    <symbol id="git" viewBox="0 0 28 28">
      <title>git</title>
      <path d="M9.297 23.656c0-1.375-1.516-1.563-2.578-1.563-1.109 0-2.469 0.234-2.469 1.625 0 1.406 1.609 1.578 2.688 1.578 1.141 0 2.359-0.281 2.359-1.641zM8.375 11.859c0-1.172-0.562-2.234-1.859-2.234-1.437 0-1.937 0.953-1.937 2.266 0 1.297 0.562 2.109 1.937 2.109 1.359 0 1.859-0.875 1.859-2.141zM12.578 6.797v3.156c-0.406 0.141-0.812 0.25-1.234 0.344 0.156 0.422 0.25 0.859 0.25 1.313 0 2.641-1.625 4.656-4.219 5.141-0.781 0.156-1.234 0.484-1.234 1.328 0 2.391 6.312 0.766 6.312 5.172 0 3.578-2.422 4.75-5.672 4.75-2.672 0-5.719-0.891-5.719-4.109 0-1.875 1.141-2.953 2.844-3.516v-0.063c-0.719-0.438-1.047-1.125-1.047-1.969 0-0.797 0.172-1.781 0.984-2.141v-0.063c-1.578-0.531-2.609-2.703-2.609-4.281 0-2.922 2.266-5.063 5.156-5.063 0.969 0 1.937 0.25 2.781 0.734 1.172 0 2.328-0.313 3.406-0.734zM17.547 20.563h-3.469c0.063-0.703 0.063-1.391 0.063-2.094v-9.516c0-0.672 0.016-1.344-0.063-2h3.469c-0.078 0.641-0.063 1.297-0.063 1.937v9.578c0 0.703 0 1.391 0.063 2.094zM26.938 17.094v3.063c-0.828 0.453-1.781 0.609-2.719 0.609-3.344 0-3.734-2.641-3.734-5.359v-5.484h0.031v-0.063c-0.203 0-0.391-0.031-0.578-0.031-0.313 0-0.625 0.047-0.922 0.094v-2.969h1.5v-1.188c0-0.469-0.016-0.938-0.094-1.391h3.547c-0.125 0.859-0.094 1.719-0.094 2.578h2.672v2.969c-0.453 0-0.906-0.063-1.344-0.063h-1.328v5.703c0 0.922 0.203 2.047 1.359 2.047 0.609 0 1.203-0.172 1.703-0.516zM17.938 2.297c0 1.172-0.906 2.266-2.109 2.266-1.234 0-2.156-1.078-2.156-2.266 0-1.203 0.906-2.297 2.156-2.297 1.234 0 2.109 1.125 2.109 2.297z"></path>
    </symbol>
    <symbol id="git-square" viewBox="0 0 24 28">
      <title>git-square</title>
      <path d="M9.094 20.438c0 0.844-0.766 1.031-1.453 1.031-0.672 0-1.672-0.109-1.672-0.984 0-0.859 0.844-1 1.531-1 0.656 0 1.594 0.109 1.594 0.953zM8.531 13.156c0 0.781-0.313 1.328-1.156 1.328-0.859 0-1.203-0.5-1.203-1.313s0.313-1.406 1.203-1.406c0.797 0 1.156 0.656 1.156 1.391zM11.125 11.984v-1.953c-0.672 0.25-1.391 0.453-2.109 0.453-0.516-0.297-1.109-0.453-1.719-0.453-1.781 0-3.187 1.313-3.187 3.125 0 0.969 0.641 2.312 1.609 2.641v0.047c-0.5 0.219-0.594 0.828-0.594 1.328 0 0.516 0.187 0.938 0.641 1.203v0.047c-1.062 0.344-1.766 1.016-1.766 2.172 0 1.984 1.891 2.547 3.547 2.547 2 0 3.5-0.734 3.5-2.938 0-1.563-1.422-2.031-2.719-2.266-0.438-0.078-1.188-0.391-1.188-0.938 0-0.516 0.281-0.734 0.766-0.812 1.594-0.313 2.609-1.547 2.609-3.187 0-0.281-0.063-0.547-0.156-0.812 0.25-0.063 0.516-0.125 0.766-0.203zM12.047 18.531h2.141c-0.031-0.422-0.031-0.859-0.031-1.281v-6.047c0-0.359 0-0.719 0.031-1.078h-2.141c0.047 0.359 0.047 0.75 0.047 1.109v6.125c0 0.391 0 0.781-0.047 1.172zM20 18.281v-1.891c-0.313 0.219-0.688 0.328-1.062 0.328-0.703 0-0.828-0.703-0.828-1.281v-3.516h0.812c0.281 0 0.547 0.031 0.828 0.031v-1.828h-1.641c0-0.531-0.031-1.062 0.047-1.594h-2.188c0.047 0.281 0.063 0.562 0.063 0.859v0.734h-0.938v1.828c0.187-0.016 0.375-0.047 0.578-0.047 0.109 0 0.234 0.016 0.359 0.016v0.031h-0.031v3.391c0 1.687 0.25 3.313 2.312 3.313 0.578 0 1.172-0.094 1.687-0.375zM14.438 7.25c0-0.734-0.547-1.422-1.313-1.422s-1.328 0.672-1.328 1.422c0 0.734 0.578 1.391 1.328 1.391s1.313-0.672 1.313-1.391zM24 6.5v15c0 2.484-2.016 4.5-4.5 4.5h-15c-2.484 0-4.5-2.016-4.5-4.5v-15c0-2.484 2.016-4.5 4.5-4.5h15c2.484 0 4.5 2.016 4.5 4.5z"></path>
    </symbol>
    <symbol id="drupal" viewBox="0 0 24 28">
      <title>drupal</title>
      <path d="M18.234 24.781c-0.031-0.109-0.125-0.266-0.375-0.078-0.531 0.391-1.719 0.875-3.406 0.875s-2.484-0.359-3.016-0.766c-0.078-0.063-0.047-0.063-0.203-0.063-0.172 0-0.266 0.078-0.406 0.187-0.125 0.109-0.187 0.375 0 0.562 1.156 1.062 3.094 0.969 4.516 0.844 1.437-0.141 2.656-0.984 2.781-1.109 0.187-0.187 0.141-0.344 0.109-0.453zM17.625 22.984c-0.109-0.266-0.297-0.734-0.609-0.953-0.313-0.203-0.766-0.234-1.188-0.234s-0.656-0.031-1.109 0.156-0.922 0.609-1.219 0.875-0.344 0.469-0.187 0.688c0.156 0.203 0.328 0.078 0.766-0.297 0.453-0.359 0.75-0.688 1.672-0.688s1.078 0.344 1.266 0.688 0.203 0.391 0.391 0.297c0.219-0.109 0.328-0.266 0.219-0.531zM23.172 18.594c0-0.812-0.359-2.188-1.687-2.188-1.25 0-3.781 2.594-5.109 2.609-1.547 0.031-3.687-3.063-6.781-3.031-2.438 0.016-4.359 1.953-4.391 4.016-0.016 1.156 0.359 2.016 1.156 2.562 0.531 0.359 1.016 0.578 2.594 0.578 2.625 0 5.953-3.25 7.484-3.203 1.219 0.047 3.109 3.031 4.062 3.094 0.75 0.063 1.141-0.281 1.781-1.203 0.625-0.938 0.891-2.406 0.891-3.234zM24 16.094c0 7-5.531 11.625-11.891 11.625-6.375 0-12.109-5.016-12.109-11.844 0-6.813 5.313-9.969 6.297-10.484 1.172-0.625 2.016-0.953 3.344-2.016 0.656-0.516 1.203-1.266 1.375-3.094 0.953 1.141 2.094 2.469 2.906 3.016 1.328 0.875 2.656 1.219 4.047 2.094 0.844 0.516 6.031 3.687 6.031 10.703z"></path>
    </symbol>
    <symbol id="joomla" viewBox="0 0 24 28">
      <title>joomla</title>
      <path d="M16.719 16.766l-2.5 2.5-2.359 2.375-0.469 0.469c-1.375 1.359-3.297 1.828-5.047 1.391-0.328 1.437-1.609 2.5-3.141 2.5-1.766 0-3.203-1.437-3.203-3.219 0-1.516 1.047-2.797 2.469-3.125-0.453-1.766 0.016-3.703 1.391-5.078l0.187-0.187 2.359 2.375-0.172 0.172c-0.781 0.766-0.766 2.016 0 2.797 0.766 0.766 2.016 0.766 2.781 0l0.469-0.469 2.359-2.375 2.516-2.5zM11.391 6.109l0.187 0.187-2.375 2.375-0.187-0.187c-0.766-0.766-2.016-0.766-2.781 0s-0.766 2.031 0 2.797l5.328 5.328-2.359 2.375-2.516-2.5-2.359-2.375-0.469-0.469c-1.437-1.422-1.875-3.469-1.328-5.297-1.437-0.313-2.5-1.594-2.5-3.125 0-1.781 1.437-3.219 3.203-3.219 1.609 0 2.922 1.172 3.172 2.688 1.734-0.406 3.625 0.078 4.984 1.422zM24 22.781c0 1.781-1.437 3.219-3.203 3.219-1.563 0-2.859-1.109-3.156-2.578v0c-1.813 0.562-3.891 0.125-5.328-1.313l-0.172-0.187 2.359-2.375 0.187 0.187c0.766 0.766 2.016 0.766 2.781 0s0.766-2.016 0-2.781l-5.344-5.344 2.375-2.375 4.875 4.875 0.453 0.469c1.359 1.359 1.844 3.281 1.406 5.031 1.563 0.219 2.766 1.547 2.766 3.172zM23.969 5.219c0 1.625-1.219 2.969-2.781 3.187 0.516 1.797 0.063 3.813-1.359 5.234l-0.187 0.187-2.359-2.375 0.187-0.187c0.766-0.766 0.766-2.016 0-2.781s-2.016-0.766-2.781 0l-5.344 5.344-2.375-2.375 2.516-2.5 2.375-2.375 0.453-0.469c1.422-1.422 3.453-1.875 5.266-1.344 0.219-1.563 1.563-2.766 3.187-2.766 1.766 0 3.203 1.437 3.203 3.219z"></path>
    </symbol>
    <symbol id="frown" viewBox="0 0 24 28">
      <title>frown</title>
      <path d="M17.719 19.203c0.172 0.531-0.125 1.078-0.641 1.25-0.531 0.172-1.094-0.125-1.266-0.656-0.516-1.672-2.063-2.797-3.813-2.797s-3.297 1.125-3.813 2.797c-0.172 0.531-0.734 0.828-1.25 0.656-0.531-0.172-0.828-0.719-0.656-1.25 0.781-2.516 3.078-4.203 5.719-4.203s4.937 1.687 5.719 4.203zM10 10c0 1.109-0.891 2-2 2s-2-0.891-2-2 0.891-2 2-2 2 0.891 2 2zM18 10c0 1.109-0.891 2-2 2s-2-0.891-2-2 0.891-2 2-2 2 0.891 2 2zM22 14c0-5.516-4.484-10-10-10s-10 4.484-10 10 4.484 10 10 10 10-4.484 10-10zM24 14c0 6.625-5.375 12-12 12s-12-5.375-12-12 5.375-12 12-12 12 5.375 12 12z"></path>
    </symbol>
    <symbol id="smile" viewBox="0 0 24 28">
      <title>smile</title>
      <path d="M17.719 16.797c-0.781 2.516-3.078 4.203-5.719 4.203s-4.937-1.687-5.719-4.203c-0.172-0.531 0.125-1.078 0.656-1.25 0.516-0.172 1.078 0.125 1.25 0.656 0.516 1.672 2.063 2.797 3.813 2.797s3.297-1.125 3.813-2.797c0.172-0.531 0.734-0.828 1.266-0.656 0.516 0.172 0.812 0.719 0.641 1.25zM10 10c0 1.109-0.891 2-2 2s-2-0.891-2-2 0.891-2 2-2 2 0.891 2 2zM18 10c0 1.109-0.891 2-2 2s-2-0.891-2-2 0.891-2 2-2 2 0.891 2 2zM22 14c0-5.516-4.484-10-10-10s-10 4.484-10 10 4.484 10 10 10 10-4.484 10-10zM24 14c0 6.625-5.375 12-12 12s-12-5.375-12-12 5.375-12 12-12 12 5.375 12 12z"></path>
    </symbol>
    <symbol id="meh" viewBox="0 0 24 28">
      <title>meh</title>
      <path d="M18 17c0 0.547-0.453 1-1 1h-10c-0.547 0-1-0.453-1-1s0.453-1 1-1h10c0.547 0 1 0.453 1 1zM10 10c0 1.109-0.891 2-2 2s-2-0.891-2-2 0.891-2 2-2 2 0.891 2 2zM18 10c0 1.109-0.891 2-2 2s-2-0.891-2-2 0.891-2 2-2 2 0.891 2 2zM22 14c0-5.516-4.484-10-10-10s-10 4.484-10 10 4.484 10 10 10 10-4.484 10-10zM24 14c0 6.625-5.375 12-12 12s-12-5.375-12-12 5.375-12 12-12 12 5.375 12 12z"></path>
    </symbol>
    <symbol id="qrcode" viewBox="0 0 22 28">
      <title>qrcode</title>
      <path d="M6 18v2h-2v-2h2zM6 6v2h-2v-2h2zM18 6v2h-2v-2h2zM2 21.984h6v-5.984h-6v5.984zM2 10h6v-6h-6v6zM14 10h6v-6h-6v6zM10 14v10h-10v-10h10zM18 22v2h-2v-2h2zM22 22v2h-2v-2h2zM22 14v6h-6v-2h-2v6h-2v-10h6v2h2v-2h2zM10 2v10h-10v-10h10zM22 2v10h-10v-10h10z"></path>
    </symbol>
    <symbol id="share-alt" viewBox="0 0 24 28">
      <title>share-alt</title>
      <path d="M19 16c2.766 0 5 2.234 5 5s-2.234 5-5 5-5-2.234-5-5c0-0.172 0.016-0.359 0.031-0.531l-5.625-2.812c-0.891 0.828-2.094 1.344-3.406 1.344-2.766 0-5-2.234-5-5s2.234-5 5-5c1.313 0 2.516 0.516 3.406 1.344l5.625-2.812c-0.016-0.172-0.031-0.359-0.031-0.531 0-2.766 2.234-5 5-5s5 2.234 5 5-2.234 5-5 5c-1.313 0-2.516-0.516-3.406-1.344l-5.625 2.812c0.016 0.172 0.031 0.359 0.031 0.531s-0.016 0.359-0.031 0.531l5.625 2.812c0.891-0.828 2.094-1.344 3.406-1.344z"></path>
    </symbol>
    <symbol id="share-alt-square" viewBox="0 0 24 28">
      <title>share-alt-square</title>
      <path d="M20 18.672c0-1.844-1.5-3.344-3.328-3.344-0.875 0-1.672 0.344-2.266 0.906l-3.766-1.875c0.016-0.125 0.031-0.234 0.031-0.359s-0.016-0.234-0.031-0.359l3.766-1.875c0.594 0.562 1.391 0.906 2.266 0.906 1.828 0 3.328-1.5 3.328-3.344 0-1.828-1.5-3.328-3.328-3.328-1.844 0-3.344 1.5-3.344 3.328 0 0.125 0.016 0.234 0.031 0.359l-3.766 1.875c-0.594-0.547-1.391-0.891-2.266-0.891-1.828 0-3.328 1.484-3.328 3.328s1.5 3.328 3.328 3.328c0.875 0 1.672-0.344 2.266-0.891l3.766 1.875c-0.016 0.125-0.031 0.234-0.031 0.359 0 1.828 1.5 3.328 3.344 3.328 1.828 0 3.328-1.5 3.328-3.328zM24 6.5v15c0 2.484-2.016 4.5-4.5 4.5h-15c-2.484 0-4.5-2.016-4.5-4.5v-15c0-2.484 2.016-4.5 4.5-4.5h15c2.484 0 4.5 2.016 4.5 4.5z"></path>
    </symbol>
    <symbol id="rss" viewBox="0 0 22 28">
      <title>rss</title>
      <path d="M6 21c0 1.656-1.344 3-3 3s-3-1.344-3-3 1.344-3 3-3 3 1.344 3 3zM14 22.922c0.016 0.281-0.078 0.547-0.266 0.75-0.187 0.219-0.453 0.328-0.734 0.328h-2.109c-0.516 0-0.938-0.391-0.984-0.906-0.453-4.766-4.234-8.547-9-9-0.516-0.047-0.906-0.469-0.906-0.984v-2.109c0-0.281 0.109-0.547 0.328-0.734 0.172-0.172 0.422-0.266 0.672-0.266h0.078c3.328 0.266 6.469 1.719 8.828 4.094 2.375 2.359 3.828 5.5 4.094 8.828zM22 22.953c0.016 0.266-0.078 0.531-0.281 0.734-0.187 0.203-0.438 0.313-0.719 0.313h-2.234c-0.531 0-0.969-0.406-1-0.938-0.516-9.078-7.75-16.312-16.828-16.844-0.531-0.031-0.938-0.469-0.938-0.984v-2.234c0-0.281 0.109-0.531 0.313-0.719 0.187-0.187 0.438-0.281 0.688-0.281h0.047c5.469 0.281 10.609 2.578 14.484 6.469 3.891 3.875 6.188 9.016 6.469 14.484z"></path>
    </symbol>
    <symbol id="rss-square" viewBox="0 0 24 28">
      <title>rss-square</title>
      <path d="M8 20c0-1.109-0.891-2-2-2s-2 0.891-2 2 0.891 2 2 2 2-0.891 2-2zM13.484 21.469c-0.266-4.844-4.109-8.687-8.953-8.953-0.141-0.016-0.281 0.047-0.375 0.141s-0.156 0.219-0.156 0.359v2c0 0.266 0.203 0.484 0.469 0.5 3.203 0.234 5.781 2.812 6.016 6.016 0.016 0.266 0.234 0.469 0.5 0.469h2c0.141 0 0.266-0.063 0.359-0.156s0.156-0.234 0.141-0.375zM19.484 21.484c-0.266-8.125-6.844-14.703-14.969-14.969-0.156-0.016-0.266 0.031-0.359 0.141-0.094 0.094-0.156 0.219-0.156 0.359v2c0 0.266 0.219 0.484 0.484 0.5 6.484 0.234 11.766 5.516 12 12 0.016 0.266 0.234 0.484 0.5 0.484h2c0.141 0 0.266-0.063 0.359-0.156 0.109-0.094 0.156-0.219 0.141-0.359zM24 6.5v15c0 2.484-2.016 4.5-4.5 4.5h-15c-2.484 0-4.5-2.016-4.5-4.5v-15c0-2.484 2.016-4.5 4.5-4.5h15c2.484 0 4.5 2.016 4.5 4.5z"></path>
    </symbol>
    <symbol id="avatar" viewBox="0 0 28 28">
      <title>avatar</title>
      <path d="M14 0c7.734 0 14 6.266 14 14 0 7.688-6.234 14-14 14-7.75 0-14-6.297-14-14 0-7.734 6.266-14 14-14zM23.672 21.109c1.453-2 2.328-4.453 2.328-7.109 0-6.609-5.391-12-12-12s-12 5.391-12 12c0 2.656 0.875 5.109 2.328 7.109 0.562-2.797 1.922-5.109 4.781-5.109 1.266 1.234 2.984 2 4.891 2s3.625-0.766 4.891-2c2.859 0 4.219 2.312 4.781 5.109zM20 11c0-3.313-2.688-6-6-6s-6 2.688-6 6 2.688 6 6 6 6-2.688 6-6z"></path>
    </symbol>
    <symbol id="safari" viewBox="0 0 28 28">
      <title>safari</title>
      <path d="M14.828 13.953c0 0.516-0.359 1-0.906 1-0.516 0-1-0.375-1-0.906 0-0.516 0.375-1 0.922-1 0.5 0 0.984 0.359 0.984 0.906zM15.062 14.859l5.469-9.078c-0.734 0.688-7.578 6.984-7.766 7.313l-5.453 9.063c0.719-0.672 7.578-7 7.75-7.297zM25.172 14c0 2.047-0.562 4.062-1.625 5.797-0.156-0.078-0.812-0.547-0.938-0.547-0.109 0-0.203 0.094-0.203 0.203 0 0.203 0.734 0.578 0.922 0.688-1.547 2.344-3.938 4.031-6.656 4.703l-0.25-1.047c-0.016-0.141-0.109-0.156-0.234-0.156-0.109 0-0.172 0.156-0.156 0.234l0.25 1.062c-0.75 0.156-1.516 0.234-2.281 0.234-2.047 0-4.062-0.578-5.812-1.641 0.094-0.156 0.688-1.016 0.688-1.141 0-0.109-0.094-0.203-0.203-0.203-0.219 0-0.688 0.938-0.828 1.125-2.359-1.563-4.062-3.984-4.719-6.75l1.078-0.234c0.125-0.031 0.156-0.125 0.156-0.234s-0.156-0.172-0.25-0.156l-1.062 0.234c-0.141-0.719-0.219-1.437-0.219-2.172 0-2.094 0.594-4.156 1.703-5.922 0.156 0.094 0.906 0.609 1.031 0.609 0.109 0 0.203-0.078 0.203-0.187 0-0.219-0.828-0.641-1.016-0.766 1.594-2.328 4.016-4 6.766-4.625l0.234 1.047c0.031 0.125 0.125 0.156 0.234 0.156s0.172-0.156 0.156-0.25l-0.234-1.031c0.688-0.125 1.391-0.203 2.094-0.203v0c2.094 0 4.141 0.594 5.922 1.703-0.109 0.156-0.609 0.891-0.609 1.016 0 0.109 0.078 0.203 0.187 0.203 0.219 0 0.641-0.812 0.75-1 2.312 1.563 3.969 3.953 4.609 6.672l-0.875 0.187c-0.141 0.031-0.156 0.125-0.156 0.25 0 0.109 0.156 0.172 0.234 0.156l0.891-0.203c0.141 0.719 0.219 1.453 0.219 2.187zM26.5 14c0-6.906-5.594-12.5-12.5-12.5s-12.5 5.594-12.5 12.5 5.594 12.5 12.5 12.5 12.5-5.594 12.5-12.5zM28 14c0 7.734-6.266 14-14 14s-14-6.266-14-14 6.266-14 14-14 14 6.266 14 14z"></path>
    </symbol>
    <symbol id="chrome" viewBox="0 0 30 28">
      <title>chrome</title>
      <path d="M13.953 0c2.391-0.016 4.828 0.594 7.047 1.875 2.453 1.422 4.312 3.469 5.5 5.812l-11.594-0.609c-3.281-0.187-6.406 1.656-7.484 4.75l-4.312-6.625c2.688-3.344 6.719-5.187 10.844-5.203zM2.281 6.328l5.266 10.359c1.484 2.922 4.625 4.703 7.875 4.094l-3.594 7.047c-6.703-1.031-11.828-6.828-11.828-13.828 0-2.828 0.844-5.469 2.281-7.672zM27.062 8.969c2.453 6.312 0 13.656-6.062 17.156-2.453 1.422-5.156 2-7.781 1.859l6.328-9.734c1.797-2.766 1.766-6.375-0.375-8.875zM14 9.281c2.609 0 4.719 2.109 4.719 4.719s-2.109 4.719-4.719 4.719-4.719-2.109-4.719-4.719 2.109-4.719 4.719-4.719z"></path>
    </symbol>
    <symbol id="firefox" viewBox="0 0 27 28">
      <title>firefox</title>
      <path d="M14.109 28c-6.031 0-10.828-3.531-13.031-8.578-2.469-5.609-0.5-14.594 3.891-18.562l-0.172 4.391c0.219-0.281 1.891-0.359 2.156 0 0.906-1.734 3.828-3.031 6.172-3.078-0.891 0.75-2.953 3.484-2.781 4.875 1.141 0.359 2.891 0.375 3.813 0.438 0.281 0.156 0.234 1.109-0.328 1.891 0 0-0.734 1.016-2.719 1.375l0.234 2.953-2.172-1.047c-0.703 1.781 0.984 3.359 2.734 3.063 1.937-0.328 2.625-1.594 3.984-1.516 1.344 0.078 1.875 0.828 1.703 1.531 0 0-0.219 0.844-1.672 0.703-1.234 1.953-2.875 2.812-5.531 2.578 4.031 3.344 9.469 0.313 10.844-2.422 1.375-2.719 0.172-6.766-1.203-7.906 1.625 0.703 2.75 1.422 3.344 3 0.313-3.5-1.297-7.469-4.172-9.797 5.406 1.578 8.703 5.766 8.797 12.453s-5.922 13.656-13.891 13.656z"></path>
    </symbol>
    <symbol id="opera" viewBox="0 0 28 28">
      <title>opera</title>
      <path d="M23.328 3.563c-1.641-1.094-3.563-1.719-5.609-1.719-3.328 0-6.266 1.703-8.328 4.266-1.5 1.875-2.547 4.531-2.625 7.562v0.656c0.078 3.031 1.125 5.688 2.625 7.562 2.063 2.562 5 4.266 8.328 4.266 2.047 0 3.969-0.625 5.609-1.719-2.469 2.219-5.75 3.563-9.328 3.563-0.219 0-0.453 0-0.672-0.016-7.422-0.344-13.328-6.469-13.328-13.984 0-7.734 6.266-14 14-14h0.047c3.563 0.016 6.813 1.359 9.281 3.563zM28 14c0 4.078-1.75 7.734-4.531 10.297-1.062 0.641-2.234 0.984-3.469 0.984-1.437 0-2.797-0.469-3.984-1.313 3.172-1.156 5.516-5.172 5.516-9.969 0-4.781-2.328-8.797-5.5-9.969 1.188-0.828 2.531-1.297 3.969-1.297 1.266 0 2.453 0.359 3.531 1.016 2.75 2.562 4.469 6.203 4.469 10.25z"></path>
    </symbol>
    <symbol id="internet-explorer" viewBox="0 0 28 28">
      <title>internet-explorer</title>
      <path d="M28 14.641c0 0.547-0.031 1.094-0.109 1.625h-17.984c0 3.109 2.734 5.359 5.734 5.359 2.031 0 3.984-1 5.031-2.766h6.609c-1.781 5.016-6.547 8.375-11.859 8.375-1.922 0-3.844-0.453-5.563-1.297-1.75 0.891-4.203 1.813-6.156 1.813-2.625 0-3.703-1.609-3.703-4.109 0-1.453 0.313-2.906 0.703-4.297 0.25-0.906 1.25-2.75 1.703-3.578 1.922-3.484 4.453-6.828 7.422-9.469-2.391 1.031-4.984 3.625-6.672 5.531 1.313-5.719 6.406-9.766 12.266-9.766 0.234 0 0.469 0 0.703 0.016 1.937-0.891 4.641-1.828 6.766-1.828 2.531 0 4.703 0.969 4.703 3.828 0 1.5-0.578 3.125-1.172 4.469 1.031 1.859 1.578 3.969 1.578 6.094zM26.906 4.641c0-1.75-1.25-2.828-2.969-2.828-1.313 0-2.797 0.531-3.969 1.094 2.531 0.984 4.703 2.797 6.141 5.109 0.391-1.031 0.797-2.281 0.797-3.375zM2 23.969c0 1.813 1.078 2.797 2.859 2.797 1.391 0 2.938-0.625 4.156-1.297-2.547-1.5-4.516-3.891-5.484-6.687-0.719 1.5-1.531 3.5-1.531 5.187zM9.875 12.828h11.375c-0.109-3.016-2.766-5.187-5.688-5.187-2.938 0-5.578 2.172-5.688 5.187z"></path>
    </symbol>
    <symbol id="edge" viewBox="0 0 28 28">
      <title>edge</title>
      <path d="M1.078 12.422h0.016c0.812-6.469 5.234-12.437 13.141-12.422 4.797 0 8.75 2.25 11.062 6.391 1.188 2.141 1.625 4.422 1.625 6.906v2.938h-17.578c0.078 7.25 10.656 7 15.219 3.813v5.891c-2.672 1.609-8.703 3-13.406 1.203-3.984-1.531-6.766-5.672-6.813-9.703-0.063-5.203 2.578-8.656 6.813-10.625-0.891 1.125-1.578 2.344-1.937 4.453h9.922c0.578-5.922-5.609-5.922-5.609-5.922-5.844 0.203-10.063 3.609-12.453 7.078z"></path>
    </symbol>
  </defs>
</svg>