<svg xmlns="http://www.w3.org/2000/svg" aria-hidden="true"><defs><symbol id="alipay" viewBox="0 0 28 32"><path d="M23.609 2H4.391A4.387 4.387 0 0 0 0 6.391v19.218A4.387 4.387 0 0 0 4.391 30h19.218A4.399 4.399 0 0 0 28 25.65c-2.872-1.601-6.912-3.771-10.725-5.527-2.004 2.748-5.259 5.063-9.289 5.063-4.412 0-5.858-2.831-6.065-4.773-.248-2.438.93-5.094 6.22-5.094 2.211 0 4.959.641 7.946 1.56 1.033-1.881 1.653-3.771 1.653-3.771H6.603v-1.044h5.755v-1.953h-6.84V8.923h6.84V5.772h3.183v3.151h6.84v1.188H15.54v1.953h5.548s-.951 2.914-2.397 5.682c3.058 1.044 6.251 2.253 9.289 3.296V6.391A4.377 4.377 0 0 0 23.609 2zM2.955 20.184c.062 1.261.641 3.358 4.371 3.358 3.254 0 5.786-2.48 7.367-4.556-2.789-1.168-5.28-1.963-6.84-1.963-4.216 0-4.959 2.066-4.897 3.161z"/></symbol><symbol id="bilibili" viewBox="0 0 32 32"><path d="M29.936 28.617c-.248 0-.5.023-.745-.003-.901-.098-1.558.927-1.871 2.005-.281.973-1.349 1.47-2.312 1.368-1.11-.114-1.845-.748-2.129-1.754-.17-.607-.686-1.078-1.251-1.074-3.909.023-7.387.01-11.292 0-.451 0-.931.431-1.061.96-.281 1.136-1.247 1.858-2.319 1.878-1.107.02-2.07-.686-2.394-1.865-.137-.493-.366-1.551-.836-1.525-.607.033-1.221.016-1.829.007-.666-.013-.96-.281-.96-.911C.94 21.273.95 14.843.97 8.41c.003-.663.278-.888 1.045-.888 3.141-.003 6.28-.003 9.421-.003h.656c.02-.052.039-.108.059-.163L9.963 6.207c-1.208-.637-2.42-1.274-3.628-1.914-.49-.261-.692-.656-.415-1.146.281-.496.741-.526 1.225-.274 2.835 1.496 5.672 2.988 8.497 4.5.725.389 2.028.157 2.492-.5 1.443-2.038 2.887-4.072 4.333-6.11.052-.072.101-.147.154-.216.411-.552.878-.702 1.306-.376.493.379.408.826.091 1.274-.588.829-1.172 1.662-1.757 2.492-.81 1.153-1.623 2.305-2.521 3.586h10.199c.954 0 1.101.144 1.101 1.071.01 6.322.016 12.641.023 18.963-.01.901-.176 1.055-1.127 1.061zm-4.69 1.891c.5-.033.735-1.355.888-1.855h-1.887c.186.549.444 1.891.999 1.855zm-18.378 0c.552.033.813-1.303.976-1.852H5.986c.127.519.389 1.822.882 1.852zM29.155 9.396H2.802v17.882h26.353V9.396zM4.686 13.05c.003-.872.421-1.724 1.3-1.724 6.694 0 12.856-.049 19.551-.046.892 0 1.734.908 1.737 1.77.01 4.157-.007 7.357 0 11.514.003.888-.803 1.77-1.737 1.77-3.337.003-6.221 0-9.555 0-3.337 0-6.218.003-9.555 0-.97 0-1.737-.813-1.737-1.77 0-4.137-.01-7.377-.003-11.514zm20.985 11.387c0-3.932-.134-7.537-.134-11.387H6.424c0 3.909-.023 7.514-.023 11.387h19.27zm-13.826-9.095c.056-.026.121-.02.349-.052.134.131.467.31.503.532.039.261-.101.718-.304.82-1.238.627-2.508 1.192-3.781 1.747-.389.17-.813.042-.914-.372-.065-.271.052-.787.248-.885 1.28-.643 2.596-1.205 3.899-1.79zm.391 4.197c.242-.01.552.323.725.578.14.202.082.526.18.771.186.467.536.908 1.052.8.382-.082.728-.46 1.016-.777.14-.157.118-.464.15-.705.065-.454.333-.735.784-.725.411.01.679.258.732.705.033.281.042.63.209.816.268.3.656.66 1.006.673.313.01.696-.369.944-.663.163-.196.157-.539.206-.82.085-.447.343-.722.81-.686.464.036.705.333.686.797-.046 1.179-.513 2.136-1.616 2.658-1.029.49-1.989.281-2.828-.474-.046-.039-.101-.069-.157-.108-.255.176-.493.385-.764.526-.888.464-1.78.425-2.599-.144-.905-.63-1.309-1.548-1.228-2.616.013-.238.444-.601.696-.607zm6.564-4.252c.219-.382.607-.487.97-.281 1.44.82 2.861 1.669 4.275 2.528.17.101.248.349.307.438.016.699-.562 1.081-1.094.78a157.958 157.958 0 0 1-4.222-2.495c-.372-.225-.447-.598-.235-.97z"/></symbol><symbol id="bitcoin" viewBox="0 0 32 32"><path d="M31.5 16c0 8.56-6.94 15.5-15.5 15.5S.5 24.56.5 16 7.44.5 16 .5 31.5 7.44 31.5 16zm-8.853-2.208c.309-2.062-1.262-3.171-3.409-3.911l.697-2.794-1.701-.424-.678 2.72c-.447-.111-.906-.216-1.363-.321l.683-2.738-1.7-.424-.697 2.793c-.37-.084-.733-.168-1.086-.255l.002-.009-2.346-.586-.452 1.816s1.262.289 1.235.307c.689.172.813.628.793.989l-.793 3.183c.047.012.109.03.177.057l-.18-.045-1.112 4.459c-.084.209-.298.523-.779.404.017.025-1.236-.309-1.236-.309l-.844 1.947 2.213.552c.412.103.815.211 1.213.313l-.704 2.826 1.699.424.697-2.796c-.004.017.45.139.906.255l.449.097-.695 2.783 1.701.424.704-2.82c2.9.549 5.081.327 5.999-2.295.74-2.112-.037-3.33-1.563-4.124 1.111-.256 1.948-.987 2.172-2.497zm-3.886 5.449c-.526 2.112-4.082.97-5.235.684l.934-3.744c1.153.288 4.85.857 4.301 3.06zm.526-5.48c-.48 1.921-3.439.945-4.4.706l.847-3.395c.96.239 4.052.686 3.553 2.69z"/></symbol><symbol id="btc" viewBox="0 0 24 32"><path d="M19.388 15.165c1.733-.886 2.836-2.462 2.58-5.081-.335-3.584-3.279-4.786-7.178-5.121V0h-3.033v4.825c-.788 0-1.595.02-2.403.039V-.001H6.321v4.963c-1.115.034-2.414.017-6.086 0v3.23c2.395-.042 3.651-.196 3.939 1.339V23.12c-.183 1.218-1.158 1.043-3.328 1.004l-.61 3.604c5.53 0 6.086.02 6.086.02v4.25h3.033v-4.191c.827.02 1.635.02 2.403.02v4.172h3.033v-4.25c5.081-.276 8.478-1.556 8.931-6.342.354-3.84-1.457-5.554-4.333-6.243zM9.413 8.41c1.713 0 7.07-.532 7.07 3.033 0 3.407-5.357 3.013-7.07 3.013V8.41zm0 15.736v-6.657c2.048 0 8.32-.571 8.32 3.328 0 3.762-6.272 3.328-8.32 3.328z"/></symbol><symbol id="codepen" viewBox="0 0 32 32"><path d="M31.393 9.982L16.768.232c-.499-.307-1.032-.31-1.536 0L.607 9.982c-.375.25-.607.696-.607 1.143v9.75c0 .446.232.893.607 1.143l14.625 9.751c.499.307 1.032.31 1.536 0l14.625-9.751c.375-.25.607-.696.607-1.143v-9.75c0-.446-.232-.893-.607-1.143zM17.375 3.946l10.768 7.179-4.804 3.214-5.964-3.982V3.946zm-2.75 0v6.411l-5.964 3.982-4.804-3.214 10.768-7.179zM2.75 13.696L6.196 16 2.75 18.304v-4.607zm11.875 14.357L3.857 20.874l4.804-3.214 5.964 3.982v6.411zM16 19.249l-4.857-3.25L16 12.749l4.857 3.25L16 19.249zm1.375 8.804v-6.411l5.964-3.982 4.804 3.214-10.768 7.179zm11.875-9.75l-3.446-2.304 3.446-2.304v4.607z"/></symbol><symbol id="facebook" viewBox="0 0 28 32"><path d="M28 3.544V28.45c0 .856-.694 1.544-1.544 1.544h-7.137V19.157h3.637l.544-4.225h-4.188v-2.7c0-1.225.337-2.056 2.094-2.056h2.238V6.395c-.387-.05-1.712-.169-3.262-.169-3.225 0-5.438 1.969-5.438 5.588v3.119h-3.65v4.225h3.65v10.844h-13.4c-.85 0-1.544-.694-1.544-1.544V3.545c0-.85.694-1.544 1.544-1.544H26.45c.856 0 1.55.694 1.55 1.544z"/></symbol><symbol id="facebook-f" viewBox="0 0 17 32"><path d="M4.794 32V17.687H0v-5.688h4.794V7.518c0-4.869 2.975-7.519 7.319-7.519 2.081 0 3.869.156 4.387.225v5.088h-3.012c-2.363 0-2.819 1.125-2.819 2.769V12H16l-.731 5.688h-4.6v14.313z"/></symbol><symbol id="facebook-messenger" viewBox="0 0 28 32"><path d="M14 2C.994 2-4.844 17.375 5.287 25.038V30l4.731-2.625c8.887 2.488 17.837-3.744 17.837-12.419C27.861 7.8 21.655 2 13.999 2zm1.463 17.381l-3.588-3.725-6.9 3.819 7.569-8.031 3.587 3.725 6.9-3.819-7.569 8.031z"/></symbol><symbol id="facebook-square" viewBox="0 0 28 32"><path d="M28 5v22c0 1.656-1.344 3-3 3h-5.331V18.925h3.788l.544-4.225H19.67V12c0-1.225.337-2.056 2.094-2.056h2.238V6.169C23.615 6.119 22.29 6 20.74 6c-3.225 0-5.438 1.969-5.438 5.587v3.119h-3.8v4.225h3.806V30H3.002c-1.656 0-3-1.344-3-3V5c0-1.656 1.344-3 3-3h22c1.656 0 3 1.344 3 3z"/></symbol><symbol id="free-code-camp" viewBox="0 0 36 32"><path d="M4.331 9.031c-2.563 4.281-2.275 10.188.063 14.188C5.782 25.606 7.5 26.494 7.5 27.375c0 .425-.375.813-.8.813-1.219 0-6.2-4.719-6.2-12.363C.5 8.856 5.375 4.2 6.569 4.2c.375 0 .931.3.931.694 0 .794-1.769 1.787-3.169 4.138zm12.238 13.363c.281.113.769.325.769-.075 0-.169-.137-.181-.269-.225-.531-.212-.875-.481-1.194-.95-.512-.756-.631-1.512-.631-2.413 0-2.006 2.762-2.369 2.762-4.375 0-.769-.481-.994-.481-1.206 0-.137.044-.137.181-.137.5 0 1.194.831 1.406 1.238.137.287.15.375.15.694 0 .438-.044.887-.044 1.331 0 1.688 1.994 1.238 1.994.425 0-.375-.225-.725-.225-1.088 0-.044 0-.075.044-.075.212 0 .587.481.694.631.363.556.531 1.3.531 1.962 0 2.025-1.844 3.063-1.844 3.5 0 .063.181.481.756.119 1.856-.944 3.319-2.975 3.319-5.613 0-2.1-.544-3.606-2.006-5.162-.244-.256-1.025-1.056-1.406-1.056-.512 0 .45 1.162.45 1.95 0 .45-.3.769-.769.769-.725 0-.906-1.588-.994-2.081-.363-2.113-.8-3.638-2.9-4.631-.65-.313-2.281-.737-2.281-.138 0 .15.169.256.287.319.575.35 1.225 1.337 1.225 2.388 0 2.881-3.606 5.512-3.606 8.512-.012 2.519 1.756 4.538 4.081 5.387zM29.4 4.188c-.375 0-.9.406-.9.787 0 .544.756 1.225 1.1 1.588 5.1 5.319 4.913 13.394 1.1 18.188-.438.556-2.206 2.206-2.206 2.719 0 .319.512.712.825.712 1.587 0 6.175-5.05 6.175-11.606C35.5 9.12 30.738 4.189 29.4 4.189zm-2.644 20.193H10.437c-.588 0-.969.469-.969 1.025 0 .531.438.969.969.969h16.319c.587 0 .744-.469.744-1.025 0-.531-.219-.969-.744-.969z"/></symbol><symbol id="get-pocket" viewBox="0 0 28 32"><path d="M25.475 4H2.537C1.156 4-.001 5.156-.001 6.537v8.45A13.95 13.95 0 0 0 14.011 29c7.75 0 13.987-6.219 13.987-14.012v-8.45c0-1.4-1.106-2.537-2.525-2.537zM15.35 20.781c-.775.738-1.963.694-2.65 0-7.106-6.806-7.181-6.569-7.181-7.7 0-1.056.862-1.919 1.919-1.919 1.063 0 1.006.238 6.575 5.581 5.662-5.431 5.537-5.581 6.594-5.581s1.919.863 1.919 1.919c0 1.113-.181.981-7.175 7.7z"/></symbol><symbol id="github" viewBox="0 0 31 32"><path d="M10.369 24.837c0 .125-.144.225-.325.225-.206.019-.35-.081-.35-.225 0-.125.144-.225.325-.225.188-.019.35.081.35.225zm-1.944-.281c-.044.125.081.269.269.306.162.063.35 0 .387-.125s-.081-.269-.269-.325c-.162-.044-.344.019-.387.144zm2.763-.106c-.181.044-.306.163-.287.306.019.125.181.206.369.163.181-.044.306-.163.287-.288-.019-.119-.188-.2-.369-.181zM15.3.5C6.631.5 0 7.081 0 15.75c0 6.931 4.362 12.863 10.594 14.95.8.144 1.081-.35 1.081-.756 0-.387-.019-2.525-.019-3.837 0 0-4.375.938-5.294-1.863 0 0-.713-1.819-1.737-2.288 0 0-1.431-.981.1-.962 0 0 1.556.125 2.412 1.613 1.369 2.413 3.662 1.719 4.556 1.306.144-1 .55-1.694 1-2.106-3.494-.387-7.019-.894-7.019-6.906 0-1.719.475-2.581 1.475-3.681-.162-.406-.694-2.081.162-4.244 1.306-.406 4.313 1.688 4.313 1.688 1.25-.35 2.594-.531 3.925-.531s2.675.181 3.925.531c0 0 3.006-2.1 4.313-1.688.856 2.169.325 3.838.163 4.244 1 1.106 1.613 1.969 1.613 3.681 0 6.031-3.681 6.512-7.175 6.906.575.494 1.063 1.431 1.063 2.9 0 2.106-.019 4.712-.019 5.225 0 .406.288.9 1.081.756 6.25-2.075 10.488-8.006 10.488-14.938C31.001 7.081 23.97.5 15.301.5zM6.075 22.056c-.081.063-.063.206.044.325.1.1.244.144.325.063.081-.063.063-.206-.044-.325-.1-.1-.244-.144-.325-.063zM5.4 21.55c-.044.081.019.181.144.244.1.063.225.044.269-.044.044-.081-.019-.181-.144-.244-.125-.038-.225-.019-.269.044zm2.025 2.225c-.1.081-.063.269.081.387.144.144.325.163.406.063.081-.081.044-.269-.081-.387-.138-.144-.325-.163-.406-.063zm-.712-.919c-.1.063-.1.225 0 .369s.269.206.35.144c.1-.081.1-.244 0-.387-.088-.144-.25-.206-.35-.125z"/></symbol><symbol id="github-alt" viewBox="0 0 30 32"><path d="M11.631 20.544c0 1.306-.681 3.444-2.294 3.444s-2.294-2.137-2.294-3.444.681-3.444 2.294-3.444 2.294 2.137 2.294 3.444zM30 17.387c0 1.994-.2 4.106-1.094 5.938C26.537 28.112 20.025 28 15.362 28c-4.738 0-11.637.169-14.1-4.675C.35 21.512 0 19.381 0 17.387c0-2.619.869-5.094 2.594-7.1a9.786 9.786 0 0 1-.481-3.05c0-1.344.306-2.019.913-3.237 2.831 0 4.644.563 6.8 2.25a23.957 23.957 0 0 1 5.544-.625c1.688 0 3.387.181 5.025.575C22.52 4.531 24.333 4 27.133 4c.613 1.219.913 1.894.913 3.237a9.672 9.672 0 0 1-.481 3.013c1.719 2.025 2.438 4.519 2.438 7.137zm-4.019 3.157c0-2.744-1.669-5.162-4.594-5.162-1.181 0-2.313.213-3.5.375-.931.144-1.863.2-2.819.2-.95 0-1.881-.056-2.819-.2-1.169-.162-2.313-.375-3.5-.375-2.925 0-4.594 2.419-4.594 5.162 0 5.488 5.025 6.331 9.4 6.331h3.013c4.394 0 9.413-.837 9.413-6.331zM20.819 17.1c-1.613 0-2.294 2.137-2.294 3.444s.681 3.444 2.294 3.444 2.294-2.137 2.294-3.444-.681-3.444-2.294-3.444z"/></symbol><symbol id="github-square" viewBox="0 0 28 32"><path d="M25 2H3C1.344 2 0 3.344 0 5v22c0 1.656 1.344 3 3 3h22c1.656 0 3-1.344 3-3V5c0-1.656-1.344-3-3-3zm-7.669 23.981c-.525.094-.719-.231-.719-.5 0-.337.012-2.063.012-3.456 0-.975-.325-1.594-.706-1.919 2.313-.256 4.75-.575 4.75-4.569 0-1.137-.406-1.706-1.069-2.438.106-.269.462-1.375-.106-2.813-.869-.269-2.856 1.119-2.856 1.119-.825-.231-1.719-.35-2.6-.35s-1.775.119-2.6.35c0 0-1.988-1.387-2.856-1.119-.569 1.431-.219 2.537-.106 2.813-.662.731-.975 1.3-.975 2.438 0 3.975 2.331 4.313 4.644 4.569-.3.269-.569.731-.662 1.394-.594.269-2.112.731-3.019-.869-.569-.988-1.594-1.069-1.594-1.069-1.013-.012-.069.637-.069.637.675.313 1.15 1.512 1.15 1.512.606 1.856 3.506 1.231 3.506 1.231 0 .869.012 2.281.012 2.538 0 .269-.188.594-.719.5-4.125-1.381-7.013-5.306-7.013-9.894 0-5.738 4.388-10.094 10.125-10.094s10.387 4.356 10.387 10.094c.006 4.587-2.794 8.519-6.919 9.894zM11.2 22.163c-.119.025-.231-.025-.244-.106-.012-.094.069-.175.188-.2.119-.012.231.038.244.119.019.081-.063.163-.188.188zm-.594-.057c0 .081-.094.15-.219.15-.137.012-.231-.056-.231-.15 0-.081.094-.15.219-.15.119-.012.231.056.231.15zm-.856-.068c-.025.081-.15.119-.256.081-.119-.025-.2-.119-.175-.2s.15-.119.256-.094c.125.038.206.131.175.212zm-.769-.338c-.056.069-.175.056-.269-.038-.094-.081-.119-.2-.056-.256.056-.069.175-.056.269.038.081.081.113.206.056.256zm-.569-.569c-.056.038-.162 0-.231-.094s-.069-.2 0-.244c.069-.056.175-.012.231.081.069.094.069.206 0 .256zm-.406-.606c-.056.056-.15.025-.219-.038-.069-.081-.081-.175-.025-.219.056-.056.15-.025.219.038.069.081.081.175.025.219zm-.418-.462c-.025.056-.106.069-.175.025-.081-.038-.119-.106-.094-.163.025-.038.094-.056.175-.025.081.044.119.113.094.163z"/></symbol><symbol id="gitlab" viewBox="0 0 32 32"><path d="M1.861 12.483L16 30.857.505 19.356a1.247 1.247 0 0 1-.446-1.375l1.803-5.498zM6.574 1.558c-.196-.553-.982-.553-1.178 0L1.861 12.483h8.248L6.574 1.558zm3.535 10.925L16 30.857l5.891-18.374H10.109zm21.833 5.499l-1.803-5.498L16 30.858l15.495-11.501c.428-.321.607-.875.446-1.375zM26.604 1.558c-.196-.553-.982-.553-1.178 0l-3.535 10.925h8.248L26.604 1.558z"/></symbol><symbol id="google" viewBox="0 0 31 32"><path d="M30.5 16.363c0 8.844-6.056 15.137-15 15.137C6.925 31.5 0 24.575 0 16S6.925.5 15.5.5c4.175 0 7.688 1.531 10.394 4.056l-4.219 4.056C16.156 3.287 5.894 7.287 5.894 15.999c0 5.406 4.319 9.788 9.606 9.788 6.137 0 8.438-4.4 8.8-6.681h-8.8v-5.331h14.756c.144.794.244 1.556.244 2.587z"/></symbol><symbol id="google-drive" viewBox="0 0 32 32"><path d="M21.188 19.681L10.963 2h10.075l10.225 17.681H21.188zm-8.594 1.475L7.557 30h19.406l5.038-8.844H12.595zM9.631 4.213L0 21.157l5.037 8.844 9.775-16.95-5.181-8.838z"/></symbol><symbol id="google-play" viewBox="0 0 32 32"><path d="M20.331 14.644L6.537.813l17.55 10.075-3.756 3.756zM2.938 0c-.813.425-1.356 1.2-1.356 2.206v27.581c0 1.006.544 1.781 1.356 2.206l16.038-16L2.938-.001zm26.574 14.1l-3.681-2.131L21.725 16l4.106 4.031 3.756-2.131c1.125-.894 1.125-2.906-.075-3.8zM6.537 31.188l17.55-10.075-3.756-3.756L6.537 31.188z"/></symbol><symbol id="google-plus" viewBox="0 0 31 32"><path d="M15.5.5C6.944.5 0 7.444 0 16s6.944 15.5 15.5 15.5S31 24.556 31 16 24.056.5 15.5.5zm-4.419 23.25c-4.3 0-7.75-3.469-7.75-7.75s3.45-7.75 7.75-7.75c1.956 0 3.756.688 5.188 2.019l-2.1 2.037c-.825-.806-1.956-1.194-3.088-1.194-2.681 0-4.825 2.219-4.825 4.881s2.138 4.881 4.825 4.881c2.037 0 4.056-1.194 4.381-3.331h-4.381v-2.662h7.306c.081.425.119.85.119 1.294 0 4.425-2.969 7.575-7.425 7.575zm14.388-6.637v2.219H23.25v-2.219h-2.219v-2.219h2.219v-2.219h2.219v2.219h2.2v2.219h-2.2z"/></symbol><symbol id="google-plus-g" viewBox="0 0 40 32"><path d="M24.129 14.281c.115.606.196 1.211.196 1.997 0 6.86-4.6 11.722-11.525 11.722-6.63 0-12-5.37-12-12s5.37-12 12-12c3.241 0 5.943 1.179 8.038 3.143L17.58 10.27c-.884-.851-2.439-1.85-4.78-1.85-4.093 0-7.433 3.389-7.433 7.58s3.34 7.58 7.433 7.58c4.748 0 6.532-3.422 6.81-5.173H12.8v-4.126h11.329zm11.588.402V11.2h-3.5v3.483h-3.483v3.5h3.483v3.483h3.5v-3.483H39.2v-3.5h-3.483z"/></symbol><symbol id="google-plus-square" viewBox="0 0 28 32"><path d="M25 2H3C1.344 2 0 3.344 0 5v22c0 1.656 1.344 3 3 3h22c1.656 0 3-1.344 3-3V5c0-1.656-1.344-3-3-3zM10.25 22.25C6.794 22.25 4 19.456 4 16s2.794-6.25 6.25-6.25c1.688 0 3.094.613 4.188 1.637l-1.694 1.631c-.463-.444-1.269-.963-2.487-.963-2.131 0-3.869 1.762-3.869 3.95 0 2.181 1.738 3.95 3.869 3.95 2.475 0 3.4-1.781 3.55-2.694h-3.556v-2.15h5.9c.063.313.1.631.1 1.037 0 3.569-2.394 6.1-6 6.1zM24 17.137h-1.813v1.813h-1.825v-1.813h-1.813v-1.825h1.813v-1.813h1.825v1.813H24v1.825z"/></symbol><symbol id="google-wallet" viewBox="0 0 28 32"><path d="M9.8 7.925c2.35 3.788 4.012 7.069 5.269 10.156a48.243 48.243 0 0 1-1.956 6.144c-.825-3.269-1.656-6.331-3.5-9.281.406-2.275.144-4.6.188-7.019zM6.831 12.5H1.006c-.406 0-.656.469-.406.794C3.238 16.688 5.081 20.657 6.331 25H12.8c-1.012-4.356-2.419-8.356-5.156-12.094-.188-.25-.5-.406-.813-.406zM9.819 7c4.281 6.75 8.125 14.656 8.637 23h7.106c-.75-8.625-4.275-16.563-8.95-23H9.818zm15.737-4.281a.985.985 0 0 0-.95-.719h-5.519c-.331 0-.563.313-.488.644a48 48 0 0 1 1.656 9.125c3.012 5.387 4.981 11.144 5.662 16.925.988-3.781 1.581-8.344 1.581-12.688 0-4.6-.756-9.069-1.944-13.287z"/></symbol><symbol id="instagram" viewBox="0 0 28 32"><path d="M14.006 8.813c-3.975 0-7.181 3.206-7.181 7.181s3.206 7.181 7.181 7.181 7.181-3.206 7.181-7.181-3.206-7.181-7.181-7.181zm0 11.85c-2.569 0-4.669-2.094-4.669-4.669s2.094-4.669 4.669-4.669 4.669 2.094 4.669 4.669-2.1 4.669-4.669 4.669zm9.15-12.144c0 .931-.75 1.675-1.675 1.675a1.675 1.675 0 1 1 1.675-1.675zm4.757 1.7c-.106-2.244-.619-4.231-2.262-5.869-1.637-1.638-3.625-2.15-5.869-2.263-2.313-.131-9.244-.131-11.556 0-2.237.106-4.225.619-5.869 2.256S.207 7.968.094 10.212c-.131 2.313-.131 9.244 0 11.556.106 2.244.619 4.231 2.263 5.869s3.625 2.15 5.869 2.262c2.313.131 9.244.131 11.556 0 2.244-.106 4.231-.619 5.869-2.262 1.637-1.637 2.15-3.625 2.262-5.869.131-2.313.131-9.238 0-11.55zM24.925 24.25a4.728 4.728 0 0 1-2.663 2.663c-1.844.731-6.219.563-8.256.563s-6.419.163-8.256-.563a4.728 4.728 0 0 1-2.663-2.663c-.731-1.844-.563-6.219-.563-8.256s-.163-6.419.563-8.256A4.72 4.72 0 0 1 5.75 5.076c1.844-.731 6.219-.563 8.256-.563s6.419-.162 8.256.563a4.727 4.727 0 0 1 2.663 2.662c.731 1.844.563 6.219.563 8.256s.169 6.419-.563 8.256z"/></symbol><symbol id="jsfiddle" viewBox="0 0 36 32"><path d="M31.915 14.841c-.295-.164-.354-.359-.399-.674-.147-1.03-.221-2.101-.569-3.068-2.243-6.247-9.624-8.962-15.428-5.728-1.711.953-3.061 2.273-4.093 3.994-.199-.094-.341-.169-.489-.23-1.881-.776-3.691-.633-5.333.573-1.596 1.171-2.276 2.784-2.042 4.775.022.189-.123.476-.282.597C.798 16.954-.222 19.959.661 22.868c.864 2.848 3.595 4.987 6.601 5.09 1.893.064 3.79.034 5.685.034 5.253-.001 10.506.033 15.758-.03 3.291-.04 6.007-2.305 6.763-5.456.721-3.005-.697-6.081-3.552-7.665zm1.319 9.805c-1.139 1.402-2.646 2.203-4.455 2.228-3.555.049-7.11.014-10.666.014 0 .044-10.189.01-10.233.01-2.741-.021-4.796-1.235-5.948-3.75-1.181-2.578-.25-5.678 2.137-7.257.574-.38.782-.723.631-1.446-.343-1.648.278-2.997 1.651-3.936 1.437-.983 2.964-1.009 4.502-.193.642.341.913.723 1.387-.158.889-1.65 2.16-2.92 3.792-3.831 6.091-3.398 14.273.473 14.39 8.294.008.509.151.777.616.993 3.598 1.677 4.654 6.008 2.196 9.031zm-5.487-5.031c-.366 1.947-2.164 3.444-4.167 3.443-1.06 0-2.004-.409-2.755-1.107-1.731-1.607-4.446-4.686-5.996-5.837-1.254-.931-2.624-.771-3.767.236-3.125 2.754.991 7.611 4.191 4.824.284-.247.49-.596.796-.803.512-.344 1.298-.055.823.664-1.085 1.643-3.083 2.387-4.929 1.831-1.806-.544-3.053-2.248-3.039-4.386.077-1.405.773-2.691 2.213-3.498 1.411-.79 2.898-.822 4.187.155 3.174 2.405 4.724 5.109 6.706 6.328 1.535.944 3.391.46 4.301-1.094 1.802-3.076-2.162-6.564-4.929-3.966-.249.234-.432.558-.713.733-.686.426-1.083-.257-.801-.647 1.294-1.785 3.154-2.527 5.204-1.763 1.964.732 3.069 2.773 2.672 4.887z"/></symbol><symbol id="linkedin" viewBox="0 0 28 32"><path d="M26 2H1.994C.894 2 0 2.906 0 4.019v23.962C0 29.094.894 30 1.994 30H26c1.1 0 2-.906 2-2.019V4.019C28 2.907 27.1 2 26 2zM8.463 26h-4.15V12.637h4.156V26zM6.388 10.813a2.407 2.407 0 0 1 0-4.812 2.41 2.41 0 0 1 2.406 2.406 2.403 2.403 0 0 1-2.406 2.406zM24.019 26h-4.15v-6.5c0-1.55-.031-3.544-2.156-3.544-2.162 0-2.494 1.688-2.494 3.431V26h-4.15V12.637h3.981v1.825h.056c.556-1.05 1.912-2.156 3.931-2.156 4.2 0 4.981 2.769 4.981 6.369V26z"/></symbol><symbol id="linkedin-in" viewBox="0 0 28 32"><path d="M6.269 28H.463V9.306h5.806V28zM3.362 6.756C1.506 6.756 0 5.219 0 3.362a3.362 3.362 0 0 1 6.724 0c0 1.856-1.506 3.394-3.362 3.394zM28 28h-5.794v-9.1c0-2.169-.044-4.95-3.019-4.95-3.019 0-3.481 2.356-3.481 4.794V28h-5.8V9.306h5.569v2.55h.081c.775-1.469 2.669-3.019 5.494-3.019 5.875 0 6.956 3.869 6.956 8.894V28H28z"/></symbol><symbol id="medium" viewBox="0 0 28 32"><path d="M0 2v28h28V2H0zm23.262 6.631l-1.5 1.438a.441.441 0 0 0-.169.419v10.581a.431.431 0 0 0 .169.419l1.469 1.438v.319h-7.375v-.306l1.519-1.475c.15-.15.15-.194.15-.419v-8.556L13.3 23.214h-.569L7.812 12.489v7.188a.99.99 0 0 0 .275.825l1.975 2.394v.319H4.45v-.319l1.975-2.394a.955.955 0 0 0 .256-.825v-8.313a.718.718 0 0 0-.237-.613L4.688 8.632v-.319h5.456l4.213 9.25 3.706-9.244h5.2v.313z"/></symbol><symbol id="medium-m" viewBox="0 0 32 32"><path d="M4.469 8.894a1.179 1.179 0 0 0-.381-.987l-2.819-3.4v-.506h8.762l6.775 14.856 5.956-14.856h8.356v.506L28.705 6.82a.704.704 0 0 0-.269.675v17a.704.704 0 0 0 .269.675l2.356 2.313v.506H19.205v-.506l2.444-2.369c.238-.238.238-.313.238-.675V10.701l-6.794 17.244h-.919l-7.9-17.244v11.556c-.069.488.094.975.438 1.325l3.175 3.85v.506h-9v-.5l3.175-3.856a1.52 1.52 0 0 0 .406-1.325V8.894z"/></symbol><symbol id="npm" viewBox="0 0 36 32"><path d="M18 18h-2v-4h2v4zm18-8v12H18v2h-8v-2H0V10h36zm-26 2H2v8h4v-6h2v6h2v-8zm10 0h-8v10h4v-2h4v-8zm14 0H22v8h4v-6h2v6h2v-6h2v6h2v-8z"/></symbol><symbol id="pinterest" viewBox="0 0 31 32"><path d="M31 16c0 8.563-6.938 15.5-15.5 15.5-1.6 0-3.137-.244-4.588-.694.631-1.031 1.575-2.719 1.925-4.063.188-.725.963-3.688.963-3.688.506.962 1.981 1.781 3.55 1.781 4.675 0 8.044-4.3 8.044-9.644 0-5.119-4.181-8.95-9.556-8.95-6.688 0-10.244 4.488-10.244 9.381 0 2.275 1.213 5.106 3.144 6.006.294.137.45.075.519-.206.05-.212.313-1.269.431-1.756a.466.466 0 0 0-.106-.444c-.631-.781-1.144-2.206-1.144-3.537 0-3.419 2.588-6.725 7-6.725 3.806 0 6.475 2.594 6.475 6.306 0 4.194-2.119 7.1-4.875 7.1-1.519 0-2.662-1.256-2.294-2.8.438-1.844 1.281-3.831 1.281-5.162 0-1.188-.637-2.181-1.963-2.181-1.556 0-2.806 1.606-2.806 3.762 0 1.375.463 2.3.463 2.3s-1.531 6.488-1.813 7.7c-.313 1.337-.188 3.225-.056 4.45C4.087 28.18 0 22.567 0 15.998 0 7.435 6.938.498 15.5.498S31 7.436 31 15.998z"/></symbol><symbol id="pinterest-p" viewBox="0 0 24 32"><path d="M12.75.406C6.338.406 0 4.681 0 11.6c0 4.4 2.475 6.9 3.975 6.9.619 0 .975-1.725.975-2.212 0-.581-1.481-1.819-1.481-4.238 0-5.025 3.825-8.588 8.775-8.588 4.256 0 7.406 2.419 7.406 6.862 0 3.319-1.331 9.544-5.644 9.544-1.556 0-2.887-1.125-2.887-2.738 0-2.363 1.65-4.65 1.65-7.088 0-4.138-5.869-3.388-5.869 1.613 0 1.05.131 2.213.6 3.169-.862 3.712-2.625 9.244-2.625 13.069 0 1.181.169 2.344.281 3.525.213.238.106.212.431.094 3.15-4.313 3.037-5.156 4.463-10.8.769 1.462 2.756 2.25 4.331 2.25 6.637 0 9.619-6.469 9.619-12.3C24 4.456 18.637.406 12.75.406z"/></symbol><symbol id="pinterest-square" viewBox="0 0 28 32"><path d="M28 5v22c0 1.656-1.344 3-3 3H9.65c.613-1.025 1.4-2.5 1.713-3.706l.956-3.65c.5.956 1.963 1.762 3.519 1.762 4.631 0 7.963-4.256 7.963-9.544 0-5.069-4.137-8.863-9.463-8.863-6.625 0-10.137 4.444-10.137 9.287 0 2.25 1.2 5.05 3.112 5.944.294.137.444.075.513-.206.05-.212.313-1.256.425-1.738a.455.455 0 0 0-.106-.438c-.631-.769-1.144-2.181-1.144-3.5 0-3.387 2.563-6.662 6.931-6.662 3.769 0 6.413 2.569 6.413 6.244 0 4.15-2.094 7.025-4.825 7.025-1.506 0-2.631-1.244-2.275-2.775.431-1.825 1.269-3.794 1.269-5.113 0-3.313-4.719-2.856-4.719 1.563 0 1.356.456 2.281.456 2.281-1.963 8.3-2.256 8.406-1.85 12.037l.137.05H3.001c-1.656 0-3-1.344-3-3v-22c0-1.656 1.344-3 3-3h22c1.656 0 3 1.344 3 3z"/></symbol><symbol id="qq" viewBox="0 0 28 32"><path d="M27.11 26.278c-.72.087-2.804-3.296-2.804-3.296 0 1.959-1.009 4.515-3.191 6.362 1.053.325 3.428 1.198 2.863 2.151-.457.771-7.844.493-9.977.252-2.133.24-9.52.519-9.977-.252-.565-.953 1.807-1.826 2.861-2.151-2.183-1.846-3.191-4.403-3.191-6.362 0 0-2.083 3.383-2.804 3.296-.336-.041-.776-1.853.584-6.232.641-2.064 1.375-3.78 2.509-6.611C3.792 6.129 6.811 0 13.999 0c7.109 0 10.197 6.008 10.017 13.435 1.132 2.826 1.869 4.553 2.509 6.611 1.361 4.379.92 6.191.584 6.232z"/></symbol><symbol id="qzone" viewBox="0 0 32 32"><path d="M31.98 12.269c-.043-.132-.169-.297-.445-.344-.276-.048-9.801-1.875-9.801-1.875s-.14-.029-.264-.093c-.123-.063-.169-.223-.169-.223s-4.704-8.46-4.835-8.708c-.132-.249-.327-.317-.465-.317s-.335.068-.465.317c-.131.248-4.835 8.708-4.835 8.708s-.047.16-.171.223c-.123.063-.263.093-.263.093S.742 11.877.464 11.923c-.277.048-.403.213-.444.344a.634.634 0 0 0 .167.598l7.149 7.32s.096.107.159.229c.021.139.007.28.007.28s-1.585 9.656-1.627 9.933.1.492.212.573c.111.083.311.141.561.017.252-.124 9.083-4.348 9.083-4.348s.131-.059.268-.081c.137-.023.268.081.268.081s8.831 4.224 9.083 4.348c.251.125.451.065.561-.017a.616.616 0 0 0 .211-.577v.004c-.028-.187-1.24-7.569-1.24-7.569 1.168-.72 1.9-1.385 2.465-2.329-3.459 1.292-8.008 2.289-12.553 2.488-1.22.055-3.213.129-4.631-.02-.904-.095-1.56-.192-1.657-.584-.071-.287.072-.613.727-1.108-7.432 5.38-6.191 4.438-4.949 3.496l8.764-6.37c1.713-1.291 4.745-3.293 4.745-3.641 0-.38-2.859-1.041-5.383-1.041-2.593 0-3.033.176-3.748.224-.651.045-1.025.007-1.072-.184-.08-.331.244-.519.784-.757.945-.419 2.48-.792 2.645-.835.259-.069 4.109-1.073 7.491-.713 1.757.187 4.325.891 4.325 1.701 0 .456-2.295 1.992-4.3 3.463-1.532 1.124-2.956 2.081-2.956 2.251 0 .456 4.711 1.655 8.919 1.347l.004-.029c.064-.123.159-.229.159-.229l7.149-7.32a.635.635 0 0 0 .169-.603l.001.004z"/></symbol><symbol id="readme" viewBox="0 0 36 32"><path d="M33.019 2.906h-8.738a6.426 6.426 0 0 0-6.275 5.019 6.432 6.432 0 0 0-6.275-5.019H3c-1.656 0-3 1.344-3 3v15.363c0 1.656 1.344 3 3 3h5.606c6.387 0 8.294 1.525 9.206 4.688.044.175.325.175.375 0 .919-3.163 2.825-4.688 9.206-4.688h5.606c1.656 0 3-1.344 3-3V5.913a3.005 3.005 0 0 0-2.981-3.006zM15.125 19.494a.218.218 0 0 1-.219.219H4.887a.218.218 0 0 1-.219-.219v-1.431c0-.119.094-.219.219-.219h10.025c.119 0 .219.094.219.219v1.431zm0-3.806a.218.218 0 0 1-.219.219H4.887a.218.218 0 0 1-.219-.219v-1.431c0-.119.094-.219.219-.219h10.025c.119 0 .219.094.219.219v1.431zm0-3.807a.218.218 0 0 1-.219.219H4.887a.218.218 0 0 1-.219-.219V10.45c0-.119.094-.219.219-.219h10.025c.119 0 .219.094.219.219v1.431zm16.206 7.607a.218.218 0 0 1-.219.219H21.093a.218.218 0 0 1-.219-.219v-1.431c0-.119.094-.219.219-.219h10.025c.119 0 .219.094.219.219v1.431zm0-3.807a.218.218 0 0 1-.219.219H21.093a.218.218 0 0 1-.219-.219V14.25c0-.119.094-.219.219-.219h10.025c.119 0 .219.094.219.219v1.431zm0-3.806a.218.218 0 0 1-.219.219H21.093a.218.218 0 0 1-.219-.219V10.45c0-.119.094-.219.219-.219h10.025c.119 0 .219.094.219.219v1.425z"/></symbol><symbol id="renren" viewBox="0 0 32 32"><path d="M13.375 10.569c0 6.9-3.813 12.838-9.225 15.463A15.449 15.449 0 0 1 .5 16.038C.5 8.369 6.069 2.013 13.375.782v9.787zM15.938 31.5c-2.681 0-5.206-.688-7.406-1.9 3.575-2.256 6.463-5.669 7.406-9.663.969 3.994 3.856 7.406 7.425 9.669a15.35 15.35 0 0 1-7.425 1.894zm11.912-5.469c-5.413-2.625-9.225-8.556-9.225-15.463V.781C25.931 2.012 31.5 8.369 31.5 16.037c0 3.819-1.375 7.288-3.65 9.994z"/></symbol><symbol id="skype" viewBox="0 0 28 32"><path d="M26.544 18.738A13.62 13.62 0 0 0 26.838 16c0-7.094-5.744-12.831-12.831-12.831-.931 0-1.856.106-2.738.294A6.939 6.939 0 0 0 7 2.001c-3.862 0-7 3.137-7 7 0 1.606.544 3.081 1.456 4.262a13.62 13.62 0 0 0-.294 2.738c0 7.094 5.744 12.831 12.831 12.831.931 0 1.856-.106 2.738-.294a6.968 6.968 0 0 0 4.262 1.456c3.863 0 7-3.137 7-7a6.898 6.898 0 0 0-1.45-4.256zm-12.163 5.718c-4.1 0-7.531-1.825-7.531-4.063 0-1 .563-1.913 1.844-1.913 1.95 0 2.131 2.806 5.506 2.806 1.606 0 2.644-.712 2.644-1.644 0-1.169-1-1.35-2.625-1.75-3.906-.962-7.362-1.375-7.362-5.45 0-3.7 3.663-5.069 6.819-5.069 3.444 0 6.925 1.369 6.925 3.463 0 1.056-.712 1.988-1.894 1.988-1.769 0-1.825-2.094-4.688-2.094-1.606 0-2.625.438-2.625 1.406 0 1.238 1.3 1.363 4.319 2.063 2.588.581 5.669 1.675 5.669 4.85 0 3.694-3.569 5.406-7 5.406z"/></symbol><symbol id="slack" viewBox="0 0 28 32"><path d="M15.262 13.594l1.206 3.606-3.738 1.25-1.206-3.606 3.738-1.25zm2.588 15.231c-9.625 2.887-13.787.65-16.675-8.975S.525 6.063 10.15 3.175s13.787-.65 16.675 8.975.65 13.787-8.975 16.675zm5.037-12.262c-.244-.762-1.075-1.162-1.837-.919l-1.813.606-1.206-3.606 1.813-.606c.762-.244 1.163-1.075.919-1.838s-1.075-1.162-1.837-.919l-1.813.606-.625-1.881c-.244-.763-1.075-1.162-1.838-.919s-1.162 1.075-.919 1.837l.625 1.881-3.737 1.256-.625-1.881c-.244-.762-1.075-1.162-1.838-.919s-1.162 1.075-.919 1.838l.625 1.881-1.813.606c-.763.244-1.163 1.075-.919 1.838.2.581.763.962 1.344.988.269.038.481-.063 2.306-.669l1.206 3.606-1.813.606c-.763.244-1.162 1.075-.919 1.837.2.581.763.962 1.344.988.269.038.481-.063 2.306-.669l.625 1.881a1.485 1.485 0 0 0 1.838.919c.762-.244 1.162-1.075.919-1.837l-.625-1.881 3.738-1.256.625 1.881a1.484 1.484 0 0 0 1.837.919c.762-.244 1.163-1.075.919-1.837l-.625-1.881 1.813-.606a1.48 1.48 0 0 0 .919-1.85z"/></symbol><symbol id="slack-hash" viewBox="0 0 28 32"><path d="M27.887 16.9c-.387-1.188-1.681-1.819-2.875-1.431l-2.837.944-1.894-5.625 2.837-.944c1.194-.387 1.819-1.675 1.438-2.869-.387-1.188-1.681-1.819-2.875-1.431l-2.837.944-.981-2.938c-.387-1.188-1.681-1.819-2.875-1.431s-1.819 1.675-1.438 2.869l.981 2.938-5.838 1.95-.981-2.938C7.324 5.75 6.031 5.119 4.837 5.507S3.018 7.182 3.399 8.376l.981 2.938-2.831.938C.355 12.639-.27 13.927.111 15.121c.313.906 1.194 1.5 2.1 1.537.425.063.75-.1 3.606-1.05l1.894 5.625-2.837.944c-1.188.387-1.819 1.681-1.438 2.869.313.906 1.194 1.5 2.1 1.538.425.063.75-.1 3.606-1.05l.981 2.938c.369 1.056 1.544 1.813 2.875 1.431 1.194-.387 1.819-1.675 1.438-2.869l-.981-2.938 5.85-1.956.981 2.938c.369 1.056 1.544 1.813 2.875 1.431 1.194-.387 1.819-1.675 1.438-2.869l-.981-2.938 2.837-.944c1.188-.375 1.819-1.669 1.431-2.856zm-15.881 2.95l-1.894-5.637 5.844-1.956 1.894 5.637-5.844 1.956z"/></symbol><symbol id="stack-overflow" viewBox="0 0 24 32"><path d="M18.356 18.75L7.031 13.469l1.044-2.281 11.331 5.294-1.05 2.269zm3-4.75l-9.594-8.019-1.594 1.925 9.594 8.019L21.356 14zm2.475-1.981L16.375 2l-2 1.5 7.456 10.019 2-1.5zm-5.662 7.419L5.938 16.857l-.513 2.456 12.231 2.563.512-2.438zm1.975 8.062H2.669V20h-2.5v10h22.469V20h-2.5v7.5zm-2.488-5h-12.5v2.481h12.5V22.5z"/></symbol><symbol id="steam" viewBox="0 0 31 32"><path d="M31 16c0 8.563-6.95 15.5-15.525 15.5-7.112 0-13.1-4.769-14.938-11.275l5.95 2.456a4.391 4.391 0 0 0 8.693-1.069l5.281-3.762c3.256.081 5.988-2.556 5.988-5.844 0-3.225-2.625-5.844-5.856-5.844s-5.856 2.625-5.856 5.844v.075l-3.7 5.356a4.376 4.376 0 0 0-2.719.756l-8.319-3.438C.636 6.774 7.318.499 15.474.499c8.575 0 15.525 6.938 15.525 15.5zM9.731 24.019l-1.906-.788a3.32 3.32 0 0 0 1.678 1.604l.022.008c1.681.7 3.612-.1 4.313-1.775a3.256 3.256 0 0 0 .006-2.519 3.29 3.29 0 0 0-4.212-1.826l1.969.813a2.416 2.416 0 0 1 1.306 3.169 2.43 2.43 0 0 1-3.175 1.313zM20.594 15.9c-2.15 0-3.9-1.75-3.9-3.894s1.75-3.894 3.9-3.894 3.9 1.75 3.9 3.894-1.744 3.894-3.9 3.894zm.006-.975A2.93 2.93 0 0 0 23.531 12c0-1.619-1.313-2.925-2.931-2.925S17.669 10.388 17.669 12a2.938 2.938 0 0 0 2.931 2.925z"/></symbol><symbol id="steam-square" viewBox="0 0 28 32"><path d="M11.575 22.281a2.261 2.261 0 0 0-1.225-2.962l-1.844-.762a3.081 3.081 0 0 1 2.275.031c.762.319 1.35.913 1.669 1.669.313.762.313 1.6-.006 2.356a3.087 3.087 0 0 1-4.037 1.656 3.035 3.035 0 0 1-1.588-1.512l1.781.738a2.267 2.267 0 0 0 2.975-1.212zM25 2H3C1.344 2 0 3.344 0 5v10.044l7.287 3.006a4.091 4.091 0 0 1 2.544-.706l3.463-5.012v-.069c0-3.013 2.456-5.469 5.475-5.469s5.475 2.456 5.475 5.469c0 3.075-2.556 5.544-5.6 5.469l-4.938 3.519a4.113 4.113 0 0 1-4.106 4.3 4.118 4.118 0 0 1-4.031-3.294L0 19.951v7.05c0 1.656 1.344 3 3 3h22c1.656 0 3-1.344 3-3v-22c0-1.656-1.344-3-3-3zm-6.231 13.906a3.65 3.65 0 0 1-3.65-3.644 3.65 3.65 0 0 1 7.3 0 3.652 3.652 0 0 1-3.65 3.644zm.006-.912c1.512 0 2.744-1.225 2.744-2.737s-1.225-2.738-2.744-2.738c-1.512 0-2.744 1.225-2.744 2.738s1.231 2.738 2.744 2.738z"/></symbol><symbol id="steam-symbol" viewBox="0 0 28 32"><path d="M24.719 11.094a3.816 3.816 0 0 1-3.813 3.813c-2.113 0-3.813-1.706-3.813-3.813s1.706-3.813 3.813-3.813c2.094 0 3.813 1.7 3.813 3.813zm3.281.012a7.108 7.108 0 0 1-7.106 7.113l-6.831 4.988a5.313 5.313 0 0 1-5.281 4.8c-2.531 0-4.669-1.8-5.188-4.188L0 22.375v-6.706l6.075 2.456c.944-.575 2.013-.831 3.25-.719l4.438-6.356C13.794 7.156 16.982 4 20.888 4c3.925 0 7.113 3.188 7.113 7.106zM12.688 22.688a3.892 3.892 0 0 0-4.75-3.812l1.625.656a3.092 3.092 0 0 1 1.731 4.031 3.09 3.09 0 0 1-4.044 1.719c-.638-.25-1.281-.519-1.919-.762a3.905 3.905 0 0 0 3.45 2.075 3.892 3.892 0 0 0 3.906-3.906zm12.968-11.582a4.774 4.774 0 0 0-4.762-4.763c-2.644 0-4.781 2.138-4.781 4.763 0 2.637 2.144 4.762 4.781 4.762a4.757 4.757 0 0 0 4.762-4.762z"/></symbol><symbol id="tencent-weibo" viewBox="0 0 24 32"><path d="M4.519 30.988c.088 1.244-1.725 1.387-1.856.181C1.938 23.05 4.607 16.2 9.001 11.594c-.975-2.125.575-4.819 3.162-4.819a3.446 3.446 0 0 1 3.444 3.444c0 2.75-3.094 4.425-5.431 2.819C6.07 17.494 3.838 23.65 4.52 30.988zM12 .006C4.131.006-.769 8.393 2.731 15.15c.544 1.088 2.206.281 1.644-.838C1.481 8.525 5.688 1.862 12 1.862c4.712 0 8.556 3.838 8.556 8.556 0 5.675-5.431 9.619-10.481 8.319-1.194-.256-1.6 1.525-.412 1.819 6.919 1.45 12.75-3.75 12.75-10.144C22.413 4.668 17.75.006 12.001.006z"/></symbol><symbol id="tumblr" viewBox="0 0 20 32"><path d="M19.363 30.019c-.85.906-3.125 1.981-6.088 1.981-7.55 0-9.188-5.55-9.188-8.788v-9H1.118a.627.627 0 0 1-.625-.625v-4.25c0-.45.281-.85.706-1 3.875-1.362 5.094-4.75 5.269-7.319.05-.688.406-1.019 1.006-1.019h4.431c.344 0 .625.281.625.625v7.2h5.188c.344 0 .625.275.625.619v5.106a.627.627 0 0 1-.625.625h-5.213v8.325c0 2.137 1.481 3.35 4.25 2.238.3-.119.563-.2.794-.137.219.056.363.212.462.494l1.375 4.019c.113.313.206.663-.025.906z"/></symbol><symbol id="tumblr-square" viewBox="0 0 28 32"><path d="M25 2H3C1.344 2 0 3.344 0 5v22c0 1.656 1.344 3 3 3h22c1.656 0 3-1.344 3-3V5c0-1.656-1.344-3-3-3zm-5.144 22.762c-.531.569-1.95 1.238-3.806 1.238-4.719 0-5.744-3.469-5.744-5.494v-5.625H8.45a.389.389 0 0 1-.387-.387v-2.656a.66.66 0 0 1 .444-.625c2.425-.856 3.181-2.969 3.294-4.575.031-.431.256-.638.625-.638h2.769c.213 0 .387.175.387.388v4.5h3.244a.39.39 0 0 1 .387.387v3.194a.389.389 0 0 1-.387.387H15.57v5.206c0 1.337.925 2.094 2.656 1.4.188-.075.35-.125.5-.087.137.031.225.131.288.306l.863 2.512c.063.2.125.419-.019.569z"/></symbol><symbol id="twitter" viewBox="0 0 32 32"><path d="M28.711 9.482c.02.284.02.569.02.853 0 8.67-6.599 18.66-18.66 18.66A18.53 18.53 0 0 1 0 26.051c.528.061 1.036.081 1.584.081 3.066 0 5.888-1.035 8.142-2.802a6.57 6.57 0 0 1-6.132-4.548c.406.061.812.102 1.239.102.589 0 1.178-.081 1.726-.223A6.56 6.56 0 0 1 1.3 12.224v-.081a6.6 6.6 0 0 0 2.964.832A6.556 6.556 0 0 1 1.34 7.513c0-1.218.325-2.335.893-3.31a18.639 18.639 0 0 0 13.523 6.863 7.437 7.437 0 0 1-.162-1.502 6.555 6.555 0 0 1 6.558-6.558c1.888 0 3.594.792 4.792 2.071a12.88 12.88 0 0 0 4.162-1.584 6.539 6.539 0 0 1-2.883 3.614A13.168 13.168 0 0 0 32 6.092a14.103 14.103 0 0 1-3.289 3.391z"/></symbol><symbol id="twitter-square" viewBox="0 0 28 32"><path d="M25 2H3C1.344 2 0 3.344 0 5v22c0 1.656 1.344 3 3 3h22c1.656 0 3-1.344 3-3V5c0-1.656-1.344-3-3-3zm-3.056 9.925c.012.175.012.356.012.531 0 5.419-4.125 11.662-11.662 11.662-2.325 0-4.481-.675-6.294-1.837.331.038.65.05.987.05a8.22 8.22 0 0 0 5.088-1.75 4.104 4.104 0 0 1-3.831-2.844c.631.094 1.2.094 1.85-.075a4.099 4.099 0 0 1-3.281-4.025v-.05a4.1 4.1 0 0 0 1.85.519A4.092 4.092 0 0 1 4.838 10.7v-.007c0-.762.2-1.463.556-2.069a11.64 11.64 0 0 0 8.45 4.287c-.581-2.781 1.5-5.037 4-5.037 1.181 0 2.244.494 2.994 1.294a8.023 8.023 0 0 0 2.6-.988c-.306.95-.95 1.75-1.8 2.256a8.204 8.204 0 0 0 2.363-.637 8.614 8.614 0 0 1-2.056 2.125z"/></symbol><symbol id="vimeo" viewBox="0 0 28 32"><path d="M25.2 2H2.8A2.803 2.803 0 0 0 0 4.8v22.4C0 28.744 1.256 30 2.8 30h22.4c1.544 0 2.8-1.256 2.8-2.8V4.8C28 3.256 26.744 2 25.2 2zm-1.637 9.3c-.087 1.969-1.462 4.669-4.125 8.088-2.75 3.575-5.081 5.363-6.981 5.363-1.181 0-2.175-1.087-2.994-3.269-1.594-5.831-2.275-9.25-3.588-9.25-.15 0-.681.319-1.588.95l-.95-1.225c2.331-2.05 4.556-4.325 5.95-4.45 1.575-.15 2.544.925 2.906 3.231 1.294 8.2 1.869 9.438 4.225 5.725.844-1.338 1.3-2.356 1.363-3.056.219-2.075-1.619-1.931-2.863-1.4.994-3.256 2.894-4.838 5.7-4.75 2.081.056 3.063 1.406 2.944 4.044z"/></symbol><symbol id="vimeo-square" viewBox="0 0 28 32"><path d="M25 2H3C1.344 2 0 3.344 0 5v22c0 1.656 1.344 3 3 3h22c1.656 0 3-1.344 3-3V5c0-1.656-1.344-3-3-3zm-1.012 9.35c-.087 1.944-1.45 4.612-4.081 7.994-2.719 3.531-5.019 5.3-6.9 5.3-1.169 0-2.15-1.075-2.956-3.225-1.575-5.769-2.244-9.15-3.544-9.15-.15 0-.675.313-1.569.944L4 12c2.306-2.025 4.506-4.275 5.881-4.4 1.556-.15 2.513.912 2.875 3.194 1.281 8.1 1.85 9.325 4.175 5.656.837-1.325 1.288-2.325 1.344-3.019.212-2.05-1.6-1.912-2.825-1.387.981-3.219 2.863-4.781 5.631-4.694 2.056.063 3.025 1.4 2.906 4z"/></symbol><symbol id="vimeo-v" viewBox="0 0 28 32"><path d="M27.988 9.6c-.125 2.725-2.025 6.456-5.713 11.194-3.806 4.95-7.025 7.425-9.662 7.425-1.631 0-3.013-1.506-4.144-4.519-2.2-8.075-3.138-12.806-4.956-12.806-.212 0-.944.444-2.2 1.319L0 10.513c3.225-2.831 6.306-5.981 8.238-6.156 2.181-.213 3.519 1.281 4.025 4.469 1.794 11.344 2.588 13.056 5.85 7.919 1.169-1.85 1.8-3.256 1.887-4.225.3-2.869-2.238-2.675-3.956-1.938 1.375-4.506 4.006-6.694 7.887-6.569 2.863.075 4.219 1.944 4.056 5.588z"/></symbol><symbol id="weibo" viewBox="0 0 32 32"><path d="M25.438 11.1c.475-1.5-.837-2.925-2.337-2.606-1.375.3-1.8-1.756-.444-2.05 3.131-.681 5.769 2.319 4.781 5.3-.425 1.325-2.425.675-2-.644zM13.425 27.919C6.781 27.919 0 24.707 0 19.4c0-2.769 1.75-5.963 4.769-8.981 6.231-6.231 12.7-6.306 10.85-.356-.25.819.769.356.769.375 4.969-2.1 8.781-1.05 7.125 3.213-.231.588.069.681.519.819 8.481 2.644 2.175 13.45-10.606 13.45zm8.981-9.144c-.337-3.481-4.906-5.875-10.213-5.356-5.3.537-9.3 3.769-8.963 7.25s4.906 5.875 10.213 5.356c5.3-.538 9.3-3.769 8.963-7.25zm-.662-16.581c-1.619.35-1.05 2.731.519 2.394 4.519-.95 8.425 3.3 6.981 7.75-.462 1.512 1.819 2.313 2.337.75C33.575 6.851 28.137.844 21.744 2.194zm-4.907 19.437c-1.069 2.425-4.175 3.75-6.819 2.894-2.55-.819-3.625-3.337-2.519-5.606 1.106-2.212 3.944-3.463 6.462-2.819 2.625.675 3.944 3.137 2.875 5.531zm-5.393-1.875c-.806-.337-1.875.019-2.375.806-.519.806-.269 1.75.537 2.125.819.375 1.925.019 2.444-.806.5-.819.231-1.769-.606-2.125zm2.037-.837a.792.792 0 0 0-.894.337c-.181.319-.088.663.231.806.319.125.731-.019.912-.337.175-.325.069-.681-.25-.806z"/></symbol><symbol id="weixin" viewBox="0 0 36 32"><path d="M24.075 10.475c.4 0 .788.019 1.175.069C24.212 5.644 18.956 2 12.981 2 6.281 2 .812 6.55.812 12.338c0 3.338 1.831 6.094 4.869 8.225l-1.206 3.663 4.25-2.131c1.525.3 2.738.606 4.262.606.387 0 .756-.019 1.144-.05a8.598 8.598 0 0 1-.387-2.55c-.006-5.306 4.556-9.625 10.331-9.625zm-6.531-3.306c.906 0 1.512.606 1.512 1.525 0 .906-.606 1.512-1.512 1.512-.925 0-1.831-.606-1.831-1.512.006-.919.913-1.525 1.831-1.525zm-8.525 3.037c-.906 0-1.831-.606-1.831-1.512 0-.925.925-1.525 1.831-1.525.925 0 1.525.606 1.525 1.525 0 .912-.6 1.512-1.525 1.512zm26.169 9.756c0-4.869-4.869-8.831-10.337-8.831-5.794 0-10.338 3.963-10.338 8.831s4.55 8.831 10.338 8.831c1.206 0 2.431-.319 3.663-.619l3.337 1.831-.925-3.038c2.45-1.837 4.262-4.269 4.262-7.006zm-13.694-1.531c-.606 0-1.206-.606-1.206-1.225 0-.606.606-1.206 1.206-1.206.925 0 1.525.606 1.525 1.206 0 .625-.606 1.225-1.525 1.225zm6.694 0c-.606 0-1.206-.606-1.206-1.225 0-.606.606-1.206 1.206-1.206.906 0 1.525.606 1.525 1.206.006.625-.619 1.225-1.525 1.225z"/></symbol><symbol id="whatsapp" viewBox="0 0 28 32"><path d="M23.806 6.069A13.771 13.771 0 0 0 13.993 2C6.343 2 .118 8.225.118 15.875c0 2.444.637 4.831 1.85 6.938l-1.969 7.188 7.356-1.931a13.835 13.835 0 0 0 6.631 1.688h.006c7.644 0 14.006-6.225 14.006-13.875 0-3.706-1.575-7.188-4.194-9.813zm-9.812 21.35c-2.075 0-4.106-.556-5.875-1.606l-.419-.25-4.362 1.144L4.5 22.451l-.275-.438a11.495 11.495 0 0 1-1.763-6.137C2.462 9.52 7.637 4.345 14 4.345c3.081 0 5.975 1.2 8.15 3.381s3.512 5.075 3.506 8.156c0 6.362-5.306 11.537-11.662 11.537zm6.325-8.638c-.344-.175-2.05-1.012-2.369-1.125-.319-.119-.55-.175-.781.175s-.894 1.125-1.1 1.363c-.2.231-.406.262-.75.087-2.037-1.019-3.375-1.819-4.719-4.125-.356-.613.356-.569 1.019-1.894.113-.231.056-.431-.031-.606s-.781-1.881-1.069-2.575c-.281-.675-.569-.581-.781-.594-.2-.012-.431-.012-.662-.012s-.606.088-.925.431c-.319.35-1.213 1.188-1.213 2.894s1.244 3.356 1.412 3.587c.175.231 2.444 3.731 5.925 5.238 2.2.95 3.063 1.031 4.162.869.669-.1 2.05-.837 2.337-1.65s.288-1.506.2-1.65c-.081-.156-.313-.244-.656-.413z"/></symbol><symbol id="whatsapp-square" viewBox="0 0 28 32"><path d="M14 7.675c-4.544 0-8.238 3.694-8.244 8.238a8.2 8.2 0 0 0 1.263 4.381l.194.313-.831 3.038 3.119-.819.3.181a8.216 8.216 0 0 0 4.194 1.15h.006c4.538 0 8.331-3.694 8.331-8.238 0-2.2-.95-4.269-2.506-5.825a8.173 8.173 0 0 0-5.825-2.419zm4.844 11.775c-.206.581-1.194 1.106-1.669 1.175-.788.119-1.4.056-2.969-.619-2.481-1.075-4.106-3.575-4.231-3.738s-1.012-1.344-1.012-2.563.637-1.819.869-2.069a.903.903 0 0 1 .662-.313c.162 0 .331 0 .475.006.15.006.356-.056.556.425.206.494.7 1.713.762 1.838s.106.269.019.431c-.475.95-.981.912-.725 1.35.956 1.644 1.912 2.213 3.369 2.944.25.125.394.106.537-.063.144-.163.619-.725.781-.969.163-.25.331-.206.556-.125s1.444.681 1.694.806.413.188.475.288c.056.119.056.619-.15 1.194zM25 2H3C1.344 2 0 3.344 0 5v22c0 1.656 1.344 3 3 3h22c1.656 0 3-1.344 3-3V5c0-1.656-1.344-3-3-3zM13.994 25.825a9.905 9.905 0 0 1-4.737-1.206L4.001 26l1.406-5.137a9.873 9.873 0 0 1-1.325-4.956c.006-5.463 4.45-9.906 9.913-9.906a9.846 9.846 0 0 1 7.012 2.906c1.869 1.875 2.994 4.363 2.994 7.012 0 5.463-4.544 9.906-10.006 9.906z"/></symbol><symbol id="wordpress" viewBox="0 0 32 32"><path d="M3.856 10.588L10.2 27.963A13.283 13.283 0 0 1 2.706 16c0-1.931.413-3.756 1.15-5.412zm21.119 4.743c0-1.644-.587-2.781-1.094-3.669-.675-1.094-1.306-2.025-1.306-3.119 0-1.225.925-2.362 2.231-2.362.056 0 .113.006.175.013A13.253 13.253 0 0 0 16 2.7c-4.644 0-8.731 2.381-11.113 5.994.313.012.606.019.856.019 1.388 0 3.544-.169 3.544-.169.719-.044.8 1.012.088 1.094 0 0-.719.081-1.519.125l4.844 14.4 2.912-8.725-2.069-5.675a27.26 27.26 0 0 1-1.394-.125c-.719-.044-.631-1.137.081-1.094 0 0 2.194.169 3.5.169 1.387 0 3.544-.169 3.544-.169.719-.044.8 1.012.087 1.094 0 0-.719.081-1.519.125l4.806 14.294 1.325-4.431c.563-1.837 1-3.156 1-4.294zm-8.744 1.832l-3.988 11.594a13.226 13.226 0 0 0 8.168-.212.972.972 0 0 1-.094-.181l-4.088-11.2zm11.438-7.544c.056.425.087.875.087 1.369 0 1.35-.25 2.863-1.012 4.762l-4.063 11.744c3.956-2.306 6.613-6.587 6.613-11.494 0-2.313-.587-4.487-1.625-6.381zM31.5 16c0 8.55-6.956 15.5-15.5 15.5C7.45 31.5.5 24.544.5 16 .5 7.45 7.45.5 16 .5 24.544.5 31.5 7.45 31.5 16zm-.712 0c0-8.156-6.637-14.787-14.788-14.787C7.844 1.213 1.213 7.844 1.213 16S7.851 30.788 16 30.788c8.156 0 14.788-6.631 14.788-14.788z"/></symbol><symbol id="wordpress-simple" viewBox="0 0 32 32"><path d="M16 .5C7.456.5.5 7.45.5 16c0 8.544 6.956 15.5 15.5 15.5S31.5 24.544 31.5 16C31.5 7.45 24.544.5 16 .5zM2.063 16c0-2.019.431-3.938 1.206-5.669l6.65 18.212c-4.65-2.262-7.856-7.031-7.856-12.544zM16 29.938c-1.369 0-2.688-.2-3.938-.569l4.181-12.15 4.281 11.738c.031.069.063.131.1.194-1.444.506-3 .788-4.625.788zm1.919-20.469a29.194 29.194 0 0 0 1.594-.131c.75-.088.663-1.194-.087-1.15 0 0-2.256.175-3.713.175-1.369 0-3.669-.175-3.669-.175-.75-.044-.838 1.106-.088 1.15 0 0 .713.088 1.463.131l2.169 5.95-3.05 9.144L7.463 9.469a29.194 29.194 0 0 0 1.594-.131c.75-.088.662-1.194-.088-1.15 0 0-2.256.175-3.713.175-.263 0-.569-.006-.9-.019C6.85 4.563 11.131 2.063 16 2.063c3.625 0 6.931 1.388 9.412 3.656-.063-.006-.119-.013-.181-.013-1.369 0-2.337 1.194-2.337 2.475 0 1.15.663 2.119 1.369 3.269.531.925 1.15 2.119 1.15 3.844 0 1.194-.456 2.575-1.063 4.506l-1.387 4.644-5.044-14.975zm5.087 18.575l4.256-12.306c.794-1.988 1.063-3.575 1.063-4.994 0-.512-.031-.988-.094-1.431a13.888 13.888 0 0 1 1.706 6.688c0 5.144-2.788 9.631-6.931 12.044z"/></symbol><symbol id="xbox" viewBox="0 0 32 32"><path d="M23.119 19.887c2.769 3.394 4.044 6.175 3.4 7.419-.494.944-3.544 2.788-5.788 3.494-1.85.581-4.275.831-6.275.637-2.388-.231-4.806-1.087-6.881-2.438-1.744-1.137-2.138-1.606-2.138-2.538 0-1.869 2.056-5.144 5.575-8.881 2-2.119 4.781-4.606 5.087-4.537.587.131 5.269 4.694 7.019 6.844zM11.787 8.988c-1.856-1.681-3.631-3.369-5.4-3.963-.95-.319-1.019-.3-1.794.506-1.825 1.9-3.344 4.981-3.769 7.65-.338 2.138-.381 2.737-.262 3.781.35 3.156 1.081 5.337 2.531 7.556.594.913.756 1.081.581.619-.263-.688-.019-2.344.594-4 .894-2.438 3.369-7.056 7.519-12.15zm19.475 3.968c-1.056-5-4.219-8.144-4.662-8.144-.456 0-1.512.406-2.25.869-1.456.906-2.563 1.963-4.019 3.3 2.65 3.331 6.387 8.713 7.681 12.644.425 1.294.606 2.569.462 3.269-.106.531-.106.531.087.288.381-.481 1.244-1.956 1.587-2.719.462-1.012.938-2.512 1.163-3.669.269-1.406.244-4.425-.05-5.838zM8.831 2.688c2.981-.156 6.856 2.156 7.144 2.213.044.006.65-.263 1.35-.606 3.994-1.944 5.875-1.612 6.712-1.575C20.043.264 14.493-.405 9.418 1.989c-1.463.694-1.5.744-.588.7z"/></symbol><symbol id="youku" viewBox="0 0 32 32"><path d="M.096 5.943c-.163.261-.118.643.131 1.14.349.601.859 1.46 1.535 2.58l1.009 1.685-1.048 2.286-.095.545c-.059.362.098.643.473.839.376.225.692.199.953-.075l.395-.411 3.553-7.667.131-.562c.088-.375-.082-.663-.506-.859-.424-.199-.751-.186-.973.036-.222.225-.389.424-.487.601-.101.176-.356.718-.767 1.629l-.617 1.362-.731-1.309C2.562 6.888 2.223 6.3 2.023 6c-.199-.327-.438-.539-.712-.637-.274-.101-.601-.036-.973.186l-.242.395zm4.398 15.849a21.911 21.911 0 0 0 2.805-5.613l1.345.637a12.194 12.194 0 0 1-.676 1.851l-.375.803-.036 7.183h-1.27v-5.051c-.075.124-.18.3-.32.526a2.59 2.59 0 0 1-.356.487l-1.117-.823zM6.737 8.993c0 .996.327 1.851.973 2.563.646.709 1.433 1.064 2.357 1.064.898 0 1.678-.356 2.338-1.064.663-.712.989-1.564.989-2.563 0-.996-.33-1.851-.989-2.563-.663-.712-1.44-1.064-2.338-1.064-.921 0-1.708.356-2.357 1.064-.65.712-.973 1.567-.973 2.563zm.637 16.763c.65-.549 1.267-1.267 1.851-2.152.588-.885.904-2.015.953-3.386H8.007v-1.123h2.286V16.29h1.27v2.805h4.039v1.123h-2.468v5.051c0 .075.02.131.056.17.036.036.095.055.17.055h.784c.075 0 .144-.026.206-.075s.108-.124.131-.225c.026-.101.049-.356.075-.767s.036-.777.036-1.104l1.345.411v1.051c0 .699-.186 1.192-.562 1.479s-.65.431-.823.431l-1.685-.036c-.274 0-.519-.118-.731-.356s-.32-.48-.32-.731l-.036-5.352h-.186c-.049 1.597-.431 2.948-1.14 4.059s-1.365 1.917-1.966 2.413l-1.113-.937zM8.533 8.993c0-.575.15-1.029.451-1.365s.676-.506 1.123-.506c.424 0 .777.17 1.064.506s.431.79.431 1.365c0 .549-.144.996-.431 1.345s-.656.526-1.104.526c-.424 0-.784-.176-1.084-.526s-.451-.797-.451-1.345zm3.932 8.271l.859-.934 2.06 1.646-.859.934-2.06-1.646zm1.123-7.298c0 .676.219 1.283.656 1.835.438.549 1.202.823 2.302.823s1.871-.261 2.318-.784c.451-.526.676-1.146.676-1.871V6.488c0-.251-.069-.48-.206-.692s-.356-.32-.656-.32c-.349 0-.581.118-.692.356s-.17.47-.17.692v3.144c0 .3-.082.624-.245.973s-.493.526-.989.526c-.5 0-.829-.163-.989-.487a2.164 2.164 0 0 1-.245-.973v-3.18a1.58 1.58 0 0 0-.17-.692c-.111-.238-.33-.356-.656-.356-.398 0-.656.124-.767.375s-.17.473-.17.676v1.531l.003 1.904zm2.991 15.754c0 .349.111.601.336.751s.5.225.823.225h3.481c.199 0 .395-.082.581-.245s.281-.418.281-.767v-6.439c0-.176-.02-.313-.055-.411-.036-.101-.144-.15-.32-.15h-1.123v-1.009h1.495v-1.048h-5.499v1.048H18.3v1.009h-1.309l-.206.055c-.137.036-.206.157-.206.356v6.625zm1.273-.3v-1.048h3.18v1.159c0 .075-.075.111-.225.111h-2.73c-.101 0-.163-.036-.186-.111l-.039-.111zm0-2.093v-.823l.601.451c.15-.15.33-.382.545-.692.212-.313.33-.839.356-1.59v-.712h.225v1.871a.733.733 0 0 0 .17.562c.137.176.343.274.617.3h.676v.637l-3.19-.003zm0-1.309v-2.06h.451v.751c0 .274-.049.539-.15.784-.101.248-.202.424-.3.526zm1.496-3.331v-1.009h.225v1.009h-.225zm.489-7.15c0 .225.075.457.225.692.15.238.398.356.751.356.3 0 .539-.101.712-.3.176-.199.261-.438.261-.712V9.852l1.104 1.029a128.7 128.7 0 0 0 1.44 1.329c.199.176.444.268.731.281s.532-.069.731-.245c.176-.176.274-.376.3-.601s-.062-.451-.261-.676l-2.021-1.91.751-.767c.5-.513.836-.878 1.009-1.104.199-.225.3-.438.3-.637s-.088-.389-.261-.562c-.15-.15-.349-.251-.601-.3s-.473.026-.676.225c-.225.176-.705.643-1.44 1.404l-1.104 1.14V6.626c0-.274-.088-.513-.261-.712-.176-.199-.411-.3-.712-.3-.349 0-.601.118-.751.356s-.225.47-.225.692v4.875h-.003zm.745 9.955v-1.535h.451v1.76h-.3a.127.127 0 0 1-.111-.055.305.305 0 0 1-.039-.17zm1.685-1.57l1.084.186c.049-.124.095-.268.131-.431s.095-.418.17-.767H24.7v1.495h-2.211v1.009h5.463v-1.009h-2.135V18.91h1.685v-1.048h-1.646v-1.46h-1.159v1.46h-.859c.049-.199.082-.395.095-.581s.007-.343-.02-.47h-1.195a28.112 28.112 0 0 1-.17 1.74 10.19 10.19 0 0 1-.281 1.371zm.45 5.723c0 .349.075.614.225.784.15.173.362.261.637.261h2.955c.424 0 .692-.082.803-.245s.17-.369.17-.617v-3.781h-4.79v3.598zm1.234-.261v-2.286h2.468v2.286l-.036.131c-.026.088-.111.131-.261.131H24.29c-.176 0-.274-.042-.3-.131l-.039-.131zm2.097-15.418c0 .676.219 1.283.656 1.835.438.549 1.202.823 2.302.823 1.123 0 1.904-.261 2.338-.784.438-.526.656-1.146.656-1.871V6.488c0-.251-.069-.48-.206-.692s-.356-.32-.656-.32c-.349 0-.581.118-.692.356s-.17.47-.17.692v3.144c0 .3-.075.624-.225.973s-.473.526-.973.526-.833-.163-1.009-.487a2.031 2.031 0 0 1-.261-.973v-3.18c0-.225-.049-.457-.15-.692-.101-.238-.327-.356-.676-.356-.375 0-.624.124-.751.375s-.186.473-.186.676v1.535l.003 1.9z"/></symbol><symbol id="youku-icon" viewBox="0 0 32 32"><path d="M12.118 22.749c4.042-1.806 7.833-3.899 11.311-6.344a.525.525 0 0 0 .023-.839c-3.151-2.452-6.86-4.614-11.353-6.364a.524.524 0 0 0-.709.441c-.372 4.157-.359 8.382 0 12.673a.517.517 0 0 0 .728.434z"/><path d="M16 .013C7.167.013 0 7.167 0 15.997s7.167 15.99 16 15.99 16-7.158 16-15.99S24.839.013 16 .013zm0 27.076c-6.129 0-11.095-4.963-11.095-11.086S9.872 4.917 16 4.917c6.129 0 11.102 4.957 11.102 11.079 0 6.126-4.973 11.092-11.102 11.092z"/></symbol><symbol id="youtube" viewBox="0 0 36 32"><path d="M34.353 7.755a4.289 4.289 0 0 0-3.018-3.037C28.673 4 17.999 4 17.999 4S7.325 4 4.663 4.718a4.289 4.289 0 0 0-3.018 3.037c-.713 2.679-.713 8.269-.713 8.269s0 5.59.713 8.269c.393 1.478 1.549 2.594 3.018 2.989C7.325 28 17.999 28 17.999 28s10.674 0 13.336-.718c1.469-.395 2.625-1.511 3.018-2.989.713-2.679.713-8.269.713-8.269s0-5.59-.713-8.269zM14.509 21.099v-10.15l8.921 5.075-8.921 5.075z"/></symbol><symbol id="youtube-square" viewBox="0 0 28 32"><path d="M11.675 12.631l5.95 3.381-5.95 3.381v-6.762zM28 5v22c0 1.656-1.344 3-3 3H3c-1.656 0-3-1.344-3-3V5c0-1.656 1.344-3 3-3h22c1.656 0 3 1.344 3 3zm-2.625 11.019s0-3.725-.475-5.512a2.852 2.852 0 0 0-2.012-2.025c-1.769-.481-8.887-.481-8.887-.481s-7.119 0-8.887.481a2.853 2.853 0 0 0-2.013 2.025c-.475 1.781-.475 5.512-.475 5.512s0 3.725.475 5.512a2.812 2.812 0 0 0 2.013 1.994C6.883 24 14.001 24 14.001 24s7.119 0 8.887-.481a2.81 2.81 0 0 0 2.012-1.994c.475-1.781.475-5.506.475-5.506z"/></symbol><symbol id="zhihu" viewBox="0 0 40 32"><path d="M10.659 9.258v13.596l1.464.001.482 1.648 2.626-1.648h3.096V9.258h-7.668zm6.109 12.121h-1.746l-1.744 1.094-.318-1.092-.744-.003V10.734h4.551v10.644zm-7.404-5.9H6.093c.109-1.694.138-3.224.138-4.591h3.197s.123-1.41-.536-1.394H3.361c.218-.82.492-1.666.82-2.542 0 0-1.504 0-2.017 1.348-.212.556-.826 2.696-1.919 4.883.368-.04 1.586-.074 2.303-1.388.132-.368.157-.416.321-.908h1.804c0 .656-.075 4.18-.105 4.59H1.301c-.734 0-.973 1.476-.973 1.476h4.099c-.275 3.116-1.751 5.742-4.428 7.819 1.281.366 2.557-.058 3.188-.619 0 0 1.436-1.306 2.224-4.328l3.372 4.059s.494-1.681-.078-2.499c-.474-.558-1.754-2.066-2.299-2.613l-.914.726a11.05 11.05 0 0 0 .492-2.542h3.853s-.006-1.476-.474-1.476v.001zm25.752-.1c1.302-1.602 2.811-3.661 2.811-3.661s-1.166-.925-1.711-.254c-.375.509-2.302 3.012-2.302 3.012l1.202.902zm-9.381-3.693c-.563-.516-1.619.133-1.619.133s2.47 3.44 2.57 3.591l1.216-.858s-1.604-2.351-2.166-2.866h-.001zM40 16.147c-1.236 0-8.182.058-8.191.058V9.892c.301 0 .776-.025 1.428-.075 2.555-.151 4.383-.25 5.486-.301 0 0 .764-1.699-.037-2.09-.192-.074-1.448.286-1.448.286S26.912 8.743 22.715 8.84c.1.551.476 1.067.986 1.222.832.217 1.418.106 3.072.056 1.552-.1 2.73-.152 3.532-.152v6.238h-8.342s.176 1.394 1.594 1.428h6.746v4.433c0 .873-.699 1.374-1.53 1.32-.88.007-1.63-.072-2.606-.113.124.248.396.899 1.207 1.365.617.301 1.011.411 1.626.411 1.848 0 2.854-1.08 2.806-2.832v-4.582h7.647c.605 0 .544-1.486.544-1.486l.002-.001z"/></symbol></defs></svg>