<svg xmlns="http://www.w3.org/2000/svg" aria-hidden="true"><defs><symbol id="activity" viewBox="0 0 32 32"><path d="M29.333 16H24l-4 12-8-24-4 12H2.667"/></symbol><symbol id="anchor" viewBox="0 0 32 32"><path d="M20 6.667a4 4 0 1 1-8 0 4 4 0 0 1 8 0zm-4 22.666V10.666M6.667 16h-4c0 7.364 5.97 13.333 13.333 13.333S29.333 23.363 29.333 16h-4"/></symbol><symbol id="aperture" viewBox="0 0 32 32"><path d="M29.333 16c0 7.364-5.97 13.333-13.333 13.333S2.667 23.363 2.667 16C2.667 8.636 8.637 2.667 16 2.667S29.333 8.637 29.333 16zM19.08 10.667l7.653 13.253M12.92 10.667h15.307M9.84 16l7.653-13.253M12.92 21.333L5.267 8.08M19.08 21.333H3.773M22.16 16l-7.653 13.253"/></symbol><symbol id="archive" viewBox="0 0 32 32"><path d="M28 10.667V28H4V10.667M1.333 4h29.333v6.667H1.333V4zm12 12h5.333"/></symbol><symbol id="arrow-down-left" viewBox="0 0 32 32"><path d="M22.667 9.333L9.334 22.666m13.333.001H9.334V9.334"/></symbol><symbol id="arrow-down-right" viewBox="0 0 32 32"><path d="M9.333 9.333l13.333 13.333m.001-13.333v13.333H9.334"/></symbol><symbol id="arrow-down" viewBox="0 0 32 32"><path d="M16 6.667v18.667M25.333 16L16 25.333 6.667 16"/></symbol><symbol id="arrow-left" viewBox="0 0 32 32"><path d="M25.333 16H6.666M16 25.333L6.667 16 16 6.667"/></symbol><symbol id="arrow-right" viewBox="0 0 32 32"><path d="M6.667 16h18.667M16 6.667L25.333 16 16 25.333"/></symbol><symbol id="arrow-up-left" viewBox="0 0 32 32"><path d="M22.667 22.667L9.334 9.334m-.001 13.333V9.334h13.333"/></symbol><symbol id="arrow-up-right" viewBox="0 0 32 32"><path d="M9.333 22.667L22.666 9.334M9.333 9.333h13.333v13.333"/></symbol><symbol id="arrow-up" viewBox="0 0 32 32"><path d="M16 25.333V6.666M6.667 16L16 6.667 25.333 16"/></symbol><symbol id="download" viewBox="0 0 32 32"><path d="M28 20v5.333A2.667 2.667 0 0 1 25.333 28H6.666a2.667 2.667 0 0 1-2.667-2.667V20m5.334-6.667L16 20l6.667-6.667M16 20V4"/></symbol><symbol id="edit" viewBox="0 0 32 32"><path d="M26.667 19.547v7.12A2.667 2.667 0 0 1 24 29.334H5.333a2.667 2.667 0 0 1-2.667-2.667V8a2.667 2.667 0 0 1 2.667-2.667h7.12"/><path d="M24 2.667L29.333 8 16 21.333h-5.333V16L24 2.667z"/></symbol><symbol id="external-link" viewBox="0 0 32 32"><path d="M24 17.333v8A2.667 2.667 0 0 1 21.333 28H6.666a2.667 2.667 0 0 1-2.667-2.667V10.666a2.667 2.667 0 0 1 2.667-2.667h8M20 4h8v8m-14.667 6.667L28 4"/></symbol><symbol id="eye-off" viewBox="0 0 32 32"><path d="M23.92 23.92a13.338 13.338 0 0 1-7.908 2.747H16C6.667 26.667 1.333 16 1.333 16c1.713-3.152 3.977-5.791 6.689-7.877l.058-.043m5.12-2.427c.833-.203 1.788-.32 2.771-.32h.03-.002C25.332 5.333 30.666 16 30.666 16a24.774 24.774 0 0 1-2.91 4.29l.03-.036m-8.959-1.427a4 4 0 1 1-5.655-5.651l.002-.002M1.333 1.333l29.333 29.333"/></symbol><symbol id="eye" viewBox="0 0 32 32"><path d="M1.333 16S6.666 5.333 16 5.333 30.667 16 30.667 16 25.334 26.667 16 26.667 1.333 16 1.333 16z"/><path d="M20 16a4 4 0 1 1-8 0 4 4 0 0 1 8 0z"/></symbol><symbol id="feather" viewBox="0 0 32 32"><path d="M26.987 16.32A8.004 8.004 0 1 0 15.667 5l-9 9v11.333H18zm-5.654-5.653L2.666 29.334M22.667 20H12"/></symbol><symbol id="film" viewBox="0 0 32 32"><path d="M5.573 2.667h20.853a2.907 2.907 0 0 1 2.907 2.907v20.853a2.907 2.907 0 0 1-2.907 2.907H5.573a2.907 2.907 0 0 1-2.907-2.907V5.574a2.907 2.907 0 0 1 2.907-2.907zm3.76 0v26.667M22.667 2.667v26.667M2.667 16h26.667M2.667 9.333h6.667M2.667 22.667h6.667m13.333 0h6.667M22.667 9.333h6.667"/></symbol><symbol id="git-branch" viewBox="0 0 32 32"><path d="M8 4v16M28 8a4 4 0 1 1-8 0 4 4 0 0 1 8 0zM12 24a4 4 0 1 1-8 0 4 4 0 0 1 8 0zm12-12c0 6.627-5.373 12-12 12"/></symbol><symbol id="git-commit" viewBox="0 0 32 32"><path d="M21.333 16a5.333 5.333 0 1 1-10.666 0 5.333 5.333 0 0 1 10.666 0zM1.4 16h7.933m13.347 0h7.933"/></symbol><symbol id="git-merge" viewBox="0 0 32 32"><path d="M28 24a4 4 0 1 1-8 0 4 4 0 0 1 8 0zM12 8a4 4 0 1 1-8 0 4 4 0 0 1 8 0z"/><path d="M8 28V12c0 6.627 5.373 12 12 12"/></symbol><symbol id="git-pull-request" viewBox="0 0 32 32"><path d="M28 24a4 4 0 1 1-8 0 4 4 0 0 1 8 0zM12 8a4 4 0 1 1-8 0 4 4 0 0 1 8 0z"/><path d="M17.333 8h4A2.667 2.667 0 0 1 24 10.667V20M8 12v16"/></symbol><symbol id="github" viewBox="0 0 32 32"><path d="M12 25.333c-6.667 2-6.667-3.333-9.333-4m18.666 8v-5.16a4.48 4.48 0 0 0-1.254-3.481l.001.001c4.187-.467 8.587-2.053 8.587-9.333 0-1.94-.762-3.702-2.003-5.003l.003.003a6.64 6.64 0 0 0 .427-2.364c0-.962-.201-1.878-.564-2.707l.017.044s-1.573-.467-5.213 1.973c-1.399-.394-3.007-.621-4.667-.621s-3.267.227-4.792.651l.125-.03C8.36.866 6.787 1.333 6.787 1.333a6.643 6.643 0 0 0-.547 2.663c0 .849.157 1.661.442 2.41l-.016-.046a7.227 7.227 0 0 0-2 5.001v.041-.002c0 7.227 4.4 8.813 8.587 9.333a4.48 4.48 0 0 0-1.252 3.455L12 24.173v5.16"/></symbol><symbol id="globe" viewBox="0 0 32 32"><path d="M29.333 16c0 7.364-5.97 13.333-13.333 13.333S2.667 23.363 2.667 16C2.667 8.636 8.637 2.667 16 2.667S29.333 8.637 29.333 16zM2.667 16h26.667"/><path d="M16 2.667a20.309 20.309 0 0 1 5.333 13.311V16a20.34 20.34 0 0 1-5.347 13.349l.014-.015a20.309 20.309 0 0 1-5.333-13.311v-.022a20.34 20.34 0 0 1 5.347-13.349L16 2.667z"/></symbol><symbol id="hash" viewBox="0 0 32 32"><path d="M5.333 12h21.333M5.333 20h21.333M13.333 4l-2.667 24M21.333 4l-2.667 24"/></symbol><symbol id="headphones" viewBox="0 0 32 32"><path d="M4 24v-8C4 9.373 9.373 4 16 4s12 5.373 12 12v8"/><path d="M28 25.333A2.667 2.667 0 0 1 25.333 28H24a2.667 2.667 0 0 1-2.667-2.667v-4A2.667 2.667 0 0 1 24 18.666h4zm-24 0A2.667 2.667 0 0 0 6.667 28H8a2.667 2.667 0 0 0 2.667-2.667v-4A2.667 2.667 0 0 0 8 18.666H4z"/></symbol><symbol id="help-circle" viewBox="0 0 32 32"><path d="M29.333 16c0 7.364-5.97 13.333-13.333 13.333S2.667 23.363 2.667 16C2.667 8.636 8.637 2.667 16 2.667S29.333 8.637 29.333 16z"/><path d="M12.12 12c.564-1.57 2.04-2.673 3.773-2.673a4 4 0 0 1 4 4v.006c0 2.667-4 4-4 4M16 22.667"/></symbol><symbol id="image" viewBox="0 0 32 32"><path d="M6.667 4h18.667a2.667 2.667 0 0 1 2.667 2.667v18.667a2.667 2.667 0 0 1-2.667 2.667H6.667A2.667 2.667 0 0 1 4 25.334V6.667A2.667 2.667 0 0 1 6.667 4z"/><path d="M13.333 11.333a2 2 0 1 1-3.999.001 2 2 0 0 1 3.999-.001zM28 20l-6.667-6.667L6.666 28"/></symbol><symbol id="info" viewBox="0 0 32 32"><path d="M29.333 16c0 7.364-5.97 13.333-13.333 13.333S2.667 23.363 2.667 16C2.667 8.636 8.637 2.667 16 2.667S29.333 8.637 29.333 16zM16 21.333V16m0-5.333"/></symbol><symbol id="link-2" viewBox="0 0 32 32"><path d="M20 9.333h4a6.667 6.667 0 0 1 0 13.334h-4m-8 0H8A6.667 6.667 0 0 1 8 9.333h4M10.667 16h10.667"/></symbol><symbol id="link" viewBox="0 0 32 32"><path d="M13.333 17.333a6.666 6.666 0 0 0 10.053.72l4-4a6.667 6.667 0 0 0-9.429-9.425l.002-.002-2.293 2.28"/><path d="M18.667 14.667a6.666 6.666 0 0 0-10.053-.72l-4 4a6.667 6.667 0 0 0 9.429 9.425l-.002.002 2.28-2.28"/></symbol><symbol id="list" viewBox="0 0 32 32"><path d="M10.667 8H28m-17.333 8H28m-17.333 8H28M4 24"/></symbol><symbol id="lock" viewBox="0 0 32 32"><path d="M6.667 14.667h18.667a2.667 2.667 0 0 1 2.667 2.667v9.333a2.667 2.667 0 0 1-2.667 2.667H6.667A2.667 2.667 0 0 1 4 26.667v-9.333a2.667 2.667 0 0 1 2.667-2.667zm2.666 0V9.334a6.667 6.667 0 0 1 13.334 0v5.333"/></symbol><symbol id="log-in" viewBox="0 0 32 32"><path d="M20 4h5.333A2.667 2.667 0 0 1 28 6.667v18.667a2.667 2.667 0 0 1-2.667 2.667H20m-6.667-5.334L20 16l-6.667-6.667M20 16H4"/></symbol><symbol id="log-out" viewBox="0 0 32 32"><path d="M12 28H6.667A2.667 2.667 0 0 1 4 25.333V6.666a2.667 2.667 0 0 1 2.667-2.667H12m9.333 18.668L28 16l-6.667-6.667M28 16H12"/></symbol><symbol id="mail" viewBox="0 0 32 32"><path d="M5.333 5.333h21.333c1.467 0 2.667 1.2 2.667 2.667v16c0 1.467-1.2 2.667-2.667 2.667H5.333A2.675 2.675 0 0 1 2.666 24V8c0-1.467 1.2-2.667 2.667-2.667z"/><path d="M29.333 8L16 17.333 2.667 8"/></symbol><symbol id="map-pin" viewBox="0 0 32 32"><path d="M28 13.333c0 9.333-12 17.333-12 17.333s-12-8-12-17.333c0-6.627 5.373-12 12-12s12 5.373 12 12z"/><path d="M20 13.333a4 4 0 1 1-8 0 4 4 0 0 1 8 0z"/></symbol><symbol id="message-circle" viewBox="0 0 32 32"><path d="M28 15.333v.029c0 1.837-.444 3.571-1.229 5.1l.029-.063c-1.901 3.744-5.723 6.265-10.133 6.267h-.029c-1.837 0-3.571-.444-5.1-1.229l.063.029-7.6 2.533 2.533-7.6c-.756-1.466-1.2-3.2-1.2-5.038v-.031.002a11.335 11.335 0 0 1 6.202-10.104l.064-.03c1.466-.756 3.2-1.2 5.038-1.2h.696c5.755.327 10.339 4.912 10.665 10.637l.001.03v.667z"/></symbol><symbol id="moon" viewBox="0 0 32 32"><path d="M28 17.053c-.584 6.135-5.71 10.896-11.949 10.896-6.627 0-12-5.373-12-12 0-6.239 4.761-11.365 10.847-11.945L14.946 4a9.262 9.262 0 0 0-1.828 5.548 9.333 9.333 0 0 0 9.333 9.333 9.29 9.29 0 0 0 5.572-1.845l-.025.018z"/></symbol><symbol id="music" viewBox="0 0 32 32"><path d="M12 22.667H6.667a2.667 2.667 0 1 0 0 5.334h2.667a2.667 2.667 0 0 0 2.667-2.667zM28 20h-5.333a2.667 2.667 0 1 0 0 5.334h2.667a2.667 2.667 0 0 0 2.667-2.667z"/><path d="M12 22.667v-16L28 4v16"/></symbol><symbol id="paperclip" viewBox="0 0 32 32"><path d="M28.587 14.733L16.334 26.986a8.004 8.004 0 1 1-11.32-11.32L17.267 3.413a5.336 5.336 0 1 1 7.546 7.546L12.546 23.212a2.668 2.668 0 1 1-3.774-3.774l11.32-11.307"/></symbol><symbol id="rss" viewBox="0 0 32 32"><path d="M5.333 14.667c6.627 0 12 5.373 12 12m-12-21.334c11.782 0 21.333 9.551 21.333 21.333M8 25.333a1.333 1.333 0 1 1-2.667 0 1.333 1.333 0 0 1 2.667 0z"/></symbol><symbol id="search" viewBox="0 0 32 32"><path d="M25.333 14.667c0 5.891-4.776 10.667-10.667 10.667S3.999 20.558 3.999 14.667 8.775 4 14.666 4s10.667 4.776 10.667 10.667zM28 28l-5.8-5.8"/></symbol><symbol id="send" viewBox="0 0 32 32"><path d="M29.333 2.667L14.666 17.334M29.333 2.667L20 29.334l-5.333-12-12-5.333 26.667-9.333z"/></symbol><symbol id="share-2" viewBox="0 0 32 32"><path d="M28 6.667a4 4 0 1 1-8 0 4 4 0 0 1 8 0zM12 16a4 4 0 1 1-8 0 4 4 0 0 1 8 0zm16 9.333a4 4 0 1 1-8 0 4 4 0 0 1 8 0zm-16.547-7.32l9.107 5.307m-.013-14.64l-9.093 5.307"/></symbol><symbol id="share" viewBox="0 0 32 32"><path d="M5.333 16v10.667A2.667 2.667 0 0 0 8 29.334h16a2.667 2.667 0 0 0 2.667-2.667V16m-5.334-8L16 2.667 10.667 8M16 2.667V20"/></symbol><symbol id="sun" viewBox="0 0 32 32"><path d="M22.667 16a6.667 6.667 0 1 1-13.334 0 6.667 6.667 0 0 1 13.334 0zM16 1.333V4m0 24v2.667M5.627 5.627L7.52 7.52m16.96 16.96l1.893 1.893M1.333 16H4m24 0h2.667M5.627 26.373L7.52 24.48M24.48 7.52l1.893-1.893"/></symbol><symbol id="tag" viewBox="0 0 32 32"><path d="M27.453 17.88l-9.56 9.56c-.483.483-1.15.782-1.887.782s-1.404-.299-1.887-.782L2.666 16V2.667h13.333L27.452 14.12c.479.482.775 1.146.775 1.88s-.296 1.398-.776 1.88zM9.333 9.333"/></symbol><symbol id="thumbs-down" viewBox="0 0 32 32"><path d="M13.333 20v5.333a4 4 0 0 0 4 4l5.333-12V2.666H7.596a2.668 2.668 0 0 0-2.635 2.252l-.002.015-1.84 12A2.667 2.667 0 0 0 5.756 20h.032-.002zm9.334-17.333h3.614a3.08 3.08 0 0 1 3.05 2.651l.002.016v9.333a3.084 3.084 0 0 1-3.052 2.667l-.057-.001h.003-3.56"/></symbol><symbol id="thumbs-up" viewBox="0 0 32 32"><path d="M18.667 12V6.667a4 4 0 0 0-4-4l-5.333 12v14.667h15.07a2.668 2.668 0 0 0 2.635-2.252l.002-.015 1.84-12A2.667 2.667 0 0 0 26.244 12h-.032.002zM9.333 29.333h-4a2.667 2.667 0 0 1-2.667-2.667v-9.333a2.667 2.667 0 0 1 2.667-2.667h4"/></symbol><symbol id="type" viewBox="0 0 32 32"><path d="M5.333 9.333v-4h21.333v4M12 26.667h8M16 5.333v21.333"/></symbol><symbol id="unlock" viewBox="0 0 32 32"><path d="M6.667 14.667h18.667a2.667 2.667 0 0 1 2.667 2.667v9.333a2.667 2.667 0 0 1-2.667 2.667H6.667A2.667 2.667 0 0 1 4 26.667v-9.333a2.667 2.667 0 0 1 2.667-2.667zm2.666 0v-5.34a6.667 6.667 0 0 1 13.193-1.37l.008.043"/></symbol><symbol id="upload" viewBox="0 0 32 32"><path d="M28 20v5.333A2.667 2.667 0 0 1 25.333 28H6.666a2.667 2.667 0 0 1-2.667-2.667V20m18.668-9.333L16 4l-6.667 6.667M16 4v16"/></symbol><symbol id="x" viewBox="0 0 32 32"><path d="M24 8L8 24M8 8l16 16"/></symbol><symbol id="youtube" viewBox="0 0 32 32"><path d="M30.053 8.56a3.72 3.72 0 0 0-2.561-2.66l-.026-.006c-2.293-.56-11.467-.56-11.467-.56s-9.173 0-11.467.613a3.723 3.723 0 0 0-2.581 2.641l-.006.026c-.39 2.063-.614 4.437-.614 6.862v.201-.01l-.001.243c0 2.426.223 4.8.651 7.102l-.037-.239a3.724 3.724 0 0 0 2.561 2.554l.026.006c2.293.613 11.467.613 11.467.613s9.173 0 11.467-.613a3.723 3.723 0 0 0 2.581-2.641l.006-.026c.39-2.063.614-4.436.614-6.861v-.146.008l.001-.243c0-2.426-.223-4.8-.651-7.102l.037.239z"/><path d="M13 20.027l7.667-4.36L13 11.307v8.72z"/></symbol><symbol id="zoom-in" viewBox="0 0 32 32"><path d="M25.333 14.667c0 5.891-4.776 10.667-10.667 10.667S3.999 20.558 3.999 14.667 8.775 4 14.666 4s10.667 4.776 10.667 10.667zM28 28l-5.8-5.8m-7.533-11.533v8m-4-4h8"/></symbol><symbol id="zoom-out" viewBox="0 0 32 32"><path d="M25.333 14.667c0 5.891-4.776 10.667-10.667 10.667S3.999 20.558 3.999 14.667 8.775 4 14.666 4s10.667 4.776 10.667 10.667zM28 28l-5.8-5.8m-11.533-7.533h8"/></symbol></defs></svg>