<svg version="1.1" xmlns="http://www.w3.org/2000/svg" aria-hidden="true">
  <defs>
    <symbol id="activity" viewBox="0 0 32 32">
      <title>activity</title>
      <path d="M29.333 16h-5.333l-4 12-8-24-4 12h-5.333"></path>
    </symbol>
    <symbol id="anchor" viewBox="0 0 32 32">
      <title>anchor</title>
      <path d="M20 6.667c0 2.209-1.791 4-4 4s-4-1.791-4-4c0-2.209 1.791-4 4-4s4 1.791 4 4z"></path>
      <path d="M16 29.333v-18.667"></path>
      <path d="M6.667 16h-4c0 7.364 5.97 13.333 13.333 13.333s13.333-5.97 13.333-13.333v0h-4"></path>
    </symbol>
    <symbol id="aperture" viewBox="0 0 32 32">
      <title>aperture</title>
      <path d="M29.333 16c0 7.364-5.97 13.333-13.333 13.333s-13.333-5.97-13.333-13.333c0-7.364 5.97-13.333 13.333-13.333s13.333 5.97 13.333 13.333z"></path>
      <path d="M19.080 10.667l7.653 13.253"></path>
      <path d="M12.92 10.667h15.307"></path>
      <path d="M9.84 16l7.653-13.253"></path>
      <path d="M12.92 21.333l-7.653-13.253"></path>
      <path d="M19.080 21.333h-15.307"></path>
      <path d="M22.16 16l-7.653 13.253"></path>
    </symbol>
    <symbol id="archive" viewBox="0 0 32 32">
      <title>archive</title>
      <path d="M28 10.667v17.333h-24v-17.333"></path>
      <path d="M1.333 4h29.333v6.667h-29.333v-6.667z"></path>
      <path d="M13.333 16h5.333"></path>
    </symbol>
    <symbol id="arrow-down-left" viewBox="0 0 32 32">
      <title>arrow-down-left</title>
      <path d="M22.667 9.333l-13.333 13.333"></path>
      <path d="M22.667 22.667h-13.333v-13.333"></path>
    </symbol>
    <symbol id="arrow-down-right" viewBox="0 0 32 32">
      <title>arrow-down-right</title>
      <path d="M9.333 9.333l13.333 13.333"></path>
      <path d="M22.667 9.333v13.333h-13.333"></path>
    </symbol>
    <symbol id="arrow-down" viewBox="0 0 32 32">
      <title>arrow-down</title>
      <path d="M16 6.667v18.667"></path>
      <path d="M25.333 16l-9.333 9.333-9.333-9.333"></path>
    </symbol>
    <symbol id="arrow-left" viewBox="0 0 32 32">
      <title>arrow-left</title>
      <path d="M25.333 16h-18.667"></path>
      <path d="M16 25.333l-9.333-9.333 9.333-9.333"></path>
    </symbol>
    <symbol id="arrow-right" viewBox="0 0 32 32">
      <title>arrow-right</title>
      <path d="M6.667 16h18.667"></path>
      <path d="M16 6.667l9.333 9.333-9.333 9.333"></path>
    </symbol>
    <symbol id="arrow-up-left" viewBox="0 0 32 32">
      <title>arrow-up-left</title>
      <path d="M22.667 22.667l-13.333-13.333"></path>
      <path d="M9.333 22.667v-13.333h13.333"></path>
    </symbol>
    <symbol id="arrow-up-right" viewBox="0 0 32 32">
      <title>arrow-up-right</title>
      <path d="M9.333 22.667l13.333-13.333"></path>
      <path d="M9.333 9.333h13.333v13.333"></path>
    </symbol>
    <symbol id="arrow-up" viewBox="0 0 32 32">
      <title>arrow-up</title>
      <path d="M16 25.333v-18.667"></path>
      <path d="M6.667 16l9.333-9.333 9.333 9.333"></path>
    </symbol>
    <symbol id="chevron-down" viewBox="0 0 32 32">
      <title>chevron-down</title>
      <path stroke-linejoin="round" stroke-linecap="round" stroke-miterlimit="4" stroke-width="2.6667" d="M8 12l8 8 8-8"></path>
    </symbol>
    <symbol id="chevron-left" viewBox="0 0 32 32">
      <title>chevron-left</title>
      <path stroke-linejoin="round" stroke-linecap="round" stroke-miterlimit="4" stroke-width="2.6667" d="M20 24l-8-8 8-8"></path>
    </symbol>
    <symbol id="chevron-right" viewBox="0 0 32 32">
      <title>chevron-right</title>
      <path stroke-linejoin="round" stroke-linecap="round" stroke-miterlimit="4" stroke-width="2.6667" d="M12 24l8-8-8-8"></path>
    </symbol>
    <symbol id="chevron-up" viewBox="0 0 32 32">
      <title>chevron-up</title>
      <path stroke-linejoin="round" stroke-linecap="round" stroke-miterlimit="4" stroke-width="2.6667" d="M24 20l-8-8-8 8"></path>
    </symbol>
    <symbol id="download" viewBox="0 0 32 32">
      <title>download</title>
      <path d="M28 20v5.333c0 1.473-1.194 2.667-2.667 2.667v0h-18.667c-1.473 0-2.667-1.194-2.667-2.667v0-5.333"></path>
      <path d="M9.333 13.333l6.667 6.667 6.667-6.667"></path>
      <path d="M16 20v-16"></path>
    </symbol>
    <symbol id="edit" viewBox="0 0 32 32">
      <title>edit</title>
      <path d="M26.667 19.547v7.12c0 1.473-1.194 2.667-2.667 2.667v0h-18.667c-1.473 0-2.667-1.194-2.667-2.667v0-18.667c0-1.473 1.194-2.667 2.667-2.667v0h7.12"></path>
      <path d="M24 2.667l5.333 5.333-13.333 13.333h-5.333v-5.333l13.333-13.333z"></path>
    </symbol>
    <symbol id="external-link" viewBox="0 0 32 32">
      <title>external-link</title>
      <path d="M24 17.333v8c0 1.473-1.194 2.667-2.667 2.667v0h-14.667c-1.473 0-2.667-1.194-2.667-2.667v0-14.667c0-1.473 1.194-2.667 2.667-2.667v0h8"></path>
      <path d="M20 4h8v8"></path>
      <path d="M13.333 18.667l14.667-14.667"></path>
    </symbol>
    <symbol id="eye-off" viewBox="0 0 32 32">
      <title>eye-off</title>
      <path d="M23.92 23.92c-2.175 1.671-4.923 2.696-7.908 2.747l-0.012 0c-9.333 0-14.667-10.667-14.667-10.667 1.713-3.152 3.977-5.791 6.689-7.877l0.058-0.043M13.2 5.653c0.833-0.203 1.788-0.32 2.771-0.32 0.010 0 0.020 0 0.030 0h-0.002c9.333 0 14.667 10.667 14.667 10.667-0.871 1.615-1.827 3.008-2.91 4.29l0.030-0.036M18.827 18.827c-0.732 0.784-1.772 1.273-2.926 1.273-2.209 0-4-1.791-4-4 0-1.154 0.489-2.194 1.271-2.924l0.002-0.002"></path>
      <path d="M1.333 1.333l29.333 29.333"></path>
    </symbol>
    <symbol id="eye" viewBox="0 0 32 32">
      <title>eye</title>
      <path d="M1.333 16s5.333-10.667 14.667-10.667 14.667 10.667 14.667 10.667-5.333 10.667-14.667 10.667-14.667-10.667-14.667-10.667z"></path>
      <path d="M20 16c0 2.209-1.791 4-4 4s-4-1.791-4-4c0-2.209 1.791-4 4-4s4 1.791 4 4z"></path>
    </symbol>
    <symbol id="feather" viewBox="0 0 32 32">
      <title>feather</title>
      <path d="M26.987 16.32c1.449-1.449 2.344-3.45 2.344-5.66 0-4.421-3.584-8.004-8.004-8.004-2.21 0-4.211 0.896-5.66 2.344v0l-9 9v11.333h11.333z"></path>
      <path d="M21.333 10.667l-18.667 18.667"></path>
      <path d="M22.667 20h-10.667"></path>
    </symbol>
    <symbol id="film" viewBox="0 0 32 32">
      <title>film</title>
      <path d="M5.573 2.667h20.853c1.605 0 2.907 1.301 2.907 2.907v20.853c0 1.605-1.301 2.907-2.907 2.907h-20.853c-1.605 0-2.907-1.301-2.907-2.907v-20.853c0-1.605 1.301-2.907 2.907-2.907z"></path>
      <path d="M9.333 2.667v26.667"></path>
      <path d="M22.667 2.667v26.667"></path>
      <path d="M2.667 16h26.667"></path>
      <path d="M2.667 9.333h6.667"></path>
      <path d="M2.667 22.667h6.667"></path>
      <path d="M22.667 22.667h6.667"></path>
      <path d="M22.667 9.333h6.667"></path>
    </symbol>
    <symbol id="git-branch" viewBox="0 0 32 32">
      <title>git-branch</title>
      <path d="M8 4v16"></path>
      <path d="M28 8c0 2.209-1.791 4-4 4s-4-1.791-4-4c0-2.209 1.791-4 4-4s4 1.791 4 4z"></path>
      <path d="M12 24c0 2.209-1.791 4-4 4s-4-1.791-4-4c0-2.209 1.791-4 4-4s4 1.791 4 4z"></path>
      <path d="M24 12c0 6.627-5.373 12-12 12v0"></path>
    </symbol>
    <symbol id="git-commit" viewBox="0 0 32 32">
      <title>git-commit</title>
      <path d="M21.333 16c0 2.946-2.388 5.333-5.333 5.333s-5.333-2.388-5.333-5.333c0-2.946 2.388-5.333 5.333-5.333s5.333 2.388 5.333 5.333z"></path>
      <path d="M1.4 16h7.933"></path>
      <path d="M22.68 16h7.933"></path>
    </symbol>
    <symbol id="git-merge" viewBox="0 0 32 32">
      <title>git-merge</title>
      <path d="M28 24c0 2.209-1.791 4-4 4s-4-1.791-4-4c0-2.209 1.791-4 4-4s4 1.791 4 4z"></path>
      <path d="M12 8c0 2.209-1.791 4-4 4s-4-1.791-4-4c0-2.209 1.791-4 4-4s4 1.791 4 4z"></path>
      <path d="M8 28v-16c0 6.627 5.373 12 12 12v0"></path>
    </symbol>
    <symbol id="git-pull-request" viewBox="0 0 32 32">
      <title>git-pull-request</title>
      <path d="M28 24c0 2.209-1.791 4-4 4s-4-1.791-4-4c0-2.209 1.791-4 4-4s4 1.791 4 4z"></path>
      <path d="M12 8c0 2.209-1.791 4-4 4s-4-1.791-4-4c0-2.209 1.791-4 4-4s4 1.791 4 4z"></path>
      <path d="M17.333 8h4c1.473 0 2.667 1.194 2.667 2.667v0 9.333"></path>
      <path d="M8 12v16"></path>
    </symbol>
    <symbol id="github" viewBox="0 0 32 32">
      <title>github</title>
      <path d="M12 25.333c-6.667 2-6.667-3.333-9.333-4M21.333 29.333v-5.16c0.009-0.105 0.014-0.228 0.014-0.352 0-1.216-0.483-2.32-1.268-3.129l0.001 0.001c4.187-0.467 8.587-2.053 8.587-9.333-0-1.94-0.762-3.702-2.003-5.003l0.003 0.003c0.27-0.702 0.427-1.515 0.427-2.364 0-0.962-0.201-1.878-0.564-2.707l0.017 0.044s-1.573-0.467-5.213 1.973c-1.399-0.394-3.007-0.621-4.667-0.621s-3.267 0.227-4.792 0.651l0.125-0.030c-3.64-2.44-5.213-1.973-5.213-1.973-0.346 0.785-0.547 1.701-0.547 2.663 0 0.849 0.157 1.661 0.442 2.41l-0.016-0.046c-1.238 1.299-2 3.061-2 5.001 0 0.014 0 0.027 0 0.041v-0.002c0 7.227 4.4 8.813 8.587 9.333-0.782 0.808-1.264 1.91-1.264 3.125 0 0.111 0.004 0.221 0.012 0.33l-0.001-0.015v5.16"></path>
    </symbol>
    <symbol id="globe" viewBox="0 0 32 32">
      <title>globe</title>
      <path d="M29.333 16c0 7.364-5.97 13.333-13.333 13.333s-13.333-5.97-13.333-13.333c0-7.364 5.97-13.333 13.333-13.333s13.333 5.97 13.333 13.333z"></path>
      <path d="M2.667 16h26.667"></path>
      <path d="M16 2.667c3.216 3.512 5.223 8.178 5.333 13.311l0 0.022c-0.111 5.155-2.117 9.822-5.347 13.349l0.014-0.015c-3.216-3.512-5.223-8.178-5.333-13.311l-0-0.022c0.111-5.155 2.117-9.822 5.347-13.349l-0.014 0.015z"></path>
    </symbol>
    <symbol id="hash" viewBox="0 0 32 32">
      <title>hash</title>
      <path d="M5.333 12h21.333"></path>
      <path d="M5.333 20h21.333"></path>
      <path d="M13.333 4l-2.667 24"></path>
      <path d="M21.333 4l-2.667 24"></path>
    </symbol>
    <symbol id="headphones" viewBox="0 0 32 32">
      <title>headphones</title>
      <path d="M4 24v-8c0-6.627 5.373-12 12-12s12 5.373 12 12v0 8"></path>
      <path d="M28 25.333c0 1.473-1.194 2.667-2.667 2.667v0h-1.333c-1.473 0-2.667-1.194-2.667-2.667v0-4c0-1.473 1.194-2.667 2.667-2.667v0h4zM4 25.333c0 1.473 1.194 2.667 2.667 2.667v0h1.333c1.473 0 2.667-1.194 2.667-2.667v0-4c0-1.473-1.194-2.667-2.667-2.667v0h-4z"></path>
    </symbol>
    <symbol id="help-circle" viewBox="0 0 32 32">
      <title>help-circle</title>
      <path d="M29.333 16c0 7.364-5.97 13.333-13.333 13.333s-13.333-5.97-13.333-13.333c0-7.364 5.97-13.333 13.333-13.333s13.333 5.97 13.333 13.333z"></path>
      <path d="M12.12 12c0.564-1.57 2.040-2.673 3.773-2.673 2.209 0 4 1.791 4 4 0 0.002 0 0.004 0 0.006v-0c0 2.667-4 4-4 4"></path>
      <path d="M16 22.667v0"></path>
    </symbol>
    <symbol id="image" viewBox="0 0 32 32">
      <title>image</title>
      <path d="M6.667 4h18.667c1.473 0 2.667 1.194 2.667 2.667v18.667c0 1.473-1.194 2.667-2.667 2.667h-18.667c-1.473 0-2.667-1.194-2.667-2.667v-18.667c0-1.473 1.194-2.667 2.667-2.667z"></path>
      <path d="M13.333 11.333c0 1.105-0.895 2-2 2s-2-0.895-2-2c0-1.105 0.895-2 2-2s2 0.895 2 2z"></path>
      <path d="M28 20l-6.667-6.667-14.667 14.667"></path>
    </symbol>
    <symbol id="info" viewBox="0 0 32 32">
      <title>info</title>
      <path d="M29.333 16c0 7.364-5.97 13.333-13.333 13.333s-13.333-5.97-13.333-13.333c0-7.364 5.97-13.333 13.333-13.333s13.333 5.97 13.333 13.333z"></path>
      <path d="M16 21.333v-5.333"></path>
      <path d="M16 10.667v0"></path>
    </symbol>
    <symbol id="link-2" viewBox="0 0 32 32">
      <title>link-2</title>
      <path d="M20 9.333h4c3.682 0 6.667 2.985 6.667 6.667v0c0 3.682-2.985 6.667-6.667 6.667v0h-4M12 22.667h-4c-3.682 0-6.667-2.985-6.667-6.667v0c0-3.682 2.985-6.667 6.667-6.667v0h4"></path>
      <path d="M10.667 16h10.667"></path>
    </symbol>
    <symbol id="link" viewBox="0 0 32 32">
      <title>link</title>
      <path d="M13.333 17.333c1.229 1.63 3.162 2.673 5.338 2.673 1.841 0 3.508-0.747 4.715-1.953l4-4c1.158-1.198 1.871-2.831 1.871-4.631 0-3.682-2.985-6.667-6.667-6.667-1.8 0-3.434 0.714-4.633 1.873l0.002-0.002-2.293 2.28"></path>
      <path d="M18.667 14.667c-1.229-1.63-3.162-2.673-5.338-2.673-1.841 0-3.508 0.747-4.715 1.953l-4 4c-1.158 1.198-1.871 2.831-1.871 4.631 0 3.682 2.985 6.667 6.667 6.667 1.8 0 3.434-0.714 4.633-1.873l-0.002 0.002 2.28-2.28"></path>
    </symbol>
    <symbol id="list" viewBox="0 0 32 32">
      <title>list</title>
      <path d="M10.667 8h17.333"></path>
      <path d="M10.667 16h17.333"></path>
      <path d="M10.667 24h17.333"></path>
      <path d="M4 8v0"></path>
      <path d="M4 16v0"></path>
      <path d="M4 24v0"></path>
    </symbol>
    <symbol id="lock" viewBox="0 0 32 32">
      <title>lock</title>
      <path d="M6.667 14.667h18.667c1.473 0 2.667 1.194 2.667 2.667v9.333c0 1.473-1.194 2.667-2.667 2.667h-18.667c-1.473 0-2.667-1.194-2.667-2.667v-9.333c0-1.473 1.194-2.667 2.667-2.667z"></path>
      <path d="M9.333 14.667v-5.333c0-3.682 2.985-6.667 6.667-6.667s6.667 2.985 6.667 6.667v0 5.333"></path>
    </symbol>
    <symbol id="log-in" viewBox="0 0 32 32">
      <title>log-in</title>
      <path d="M20 4h5.333c1.473 0 2.667 1.194 2.667 2.667v0 18.667c0 1.473-1.194 2.667-2.667 2.667v0h-5.333"></path>
      <path d="M13.333 22.667l6.667-6.667-6.667-6.667"></path>
      <path d="M20 16h-16"></path>
    </symbol>
    <symbol id="log-out" viewBox="0 0 32 32">
      <title>log-out</title>
      <path d="M12 28h-5.333c-1.473 0-2.667-1.194-2.667-2.667v0-18.667c0-1.473 1.194-2.667 2.667-2.667v0h5.333"></path>
      <path d="M21.333 22.667l6.667-6.667-6.667-6.667"></path>
      <path d="M28 16h-16"></path>
    </symbol>
    <symbol id="mail" viewBox="0 0 32 32">
      <title>mail</title>
      <path d="M5.333 5.333h21.333c1.467 0 2.667 1.2 2.667 2.667v16c0 1.467-1.2 2.667-2.667 2.667h-21.333c-1.467 0-2.667-1.2-2.667-2.667v-16c0-1.467 1.2-2.667 2.667-2.667z"></path>
      <path d="M29.333 8l-13.333 9.333-13.333-9.333"></path>
    </symbol>
    <symbol id="map-pin" viewBox="0 0 32 32">
      <title>map-pin</title>
      <path d="M28 13.333c0 9.333-12 17.333-12 17.333s-12-8-12-17.333c0-6.627 5.373-12 12-12s12 5.373 12 12v0z"></path>
      <path d="M20 13.333c0 2.209-1.791 4-4 4s-4-1.791-4-4c0-2.209 1.791-4 4-4s4 1.791 4 4z"></path>
    </symbol>
    <symbol id="message-circle" viewBox="0 0 32 32">
      <title>message-circle</title>
      <path d="M28 15.333c0 0.009 0 0.019 0 0.029 0 1.837-0.444 3.571-1.229 5.1l0.029-0.063c-1.901 3.744-5.723 6.265-10.133 6.267h-0c-0.009 0-0.019 0-0.029 0-1.837 0-3.571-0.444-5.1-1.229l0.063 0.029-7.6 2.533 2.533-7.6c-0.756-1.466-1.2-3.2-1.2-5.038 0-0.010 0-0.020 0-0.031v0.002c0.002-4.411 2.523-8.232 6.202-10.104l0.064-0.030c1.466-0.756 3.2-1.2 5.038-1.2 0.010 0 0.020 0 0.031 0h0.665c5.755 0.327 10.339 4.912 10.665 10.637l0.001 0.030v0.667z"></path>
    </symbol>
    <symbol id="moon" viewBox="0 0 32 32">
      <title>moon</title>
      <path d="M28 17.053c-0.584 6.135-5.71 10.896-11.949 10.896-6.627 0-12-5.373-12-12 0-6.239 4.761-11.365 10.847-11.945l0.048-0.004c-1.142 1.53-1.828 3.459-1.828 5.548 0 5.155 4.179 9.333 9.333 9.333 2.089 0 4.017-0.686 5.572-1.845l-0.025 0.018z"></path>
    </symbol>
    <symbol id="music" viewBox="0 0 32 32">
      <title>music</title>
      <path d="M12 22.667h-5.333c-1.473 0-2.667 1.194-2.667 2.667v0c0 1.473 1.194 2.667 2.667 2.667v0h2.667c1.473 0 2.667-1.194 2.667-2.667v0zM28 20h-5.333c-1.473 0-2.667 1.194-2.667 2.667v0c0 1.473 1.194 2.667 2.667 2.667v0h2.667c1.473 0 2.667-1.194 2.667-2.667v0z"></path>
      <path d="M12 22.667v-16l16-2.667v16"></path>
    </symbol>
    <symbol id="paperclip" viewBox="0 0 32 32">
      <title>paperclip</title>
      <path d="M28.587 14.733l-12.253 12.253c-1.449 1.449-3.45 2.344-5.66 2.344-4.421 0-8.004-3.584-8.004-8.004 0-2.21 0.896-4.211 2.344-5.66v0l12.253-12.253c0.966-0.966 2.3-1.563 3.773-1.563 2.947 0 5.336 2.389 5.336 5.336 0 1.474-0.597 2.808-1.563 3.773v0l-12.267 12.253c-0.483 0.483-1.15 0.781-1.887 0.781-1.474 0-2.668-1.195-2.668-2.668 0-0.737 0.299-1.404 0.781-1.887v0l11.32-11.307"></path>
    </symbol>
    <symbol id="rss" viewBox="0 0 32 32">
      <title>rss</title>
      <path d="M5.333 14.667c6.627 0 12 5.373 12 12v0"></path>
      <path d="M5.333 5.333c11.782 0 21.333 9.551 21.333 21.333v0"></path>
      <path d="M8 25.333c0 0.736-0.597 1.333-1.333 1.333s-1.333-0.597-1.333-1.333c0-0.736 0.597-1.333 1.333-1.333s1.333 0.597 1.333 1.333z"></path>
    </symbol>
    <symbol id="search" viewBox="0 0 32 32">
      <title>search</title>
      <path d="M25.333 14.667c0 5.891-4.776 10.667-10.667 10.667s-10.667-4.776-10.667-10.667c0-5.891 4.776-10.667 10.667-10.667s10.667 4.776 10.667 10.667z"></path>
      <path d="M28 28l-5.8-5.8"></path>
    </symbol>
    <symbol id="send" viewBox="0 0 32 32">
      <title>send</title>
      <path d="M29.333 2.667l-14.667 14.667"></path>
      <path d="M29.333 2.667l-9.333 26.667-5.333-12-12-5.333 26.667-9.333z"></path>
    </symbol>
    <symbol id="share-2" viewBox="0 0 32 32">
      <title>share-2</title>
      <path d="M28 6.667c0 2.209-1.791 4-4 4s-4-1.791-4-4c0-2.209 1.791-4 4-4s4 1.791 4 4z"></path>
      <path d="M12 16c0 2.209-1.791 4-4 4s-4-1.791-4-4c0-2.209 1.791-4 4-4s4 1.791 4 4z"></path>
      <path d="M28 25.333c0 2.209-1.791 4-4 4s-4-1.791-4-4c0-2.209 1.791-4 4-4s4 1.791 4 4z"></path>
      <path d="M11.453 18.013l9.107 5.307"></path>
      <path d="M20.547 8.68l-9.093 5.307"></path>
    </symbol>
    <symbol id="share" viewBox="0 0 32 32">
      <title>share</title>
      <path d="M5.333 16v10.667c0 1.473 1.194 2.667 2.667 2.667v0h16c1.473 0 2.667-1.194 2.667-2.667v0-10.667"></path>
      <path d="M21.333 8l-5.333-5.333-5.333 5.333"></path>
      <path d="M16 2.667v17.333"></path>
    </symbol>
    <symbol id="sun" viewBox="0 0 32 32">
      <title>sun</title>
      <path d="M22.667 16c0 3.682-2.985 6.667-6.667 6.667s-6.667-2.985-6.667-6.667c0-3.682 2.985-6.667 6.667-6.667s6.667 2.985 6.667 6.667z"></path>
      <path d="M16 1.333v2.667"></path>
      <path d="M16 28v2.667"></path>
      <path d="M5.627 5.627l1.893 1.893"></path>
      <path d="M24.48 24.48l1.893 1.893"></path>
      <path d="M1.333 16h2.667"></path>
      <path d="M28 16h2.667"></path>
      <path d="M5.627 26.373l1.893-1.893"></path>
      <path d="M24.48 7.52l1.893-1.893"></path>
    </symbol>
    <symbol id="tag" viewBox="0 0 32 32">
      <title>tag</title>
      <path d="M27.453 17.88l-9.56 9.56c-0.483 0.483-1.15 0.782-1.887 0.782s-1.404-0.299-1.887-0.782l-0-0-11.453-11.44v-13.333h13.333l11.453 11.453c0.479 0.482 0.775 1.146 0.775 1.88s-0.296 1.398-0.776 1.88l0-0z"></path>
      <path d="M9.333 9.333v0"></path>
    </symbol>
    <symbol id="thumbs-down" viewBox="0 0 32 32">
      <title>thumbs-down</title>
      <path d="M13.333 20v5.333c0 2.209 1.791 4 4 4v0l5.333-12v-14.667h-15.040c-0.009-0-0.020-0-0.030-0-1.332 0-2.435 0.976-2.635 2.252l-0.002 0.015-1.84 12c-0.019 0.12-0.030 0.259-0.030 0.4 0 1.473 1.194 2.667 2.667 2.667 0.011 0 0.021-0 0.032-0h-0.002zM22.667 2.667h3.56c0.016-0 0.035-0 0.054-0 1.555 0 2.842 1.153 3.050 2.651l0.002 0.016v9.333c-0.211 1.514-1.497 2.667-3.052 2.667-0.019 0-0.038-0-0.057-0.001l0.003 0h-3.56"></path>
    </symbol>
    <symbol id="thumbs-up" viewBox="0 0 32 32">
      <title>thumbs-up</title>
      <path d="M18.667 12v-5.333c0-2.209-1.791-4-4-4v0l-5.333 12v14.667h15.040c0.009 0 0.020 0 0.030 0 1.332 0 2.435-0.976 2.635-2.252l0.002-0.015 1.84-12c0.019-0.12 0.030-0.259 0.030-0.4 0-1.473-1.194-2.667-2.667-2.667-0.011 0-0.021 0-0.032 0h0.002zM9.333 29.333h-4c-1.473 0-2.667-1.194-2.667-2.667v0-9.333c0-1.473 1.194-2.667 2.667-2.667v0h4"></path>
    </symbol>
    <symbol id="type" viewBox="0 0 32 32">
      <title>type</title>
      <path d="M5.333 9.333v-4h21.333v4"></path>
      <path d="M12 26.667h8"></path>
      <path d="M16 5.333v21.333"></path>
    </symbol>
    <symbol id="unlock" viewBox="0 0 32 32">
      <title>unlock</title>
      <path d="M6.667 14.667h18.667c1.473 0 2.667 1.194 2.667 2.667v9.333c0 1.473-1.194 2.667-2.667 2.667h-18.667c-1.473 0-2.667-1.194-2.667-2.667v-9.333c0-1.473 1.194-2.667 2.667-2.667z"></path>
      <path d="M9.333 14.667v-5.333c0-0.002 0-0.004 0-0.007 0-3.682 2.985-6.667 6.667-6.667 3.212 0 5.894 2.272 6.526 5.297l0.008 0.043"></path>
    </symbol>
    <symbol id="upload" viewBox="0 0 32 32">
      <title>upload</title>
      <path d="M28 20v5.333c0 1.473-1.194 2.667-2.667 2.667v0h-18.667c-1.473 0-2.667-1.194-2.667-2.667v0-5.333"></path>
      <path d="M22.667 10.667l-6.667-6.667-6.667 6.667"></path>
      <path d="M16 4v16"></path>
    </symbol>
    <symbol id="x" viewBox="0 0 32 32">
      <title>x</title>
      <path d="M24 8l-16 16"></path>
      <path d="M8 8l16 16"></path>
    </symbol>
    <symbol id="youtube" viewBox="0 0 32 32">
      <title>youtube</title>
      <path d="M30.053 8.56c-0.331-1.292-1.309-2.297-2.561-2.66l-0.026-0.006c-2.293-0.56-11.467-0.56-11.467-0.56s-9.173 0-11.467 0.613c-1.277 0.37-2.255 1.374-2.581 2.641l-0.006 0.026c-0.39 2.063-0.614 4.437-0.614 6.862 0 0.067 0 0.134 0 0.201l-0-0.010c-0 0.072-0.001 0.157-0.001 0.243 0 2.426 0.223 4.8 0.651 7.102l-0.037-0.239c0.364 1.248 1.333 2.209 2.561 2.554l0.026 0.006c2.293 0.613 11.467 0.613 11.467 0.613s9.173 0 11.467-0.613c1.277-0.37 2.255-1.374 2.581-2.641l0.006-0.026c0.39-2.063 0.614-4.436 0.614-6.861 0-0.049-0-0.098-0-0.146l0 0.008c0-0.072 0.001-0.157 0.001-0.243 0-2.426-0.223-4.8-0.651-7.102l0.037 0.239z"></path>
      <path d="M13 20.027l7.667-4.36-7.667-4.36v8.72z"></path>
    </symbol>
    <symbol id="zoom-in" viewBox="0 0 32 32">
      <title>zoom-in</title>
      <path d="M25.333 14.667c0 5.891-4.776 10.667-10.667 10.667s-10.667-4.776-10.667-10.667c0-5.891 4.776-10.667 10.667-10.667s10.667 4.776 10.667 10.667z"></path>
      <path d="M28 28l-5.8-5.8"></path>
      <path d="M14.667 10.667v8"></path>
      <path d="M10.667 14.667h8"></path>
    </symbol>
    <symbol id="zoom-out" viewBox="0 0 32 32">
      <title>zoom-out</title>
      <path d="M25.333 14.667c0 5.891-4.776 10.667-10.667 10.667s-10.667-4.776-10.667-10.667c0-5.891 4.776-10.667 10.667-10.667s10.667 4.776 10.667 10.667z"></path>
      <path d="M28 28l-5.8-5.8"></path>
      <path d="M10.667 14.667h8"></path>
    </symbol>
  </defs>
</svg>